<svg xmlns="http://www.w3.org/2000/svg" width="51" height="12"><path d="M47.687 6.633c-.002-.03.008-.072-.005-.092q-.36-.53-.723-1.054c-.156-.225-.318-.448-.465-.678-.262-.42-.46-.863-.422-1.39a.265.265 0 0 1 .393-.052c.301.246.615.491.864.79a26 26 0 0 1 1.32 1.746c.36.526.697 1.073.997 1.638.231.435.485.848.797 1.221s.416.807.373 1.29c-.02.209-.16.415-.375.471-.17.046-.353.073-.527.07-.837-.023-1.67-.069-2.507-.09a22 22 0 0 0-4.018.229c-.26.039-.528.026-.786.118-.08.028-.23-.065-.304-.143-.197-.205-.265-.479-.294-.754a.53.53 0 0 1 .186-.498c.213-.173.432-.29.718-.337 1.656-.267 3.324-.346 4.994-.385.032 0 .073-.072.095-.118.012-.02.001-.065-.014-.085-.033-.05-.069-.105-.118-.138-.574-.383-1.14-.786-1.734-1.138-.953-.56-1.938-1.067-2.89-1.634-1.32-.784-2.74-1.343-4.15-1.917-.744-.303-1.521-.52-2.276-.806-.471-.18-.982-.234-1.47-.375-.947-.275-1.927-.392-2.89-.59-.844-.173-1.713-.22-2.559-.402a.4.4 0 0 0-.088-.003c-.745.113-1.483-.076-2.227-.054-.747.02-1.494-.004-2.24-.01a10 10 0 0 0-1.695.1c-.264.043-.539.01-.804.037-1.722.165-3.437.405-5.132.787-.584.131-1.158.306-1.734.47-.575.166-1.156.321-1.719.528-1.521.557-3.023 1.174-4.427 2.014-1.038.62-2.093 1.21-3.113 1.857-.97.616-1.93 1.251-2.833 1.967-.69.544-1.329 1.16-1.99 1.744-.092.079-.178.168-.272.243-.378.31-.81.202-1.036-.257a.9.9 0 0 1-.096-.258c-.014-.088-.023-.202.02-.268.146-.232.285-.487.484-.665.657-.588 1.295-1.197 1.975-1.761a14 14 0 0 1 1.615-1.178c1.44-.885 2.883-1.775 4.336-2.636a19 19 0 0 1 1.842-.958c.544-.248 1.101-.465 1.633-.742.081-.04.16-.09.248-.11.466-.107.909-.293 1.357-.456a16 16 0 0 1 1.374-.42c.259-.07.525-.106.79-.13.272-.026.538-.056.754-.25.15-.134.335-.148.51-.124.302.045.588-.01.882-.08.406-.097.821-.139 1.233-.208.352-.06.702-.158 1.056-.178.365-.02.703-.109 1.048-.219.223-.068.473-.06.711-.047.45.027.891-.02 1.337-.044 1.274-.063 2.549-.196 3.828-.09.565.048 1.123.108 1.684.192.854.131 1.717.184 2.576.272.739.076 1.48.14 2.196.376.22.072.465.095.697.135 1.533.271 2.99.825 4.475 1.265 1.005.46 2.05.82 3.059 1.286 1.199.553 2.31 1.26 3.454 1.915.57.328 1.133.679 1.703 1.006.092.053.197.153.325.06z"/></svg>