<svg xmlns="http://www.w3.org/2000/svg" fill="none" viewBox="0 0.18 50.01 55.09"><path fill="#102C24" d="M49.914 25.958v1.293c0 .517.086 1.035 0 1.466-.17.948.172 1.896.086 2.845-.086.862-.171 1.81-.257 2.672-.086.948-.428 1.897-.856 2.759-.257.603-.514 1.206-.685 1.81-.514 1.207-1.027 2.328-1.883 3.276-1.114 1.293-2.14 2.5-3.34 3.793a25 25 0 0 1-1.626 1.465l-2.312 2.07c-.342.258-.77.517-1.113.862-.514.603-1.198.948-1.883 1.293-.685.43-1.456.603-2.14.948-.087 0-.172.086-.258.086-.856.431-1.626.948-2.483 1.38-.342.172-.685.344-1.113.43-.856.173-1.712.345-2.568.604-.685.172-1.456.259-2.14.172-.343 0-.6.087-.942.087-.685 0-1.285-.087-1.97-.173-.77-.086-1.455-.172-2.226-.345-.513-.086-.941-.345-1.455-.43l-1.027-.26c-.257-.086-.428-.258-.685-.344-.172-.086-.343-.259-.514-.345l-1.284-.517c-.856-.345-1.627-.604-2.483-1.035-.514-.258-.942-.603-1.456-.862-.599-.43-1.284-.776-1.883-1.207-.343-.258-.685-.603-1.028-.862-.428-.345-.941-.776-1.37-1.12a13.3 13.3 0 0 1-2.054-2.328c-.086-.172-.257-.259-.343-.431-.257-.517-.513-1.035-.856-1.552-.171-.258-.257-.603-.428-.862a6.6 6.6 0 0 1-.77-1.552c-.086-.344-.343-.603-.514-.862-.343-.517-.685-.948-.942-1.551-.171-.345-.171-.69-.257-1.035-.085-.172-.171-.431-.171-.603-.257-1.294-.428-2.5-.343-3.794 0-.948-.085-1.81-.17-2.758C0 29.837 0 29.32 0 28.803v-.086c0-.862.086-1.81.171-2.673 0-.603.086-1.207.171-1.724.086-.43.086-.948.172-1.38 0-.085 0-.258.085-.344.172-.431.172-.862.172-1.38 0-.43.17-.861.256-1.379.086-.344.086-.603.172-.948 0-.172.085-.345.17-.517.172-.517.515-.948.6-1.466a10 10 0 0 1 .428-1.724c.171-.603.343-1.12.685-1.638.428-.776.856-1.465 1.284-2.241.257-.431.6-.862.942-1.293.257-.345.514-.69 1.028-.862.428-.173.685-.345.941-.776.257-.345.514-.776.942-.862.086 0 .171-.086.171-.173q.386-.645 1.028-1.034s.171-.086.257-.259l.257-.258 1.54-1.035c.6-.345 1.114-.776 1.713-1.034.514-.259 1.113-.431 1.712-.69.257-.086.514-.259.685-.43q.386-.39 1.028-.518c.17 0 .428-.173.599-.259.514-.172 1.113-.345 1.627-.517.684-.259 1.455-.603 2.14-.862.086-.086.257-.086.343-.086.856-.087 1.626-.173 2.482-.173.77 0 1.627 0 2.398.086.685 0 1.284 0 1.969.087.428 0 .942.172 1.37.258.77.173 1.54.345 2.397.604.428.086.856.345 1.284.43.6.26 1.199.432 1.884.604.085 0 .085 0 .171.086 1.456.69 2.825 1.294 4.28 1.983.429.173.943.431 1.37.69.258.172.514.345.686.603.342.259.684.604 1.027.862l.428.431 2.055 2.07c.942.861 1.627 1.896 2.14 3.103.172.345.257.603.428.948.6 1.12.856 2.414 1.113 3.707.172.69.343 1.38.6 1.983.17.43.256.862.256 1.38.086.689.172 1.378.172 2.068v3.621c-.172 0-.172.172.085.172M22.432 1.562v-.087c-.429.087-.942.173-1.37.259s-.857.345-1.285.431c-1.113.172-2.226.603-3.339.948-.085 0-.17.087-.256.087-.6.344-1.113.603-1.713.948-.428.258-.942.43-1.37.69-.856.603-1.712 1.206-2.483 1.896-.684.517-1.284 1.12-1.883 1.724-.685.517-1.113 1.293-1.884 1.724l-.085.086c-.343.518-.6.949-.942 1.466-.856 1.38-1.627 2.759-2.483 4.138-.428.776-.685 1.552-.77 2.414-.172 1.034-.257 1.982-.343 3.017-.086.345-.086.776-.171 1.12-.086.346-.257.777-.257 1.121.086 1.466.171 2.845.257 4.31.085 1.294.428 2.5.856 3.708.685 1.637 1.37 3.19 2.055 4.827.085.086.085.259.171.345l1.798 2.069c.77.862 1.541 1.81 2.312 2.672.856.949 1.969 1.638 3.082 2.328.6.345 1.198.603 1.712.948.685.518 1.541.862 2.397 1.12.685.173 1.37.432 2.055.604.514.173 1.113.345 1.627.518h.257c.428 0 .856 0 1.284-.087.342-.086.685 0 1.027 0 .6 0 1.113.087 1.713.087.342 0 .685.086 1.027.086.171 0 .257.086.428 0 .514-.086.942-.173 1.456-.259.17 0 .256-.086.428-.172.257-.086.599-.173.856-.259.342-.086.6-.172.942-.172.256-.086.599-.086.856-.173.257-.086.514-.086.685-.172.514-.172 1.113-.259 1.627-.517h.085l2.055-.776c.257-.086.428-.259.6-.345 1.198-.431 2.31-1.12 3.253-1.897.685-.517 1.37-1.12 2.054-1.724.343-.258.6-.603.857-.862.684-.862 1.37-1.638 2.054-2.5.172-.258.428-.517.6-.776.085-.258.256-.344.428-.43.085 0 .171-.087.171-.087.343-.603.685-1.207 1.113-1.724.514-.862.685-1.81 1.027-2.672.086-.087.086-.259.086-.345 0-.604.257-1.12.514-1.638.257-.431.342-.776.428-1.207s.171-.776.257-1.207c.085-.345.17-.603.342-.862.086-.086 0-.259 0-.431v-.259c.343-.603.171-1.207.171-1.724s-.17-.948 0-1.465v-.345c-.085-.604-.17-1.293-.257-1.897-.085-.517-.17-1.034-.342-1.465-.086-.431-.342-.776-.514-1.12-.085-.173-.085-.346-.17-.518-.172-.517-.429-1.12-.6-1.638-.257-.862-.514-1.724-1.028-2.5-.085-.086-.085-.173-.17-.259-.343-.69-.514-1.465-1.114-1.896-.086-.086-.086-.173-.171-.259-.343-.345-.6-.69-.942-1.034-.685-.604-1.455-1.293-2.226-1.897-.086-.086-.086-.172-.171-.259l-.343-.344c-.342-.259-.77-.518-1.027-.862-.257-.26-.428-.431-.77-.518a20 20 0 0 1-1.627-.603c-.685-.259-1.37-.604-2.055-.862-.514-.69-1.199-1.035-1.884-1.293-.428-.173-.856-.345-1.284-.431-.514-.173-1.113-.259-1.627-.431-.856-.173-1.712-.518-2.568-.518-.685 0-1.284 0-1.97-.086-.427 0-.855-.086-1.37-.086-.684.086-1.455.172-2.14.259M26.37 53.63v-.518c0-.776.171-1.551-.086-2.413v-2.242c0-.086-.085-.258-.171-.258H25c-.086 0-.171.086-.171.172 0 .345-.086.776-.086 1.12-.085.777-.085 1.466-.171 2.242-.086.517-.171 1.12-.257 1.638 0 .431 0 .517.428.431.6 0 1.113-.172 1.627-.172m-6.593-5.949c0 .259.086.431.086.604 0 .776 0 1.638-.086 2.413 0 .776 0 1.466-.257 2.242-.085.172 0 .258.172.345.428.086.856.172 1.37.258.085-.344.17-.69.17-.948 0-1.034 0-2.155.172-3.19.086-.344.086-.69.086-1.034-.514-.345-1.028-.517-1.713-.69m2.398 6.035c.256 0 .513.086.77.086.685 0 .77-.172.77-.776v-.258c.086-.604.086-1.207.172-1.81.086-.95.086-1.811.171-2.76-.428 0-.856-.086-1.198-.086-.428 0-.428.087-.343.518.086.344.086.603.086.948-.086 1.293-.257 2.672-.428 4.138m-3.168-.69c0-.258.085-.43.085-.603 0-.345-.085-.69 0-1.035 0-.776.086-1.552.086-2.414 0-.344.086-.776.086-1.12 0-.086 0-.259-.086-.259-.342-.172-.77-.258-1.198-.431-.086.259-.172.517-.172.776-.085 1.552-.257 3.103-.171 4.655 0 .086.086.259.171.259.428 0 .77.086 1.199.172m12.243-5.69c-.171 0-.343.087-.428.087-.342.086-.6.258-.942.258q-.257 0-.257.259v1.034c0 .259 0 .518-.085.776v1.552a96 96 0 0 0-.257 1.897c.6-.173 1.027-.431 1.54-.604 0 0 .086 0 .086-.086.086-.345.172-.69.172-1.035 0-.517-.172-1.12-.172-1.638v-.344c.172-.604.257-1.38.343-2.156m2.312-.344c-.428.086-.856.172-1.285.172-.17 0-.257.086-.257.345 0 .948.086 1.896.086 2.845v1.724c.514-.173 1.028-.259 1.541-.431 0 0 .086-.173 0-.259-.171-.345-.171-.776-.085-1.12.085-.087 0-.26 0-.345 0-.259-.086-.518-.086-.862 0-.604.086-1.293.086-2.07m4.88-2.587c-.428.259-.856.604-1.285.863-.256.172-.256.258-.256.517 0 .862.085 1.638.085 2.5 0 .517-.085.948-.17 1.551.256-.172.427-.258.513-.43.085-.087.171-.173.257-.173.428-.086.684-.517.941-.776v-.172c0-.173-.085-.345-.085-.517zm-3.939 6.897c.172-.086.343-.086.428-.172.343-.173.6-.345.942-.518.086-.086.172-.086.172-.172 0-.172-.086-.431-.086-.604 0-.172-.086-.344-.086-.517 0-.69.086-1.38.172-2.069 0-.43.085-.862.085-1.293-.514.259-.942.431-1.37.604-.171.086-.257.172-.257.344zm-17.38 1.38c0-.173.086-.346.086-.432 0-.345-.086-.69-.086-1.034v-4.052c0-.086-.085-.259-.17-.259-.258-.086-.515-.086-.857-.172 0 .517-.086.862-.086 1.293-.085 1.207-.171 2.414-.171 3.707 0 .086.086.345.171.345.343.172.685.345 1.113.603m22.175-4.828q.129.129 0 0c.086 0 .171 0 .171-.086q.386-.647 1.028-1.035c.256-.172.513-.345.428-.776-.086-.345-.257-.603-.086-.948v-.086c0-.518.086-1.121.086-1.638 0-.259 0-.604.085-.862h-.085c-.086.086-.172.086-.257.172-.428.345-.77.69-1.199 1.035-.171.086-.171.258-.171.43v2.07c.086.517.086 1.12 0 1.724m-10.36.086c-.428.086-.856.258-1.284.258-.342 0-.342.173-.342.432 0 .862.085 1.724.085 2.586V53.2c0 .086.086.258.086.258.342 0 .6 0 .856-.086 0-.259.086-.517.086-.776v-.258c0-.518.085-1.035.085-1.639 0-.344.086-.69.171-1.034v-.603a2.4 2.4 0 0 0 .257-1.121m-16.952 2.155c.086-.258 0-.517 0-.776 0-.43-.085-.776 0-1.207.086-1.034.172-2.069.257-3.19v-.172c-.257-.345-.6-.603-1.113-.776 0 .431-.086.776-.086 1.207v1.638c0 .69-.085 1.38-.085 2.07 0 .172 0 .344.171.43.171.345.514.517.856.776m-1.54-1.034v-.173c-.086-.517-.172-1.034-.172-1.552v-3.275c0-.518-.342-.949-.856-1.207 0 .603-.086 1.207-.086 1.896 0 .949-.085 1.897-.085 2.845 0 .259.085.604.256.776.086.172.343.259.514.431.171.086.257.172.428.259M4.88 37.855c0 .086-.085.086-.085.172v2.931c0 .604-.086 1.12-.086 1.724 0 .776.428 1.293.942 1.81v-.689c0-.862.085-1.638 0-2.5-.086-.517 0-1.12.085-1.638.086-.431.172-.776-.257-1.034 0 0 0-.087-.085-.087-.171-.258-.343-.43-.514-.69m9.59 8.276c0 .258.085.43 0 .603 0 .603-.086 1.207-.172 1.81-.086.776-.171 1.552-.257 2.414 0 .173 0 .259.171.345.086 0 .172.086.257.086.343.173.514 0 .6-.345v-.172c.085-.862.085-1.724.17-2.5V48.2c0-.431-.17-.776 0-1.207.086-.087.086-.345 0-.345-.17-.259-.513-.345-.77-.517m30.05-7.587q-.127 0 0 0c-.342.345-.684.69-.941 1.035-.086.172-.257.43-.257.69v1.034c0 .69.085 1.38.085 2.069 0 .086 0 .172.086.259.6-.26.77-.776 1.113-1.294.171-.258 0-.517-.086-.69 0-.085-.085-.172-.085-.172 0-.69-.086-1.379-.086-2.069.086-.258.086-.517.172-.862M12.929 45.27c0 .172 0 .258-.086.43-.085.432-.085.863-.17 1.207-.172 1.035-.343 2.07-.258 3.104a.77.77 0 0 0 .77.776c.258-1.724-.085-3.449.515-5.173-.257-.086-.514-.258-.77-.344M1.113 27.165h-.086v1.724l.257 3.62c.086 1.466.257 2.846.428 4.311 0 .173.086.431.172.604h.085v-.087c-.085-.69-.085-1.465-.171-2.155v-3.448c0-.086 0-.172.086-.259 0-.086.085-.258 0-.344 0-.345-.172-.604-.172-.863-.17-.948-.342-1.896-.428-2.844-.085-.087-.085-.173-.171-.259m7.534 20.431v-1.552c0-.517-.085-.948 0-1.465 0-.517 0-1.12.086-1.638.085-.69-.171-1.12-.685-1.552v.431c0 .431.086.862 0 1.293-.086.862-.257 1.638-.257 2.5-.086.862.086 1.638.856 1.983m32.963-1.724h.085c.343-.517.77-.948 1.113-1.466.086-.086.086-.172.086-.258 0-.259-.086-.604-.171-.862 0-.087-.086-.173-.086-.345-.086-.517-.086-.948-.086-1.466v-.517c-.513.517-1.027.948-.77 1.638v.431c-.086.948-.086 1.897-.171 2.845m4.709-9.741h-.086c-.257.344-.428.69-.685 1.034-.171.259-.257.431-.171.776.085.776.17 1.465 0 2.241-.086.259 0 .604 0 .949.17-.345.342-.604.513-.862.257-.431.428-.949.771-1.38.171-.258.171-.43 0-.603-.428-.517-.257-1.121-.343-1.724-.085-.087 0-.259 0-.431M2.569 33.2h-.086v.43c0 .69.085 1.38.085 2.07 0 .517.086 1.12.086 1.637v1.121c0 .431-.086.862.257 1.207l.257.517c0 .087.085.087.171.259v-.517c-.257-1.293-.171-2.587-.171-3.88 0-.43.171-.948 0-1.379-.257-.431-.428-.948-.6-1.465m4.195 6.81c-.086 0-.086.086-.172.086v1.81c0 .431.086.776 0 1.207 0 .776-.085 1.552-.085 2.242 0 .345.171.517.514.69v-.346c.085-.775.085-1.637.17-2.413 0-.345.086-.776.086-1.121v-1.38c0-.085 0-.172-.085-.258-.086-.172-.257-.345-.428-.517m40.753-6.38h-.171c-.086.26-.257.604-.257.949 0 .69.086 1.293.171 1.983 0 .086.086.086.172.172.085-.259.085-.345.17-.517.258-.345.343-.69.172-1.12-.171-.518-.514-.95-.257-1.466m.6-.258c.17-.776.342-1.466.17-2.328a4 4 0 0 0-.427.862c.085.518.17 1.035.256 1.466m-44.093 3.88c-.257.344-.257.947-.171 1.12.085-.345.085-.69.171-1.12"/><path fill="#F2E421" d="M22.431 1.562c.685-.087 1.456-.087 2.14-.173.429 0 .857.086 1.37.086.686 0 1.285.087 1.97.087.856 0 1.712.344 2.568.517.514.086 1.113.258 1.627.43.428 0 .856.173 1.284.346.685.258 1.37.603 2.055.948.685.259 1.37.603 2.055.862.514.172 1.027.431 1.627.603.342.087.513.26.77.518.257.345.685.517 1.028.862.17.086.256.258.342.345s.086.172.171.258c.77.604 1.456 1.207 2.226 1.897.343.258.6.69.942 1.034.086.086.086.173.171.259.6.517.856 1.293 1.113 1.896.086.087.086.173.172.26.513.775.77 1.637 1.027 2.5.171.603.342 1.12.6 1.637.085.172.085.345.17.517.172.345.343.776.514 1.12.171.518.257.95.343 1.467.085.603.17 1.293.256 1.896 0 .086.086.259 0 .345-.17.517 0 .948 0 1.465.086.604.172 1.207-.17 1.724v.26c0 .172.085.344 0 .43-.172.259-.343.517-.343.862-.086.431-.171.776-.257 1.207s-.171.862-.428 1.207c-.257.517-.514 1.034-.514 1.638 0 .086-.085.259-.085.345-.343.862-.514 1.81-1.028 2.672-.342.604-.685 1.207-1.113 1.724 0 .087-.085.087-.171.087a1.04 1.04 0 0 0-.428.43c-.086.26-.343.518-.6.776-.684.863-1.37 1.638-2.054 2.5-.257.345-.6.604-.856.863-.685.603-1.285 1.206-2.055 1.724-1.028.776-2.055 1.465-3.254 1.896-.257.086-.428.259-.599.345l-2.055.776h-.085c-.514.345-1.028.345-1.627.517-.428.345-.6.431-.856.431-.257.086-.514.086-.856.173-.343.086-.6.172-.942.172-.257.086-.6.172-.856.259-.172 0-.257.086-.428.172-.514.086-.942.172-1.456.259h-.428c-.343 0-.685-.087-1.027-.087-.6 0-1.113-.086-1.713-.086-.342 0-.685-.086-1.027 0-.428.086-.856.173-1.284.086h-.257c-.514-.172-1.113-.344-1.627-.517-.685-.172-1.37-.43-2.055-.603-.856-.259-1.626-.517-2.397-1.121a11 11 0 0 0-1.712-.948c-1.113-.69-2.14-1.38-3.083-2.328-.856-.862-1.54-1.81-2.311-2.672l-1.798-2.07c-.086-.085-.171-.172-.171-.344-.685-1.638-1.37-3.19-2.055-4.828-.514-1.207-.77-2.413-.856-3.707a36 36 0 0 1-.257-4.31c0-.345.171-.69.257-1.12.085-.345.085-.776.17-1.121.087-.948.172-1.983.343-3.017.086-.863.343-1.638.771-2.414.856-1.38 1.627-2.759 2.483-4.138.257-.517.6-.948.942-1.466l.085-.086c.77-.431 1.199-1.207 1.884-1.724.6-.517 1.198-1.12 1.883-1.724.77-.69 1.627-1.293 2.483-1.897.428-.258.942-.43 1.37-.69.6-.344 1.113-.603 1.712-.948.086 0 .172-.086.257-.086 1.113-.345 2.14-.776 3.34-.948.427-.086.856-.345 1.284-.431s.941-.173 1.37-.259zm3.51 43.879c.343-.086.6-.086.943-.086 1.37 0 2.74-.345 4.023-.862l3.34-1.294a7.6 7.6 0 0 0 1.455-.69c.942-.603 1.884-1.292 2.825-1.896.685-.517 1.37-1.034 1.884-1.724.257-.258.428-.603.685-.948.428-.517.942-1.12 1.284-1.638s.6-1.12.942-1.724c.171-.345.428-.604.6-.948.342-.604.684-1.294.94-1.897.515-1.12 1.2-2.241 1.285-3.535 0-.086.086-.172.086-.172.171-.43.342-.776.171-1.293-.086-.259.086-.517.086-.776 0-.258.085-.43.085-.69v-.258c.171-.517.257-1.035 0-1.638-.085-.172-.085-.431-.171-.604-.171-.775-.257-1.551-.428-2.327-.171-.604-.343-1.293-.514-1.897-.257-1.12-.514-2.327-1.113-3.362-.342-.603-.513-1.207-.77-1.81-.514-1.12-1.199-2.155-1.97-3.104-.428-.517-.941-1.034-1.455-1.379-.856-.69-1.712-1.207-2.568-1.81-.343-.259-.6-.431-.942-.69a2.6 2.6 0 0 0-.6-.43l-1.797-.777c-.771-.345-1.456-.69-2.14-1.034a6.8 6.8 0 0 0-1.884-.517c-.685-.087-1.285-.173-1.97-.26-.513-.085-.942-.085-1.455-.171-.257 0-.514 0-.77-.173-.514-.259-1.114 0-1.713-.086-.428.086-.942.086-1.37.172-.171 0-.428-.086-.6-.172-1.027-.086-2.054.259-3.081.603-.428.173-.942.345-1.37.518l-1.284.517-.514.258c-.343.173-.77.26-1.113.518-.685.603-1.456 1.12-2.226 1.638-.343.172-.6.43-.942.603-.171.086-.171.345-.342.431-.429.345-.857.69-1.285 1.12-.6.518-1.198 1.121-1.883 1.639-.343.258-.685.603-.856 1.034 0 0 0 .086-.086.086-.514.69-1.027 1.38-1.456 2.07-.256.517-.428 1.12-.684 1.637.428.431.17 1.035-.086 1.638-.257.604-.343 1.207-.685 1.81-.257.604-.428 1.294-.428 1.897-.086.948-.257 1.897-.171 2.759 0 .258.085.43.085.69 0 .69 0 1.379.086 1.982.085 1.035.171 2.07.342 3.104.086.69.257 1.465.6 2.155.513 1.12 1.284 2.155 1.798 3.276.513.948 1.198 1.81 1.798 2.672.342.517.77.948 1.113 1.38.599.689 1.284 1.379 2.054 1.896.685.431 1.285.948 1.884 1.38.6.43 1.284.861 1.97 1.292.17.087.342.087.513.173.257.086.514.086.77.172.343.086.6.173.942.259.77.172 1.627.345 2.397.517.514.086 1.113.345 1.627.345 1.284.345 2.654.345 4.11.43"/><path fill="#B17924" d="m26.37 53.63-1.541.26c-.428 0-.514-.087-.428-.432.085-.517.17-1.12.256-1.638.086-.776.086-1.465.172-2.241 0-.345.085-.776.085-1.12 0-.087.086-.173.172-.173h1.113c.085 0 .17.172.17.258v2.242c.258.776.087 1.551.087 2.413-.086.087-.086.173-.086.432m-6.593-5.949c.6.259 1.199.431 1.798.604 0 .258-.085.69-.085 1.034-.172 1.035-.172 2.155-.172 3.19 0 .345-.085.69-.17.948-.429-.086-.943-.172-1.37-.258-.172 0-.258-.173-.172-.345.257-.69.171-1.466.257-2.242 0-.776 0-1.638.086-2.413-.086-.087-.086-.26-.172-.518m2.398 6.035c.17-1.466.256-2.845.428-4.224 0-.345 0-.604-.086-.949-.086-.43 0-.517.343-.517.342 0 .77.086 1.198.086-.085.949-.085 1.81-.171 2.759-.086.603-.086 1.207-.171 1.81v.259c0 .603-.172.776-.77.776-.172.086-.429 0-.771 0m-3.168-.69c-.428-.086-.77-.172-1.199-.258-.085 0-.17-.173-.17-.26-.087-1.55.085-3.103.17-4.654 0-.259.086-.431.172-.776.428.172.77.258 1.198.43.086 0 .086.173.086.26 0 .344-.086.775-.086 1.12 0 .776-.085 1.552-.085 2.414v1.035c0 .258-.086.43-.086.69m12.243-5.691c-.086.776-.171 1.466-.343 2.156v.344c.086.518.172 1.121.172 1.638 0 .345-.086.69-.172 1.035 0 0 0 .086-.085.086a19 19 0 0 0-1.541.604 96 96 0 0 1 .257-1.897v-1.552c0-.258 0-.517.085-.776v-1.034c0-.172 0-.259.257-.259.343-.086.6-.172.942-.258.085 0 .257 0 .428-.087m2.312-.344c0 .776-.086 1.465-.086 2.155 0 .258.086.517.086.862 0 .086.085.259 0 .345-.172.43-.086.776.085 1.12v.259c-.514.172-1.027.259-1.54.431v-1.724c0-.948 0-1.897-.087-2.845 0-.258.086-.258.257-.345zm4.88-2.587v3.449c0 .172.086.345.086.517v.172c-.343.259-.514.69-.942.776-.086 0-.172.086-.257.173-.171.086-.343.258-.514.43.086-.603.171-1.12.171-1.551 0-.862 0-1.638-.085-2.5q0-.388.257-.517c.428-.345.856-.604 1.284-.949m-3.939 6.897v-4.397c0-.172.086-.258.257-.344.428-.173.856-.431 1.37-.604 0 .431-.086.862-.086 1.293-.085.69-.085 1.38-.17 2.07 0 .172.085.344.085.517 0 .172.085.43.085.603 0 .086-.085.172-.17.172-.343.173-.6.345-.943.518-.085.086-.256.086-.428.172m-17.38 1.379a17 17 0 0 1-1.198-.517c-.086-.086-.172-.259-.172-.345.086-1.207.172-2.414.172-3.707 0-.43.085-.862.085-1.293.343.086.6.086.856.173.086 0 .172.172.172.258v2.328c0 .603-.086 1.12 0 1.724 0 .345.085.69.085 1.035.086 0 .086.086 0 .344m22.175-4.827c0-.604.085-1.207.085-1.81v-2.07c0-.172 0-.258.172-.43.428-.346.77-.69 1.198-1.035.086-.086.172-.086.257-.173h.086c0 .26 0 .604-.086.862 0 .518-.085 1.121-.085 1.638v.087c-.257.345 0 .603.085.948.086.431-.257.603-.428.776a2.96 2.96 0 0 0-1.027 1.034c-.086.173-.086.173-.257.173q.127.129 0 0m-10.36.085c-.085.432-.17.777-.17 1.122v.603c-.087.345-.172.69-.172 1.035-.086.517-.086 1.034-.086 1.637v.26c0 .258 0 .43-.085.775-.257 0-.514.086-.857.086 0 0-.085-.172-.085-.258v-1.983c0-.862 0-1.724-.086-2.586 0-.26 0-.431.343-.431.342 0 .77-.173 1.198-.26m-16.952 2.156c-.342-.259-.685-.431-1.027-.69a.66.66 0 0 1-.171-.43c0-.69.085-1.38.085-2.07V45.27c0-.345.086-.776.086-1.207.428.172.77.43 1.113.775 0 0 .086.087 0 .173a493 493 0 0 0-.257 3.19v1.206c.171.173.171.431.171.69m-1.541-1.035c-.171-.087-.257-.173-.428-.259-.171-.172-.428-.259-.514-.431a1.4 1.4 0 0 1-.256-.776c0-.948 0-1.896.085-2.845 0-.603.086-1.207.086-1.896.514.172.856.603.856 1.207 0 1.12-.086 2.155 0 3.275 0 .518.086 1.035.171 1.552zM4.88 37.855c.171.258.343.517.514.69 0 0 0 .086.086.086.428.258.256.603.256 1.034-.085.517-.17 1.12-.085 1.638a12.2 12.2 0 0 1 0 2.5v.69c-.514-.518-.942-1.121-.942-1.897 0-.603.086-1.12.086-1.724V37.94zm9.59 8.275c.342.173.598.26.94.432.086 0 .086.258 0 .344-.17.431 0 .776 0 1.207v.173c-.085.862-.085 1.724-.17 2.5v.172c-.086.345-.257.517-.6.345-.085 0-.17-.086-.257-.086-.17-.086-.256-.173-.17-.345.085-.776.17-1.552.256-2.414.086-.603.086-1.207.171-1.81-.17-.086-.17-.259-.17-.517m30.05-7.587c0 .259-.085.518-.085.776 0 .69.085 1.38.085 2.07 0 .085 0 .172.086.172.086.258.171.43.086.69-.257.517-.428 1.034-1.113 1.292 0-.086-.086-.172-.086-.258 0-.69-.086-1.38-.086-2.07 0-.344-.085-.689 0-1.034 0-.258.086-.43.257-.69.172-.258.428-.603.856-.948q-.128 0 0 0m-31.592 6.725c.257.172.514.258.77.43-.599 1.639-.256 3.449-.513 5.173a.77.77 0 0 1-.77-.776c-.086-1.034.085-2.069.256-3.103.086-.431.086-.862.172-1.207 0-.259.085-.345.085-.517M1.113 27.165c0 .086.086.172.086.259.17.948.256 1.896.428 2.845q.127.387.257.775v.345c0 .086 0 .173-.086.259v3.448c0 .69.086 1.466.171 2.155v.087h-.085c-.086-.087-.172-.26-.172-.518-.171-1.465-.257-2.845-.428-4.31l-.257-3.62v-1.725zm7.534 20.431c-.77-.431-.942-1.12-.856-1.896.086-.863.257-1.638.257-2.5v-1.724c.514.43.77.861.685 1.551-.086.517-.086 1.035-.086 1.638zm32.963-1.724c.085-.948.085-1.897.17-2.845v-.43c-.256-.777.258-1.122.771-1.639v.517c0 .518.086.949.086 1.466 0 .086.086.172.086.345.085.258.085.603.17.862 0 .086 0 .172-.085.258-.342.518-.77.949-1.113 1.466zm4.709-9.742v.432c.085.603-.086 1.207.342 1.724.171.172.171.345 0 .603-.257.431-.514.862-.77 1.38a8 8 0 0 0-.514.862c0-.345-.086-.69 0-.949.17-.776.085-1.551 0-2.241 0-.259 0-.517.17-.776.258-.345.429-.69.686-1.034zM2.568 33.2c.172.517.343 1.034.514 1.465.171.517 0 .948 0 1.38 0 1.292 0 2.586.171 3.879v.517c-.085-.086-.17-.172-.17-.259l-.258-.517c-.342-.259-.257-.69-.257-1.12v-1.121c0-.518 0-1.121-.085-1.638 0-.69-.086-1.38-.086-2.07v-.43c.086 0 .171 0 .171-.087m4.196 6.811c.17.172.342.345.428.517.085.086.085.172.085.259v1.379c0 .345 0 .776-.085 1.12-.086.777-.086 1.639-.171 2.415v.344c-.343-.172-.514-.344-.514-.69 0-.775.085-1.551.085-2.24v-3.018c.086 0 .086-.086.172-.086m40.753-6.38c-.257.518.086.949.257 1.466.171.431.086.776-.171 1.12-.086.087-.086.26-.171.518l-.172-.172c-.085-.69-.17-1.293-.17-1.983 0-.345.17-.604.256-.948zm.6-.258c-.086-.431-.172-.948-.172-1.38 0-.258.257-.603.428-.861.172.775 0 1.465-.256 2.24m-44.093 3.88c-.086.345-.086.69-.171 1.12-.086-.172-.086-.775.17-1.12"/><path fill="#FFBE00" d="M5.051 23.89c.086-1.725.257-3.104.685-4.397.171-.604.428-1.121.6-1.638.599-1.983 1.455-3.88 2.74-5.518.513-.69 1.112-1.379 1.883-1.81.942-.517 1.627-1.293 2.397-2.069.514-.517 1.027-.948 1.541-1.38a.65.65 0 0 1 .428-.172c.856-.43 1.798-.775 2.654-1.206.428-.173.857-.26 1.285-.345.684-.259 1.37-.518 2.14-.776.428-.086.77-.173 1.199-.259h2.996l2.569.259c.513.086.942.172 1.455.172 1.199 0 2.226.431 3.254.949.599.258 1.198.43 1.798.69.256.085.599.172.77.43.171.173.428.345.685.431.342.173.77.345 1.113.604.6.43 1.113.862 1.627 1.293.342.258.77.517 1.113.862.257.258.6.517.856.776.514.517.942 1.034 1.199 1.724.17.517.428.948.684 1.465 0 .087.086.173.172.259.428.517.599 1.207.856 1.81.086.173.086.259.086.431 0 .862.342 1.638.513 2.414.257.862.514 1.638.685 2.5.171.431.343.862.428 1.38.086.258.086.517.171.775 0 .087.086.087.086.087 0 .086.086.344.086.344-.172.259-.172.431-.172.69v1.38c0 .258-.085.43-.256.689 0 .086 0 .259-.086.345a6.4 6.4 0 0 1-.342 1.207c-.172.517-.343.948-.429 1.465-.256.862-.599 1.638-.941 2.5-.343.69-.685 1.293-1.028 1.897-.342.517-.77 1.034-1.113 1.551-.428.776-1.113 1.38-1.798 1.983-.17.173-.257.345-.428.517-.6.863-1.54 1.38-2.311 2.07-.343.344-.771.517-1.199.775-.856.604-1.884 1.035-2.911 1.38-.6.258-1.284.517-1.97.69-1.112.344-2.225.603-3.424.861-.685.087-1.37.087-2.055.087h-1.027c-.685-.087-1.456-.173-2.14-.259-.257 0-.6-.086-.857-.086-.77 0-1.54-.259-2.226-.517-.428-.173-.77-.173-1.198-.345a8.4 8.4 0 0 1-1.37-.431c-.514-.173-1.028-.259-1.541-.345-.171 0-.257-.086-.428-.173-.428-.344-.77-.69-1.199-1.034-.77-.603-1.455-1.38-2.14-2.155-.6-.69-1.199-1.38-1.713-2.155-.856-1.207-1.626-2.5-2.397-3.793s-1.027-2.673-1.284-4.052c-.171-.69-.343-1.293-.514-1.983-.085-1.035-.171-2.155-.257-2.845m33.99-.26h.086c-.172-1.034-.257-2.068-.428-3.103-.086-.603-.257-1.207-.6-1.724-.171-.345-.257-.69-.428-1.035-.257-.603-.514-1.12-.77-1.724a6.5 6.5 0 0 0-.942-1.207c-.514-.43-1.113-.775-1.627-1.034-.685-.345-1.37-.69-2.055-1.12a11.7 11.7 0 0 0-4.709-1.552h-.342c-.514 0-1.027.086-1.541.086l-2.569.258c-1.198.173-2.397.604-3.51 1.121-.77.345-1.541.776-2.226 1.12-.342.173-.6.346-.942.518-1.198.69-2.397 1.466-3.253 2.586-.257.345-.6.69-.77 1.035-.258.43-.429.862-.6 1.207-.257.69-.6 1.379-.6 2.155 0 .603-.085 1.12-.17 1.724-.172.862-.086 1.724-.086 2.672 0 .518.171 1.121.257 1.638.085.431.257.862.342 1.293.086.518.171 1.121.428 1.552.257.345.428.776.685 1.12.428.863.942 1.639 1.713 2.156.513.345.941.776 1.37 1.12.599.432 1.198.777 1.712 1.208.941.775 2.054 1.12 3.168 1.379.684.172 1.54.086 2.226.172 1.027.086 2.14-.172 3.253.173.856.258 1.798 0 2.568-.259.685-.259 1.37-.517 1.97-.862.77-.431 1.54-.862 2.311-1.38.942-.603 1.627-1.292 2.312-2.154l.257-.26a6.5 6.5 0 0 0 1.798-2.24q.127-.259.257-.518c.342-.69.77-1.38.941-2.155.428-1.034.6-2.5.514-3.965"/><path fill="#FFF498" d="M18.921 6.82c2.226-.345 4.281-.517 6.593-.086 2.311.517 4.623 1.12 6.849 1.897 2.825.948 5.565 2.24 7.62 4.31 1.798 1.896 2.91 4.396 3.425 6.983.513 2.586.513 5.258.428 7.845-.086 1.206-.172 2.413-.6 3.534-.513 1.38-1.37 2.672-1.54 4.138.941-.172 1.455-1.035 1.883-1.81.856-1.638 1.883-3.535 2.14-5.345.086-.431 0-.862.086-1.38.171-1.379.6-2.672.171-4.051-.428-1.638-.942-3.19-1.37-4.828-.514-1.638-.942-3.362-1.712-4.914-1.627-3.362-4.538-6.034-8.048-7.413-2.74-1.035-5.65-1.207-8.562-1.38-1.37-.086-2.74-.172-4.11-.086-1.883.172-3.767.69-5.65 1.293-.685.173-3.51 1.035-1.97 1.983.6.43 1.285-.086 1.884-.259.77-.086 1.627-.258 2.483-.43"/><path fill="#FFF498" d="M26.199 36.734a990 990 0 0 1-4.281-.259c-.428 0-.77-.258-1.199-.43-.514-.173-1.027-.432-1.626-.518a5.6 5.6 0 0 1-2.483-1.465c-.514-.431-.942-.776-1.456-1.293-.514-.518-1.027-.949-1.455-1.552-.514-.69-.942-1.38-1.113-2.242a13.5 13.5 0 0 0-.685-1.982c0-.087-.086-.259-.086-.345 0-.776-.085-1.552-.085-2.328 0-.517.085-.948.085-1.465.086-.69.171-1.466.257-2.155.086-.345.171-.69.342-1.035s.343-.69.514-1.12c.514-1.035 1.199-1.811 2.055-2.5.428-.346.77-.69 1.198-.949a9.7 9.7 0 0 1 1.627-.862c.77-.431 1.541-.862 2.312-1.12.77-.346 1.541-.604 2.397-.69.514-.087 1.113 0 1.713-.173 1.113-.258 2.311-.172 3.51-.172.77 0 1.54.258 2.311.43.257.087.514.173.771.346.6.345 1.199.603 1.712.948.6.345 1.199.603 1.798.948.257.173.514.431.77.69.258.258.6.517.771.862.343.517.514 1.12.857 1.638.17.345.428.69.599 1.034.257.345.342.69.428 1.121 0 .431.171.776.257 1.207a9 9 0 0 1 .257 3.017c-.086.776-.172 1.638-.257 2.414-.172.948-.428 1.81-1.028 2.586-.513.69-.941 1.38-1.455 1.983-.856.948-1.712 1.896-2.74 2.672-1.284.949-2.654 1.638-4.024 2.328-.685.259-1.37.345-2.055.345-.256.086-.342.086-.513.086"/><path fill="#102C24" d="M25.942 45.44c-1.37-.085-2.826-.085-4.195-.171-.514 0-1.113-.26-1.627-.345-.77-.173-1.627-.345-2.397-.518-.343-.086-.6-.172-.942-.258-.257-.086-.514-.086-.77-.173-.172 0-.343-.086-.514-.172-.685-.431-1.285-.862-1.97-1.293-.599-.431-1.198-.948-1.883-1.38-.77-.517-1.456-1.206-2.055-1.896a8.7 8.7 0 0 1-1.113-1.38c-.6-.861-1.284-1.723-1.798-2.672-.6-1.12-1.284-2.155-1.798-3.276-.342-.69-.428-1.379-.6-2.155-.17-1.034-.256-2.069-.342-3.103-.085-.69 0-1.38-.085-1.983 0-.259 0-.431-.086-.69-.085-.948.086-1.896.171-2.758 0-.69.172-1.293.429-1.897.256-.603.428-1.207.684-1.81l.771-1.81c.257-.518.342-1.121.685-1.638.428-.69.942-1.38 1.455-2.07l.086-.086c.171-.43.514-.69.856-1.034.685-.517 1.284-1.12 1.884-1.638.428-.345.856-.69 1.284-1.12.171-.087.171-.346.343-.432.256-.258.599-.43.941-.603.77-.431 1.541-1.035 2.226-1.638.343-.259.77-.345 1.113-.517l.514-.259 1.284-.517c.428-.173.942-.345 1.37-.517 1.027-.345 1.97-.604 3.082-.604.171 0 .428.173.6.173.428 0 .941-.087 1.37-.173.513.086 1.113-.172 1.712.086.257.087.514.087.77.173.514.086.942.086 1.456.172.685.086 1.284.173 1.969.259.514 0 1.113.086 1.712.345.685.344 1.456.69 2.14 1.034l1.799.776c.257.086.428.259.599.431.342.259.6.431.942.69l2.568 1.81c.514.431 1.028.948 1.456 1.38.856.948 1.455 1.982 1.969 3.103.257.603.428 1.207.77 1.81.6 1.035.857 2.155 1.114 3.362.17.604.342 1.293.513 1.897.171.776.257 1.551.428 2.327 0 .259.086.431.172.604.17.517.085 1.12 0 1.638v.258c0 .259-.086.431-.086.69s-.171.517-.086.776c.086.43-.085.862-.17 1.293 0 .086-.087.172-.087.172-.085 1.293-.77 2.328-1.284 3.535-.257.69-.6 1.293-.942 1.896-.17.345-.428.604-.599.949-.342.603-.6 1.206-.942 1.724-.428.603-.856 1.12-1.284 1.638-.257.345-.428.69-.685.948-.6.603-1.198 1.207-1.883 1.724-.942.604-1.884 1.293-2.826 1.897a7.6 7.6 0 0 1-1.455.69l-3.34 1.292c-1.283.518-2.653.863-4.023.863-.77.086-1.028.086-1.37.172M5.052 23.89c.085.689.256 1.81.428 2.93.085.69.342 1.293.513 1.983.257 1.38.6 2.759 1.284 4.052.771 1.293 1.456 2.586 2.398 3.793.513.776 1.113 1.465 1.712 2.155.6.776 1.284 1.552 2.14 2.155.429.345.857.69 1.2 1.035.085.086.256.086.427.172.514.086 1.028.259 1.541.345.428.086.942.259 1.37.43.428.087.856.173 1.199.346.77.258 1.455.517 2.226.517.257 0 .6 0 .856.086.685.086 1.456.173 2.14.259h1.028c.685 0 1.37.086 2.055-.086 1.113-.259 2.226-.518 3.424-.862.685-.173 1.285-.431 1.97-.69 1.027-.431 1.969-.776 2.91-1.38.343-.258.857-.43 1.199-.775.77-.69 1.712-1.207 2.312-2.07.085-.172.257-.344.428-.516.6-.69 1.284-1.207 1.798-1.983.342-.517.685-1.035 1.113-1.552a8 8 0 0 0 1.027-1.897 21 21 0 0 0 .942-2.5c.171-.517.342-.948.428-1.465.086-.431.171-.776.342-1.207a.66.66 0 0 1 .172-.431c.17-.172.257-.431.257-.69v-1.379c0-.259-.086-.517.17-.69.086-.086 0-.258-.085-.344 0-.087-.085-.087-.085-.087-.086-.258-.086-.517-.172-.776-.171-.43-.342-.862-.428-1.379-.257-.862-.513-1.638-.685-2.5-.257-.776-.599-1.552-.513-2.414 0-.172 0-.344-.086-.43-.257-.604-.428-1.294-.856-1.811-.086-.086-.086-.172-.171-.259-.257-.517-.428-.948-.685-1.465-.257-.69-.685-1.207-1.199-1.724a8 8 0 0 0-.856-.776c-.343-.259-.77-.517-1.113-.862A27 27 0 0 0 37.5 7.855c-.342-.259-.77-.345-1.113-.604a1.9 1.9 0 0 1-.685-.43c-.257-.26-.514-.346-.77-.432-.6-.172-1.285-.345-1.798-.69-1.028-.517-2.14-.862-3.254-.948-.514 0-.941-.172-1.455-.172l-2.569-.259h-2.055c-.342 0-.599-.086-.941 0-.685.086-1.028.173-1.456.259-.77.172-1.455.43-2.226.69-.428.086-.856.172-1.284.344-.942.345-1.798.776-2.654 1.207-.171.086-.257.086-.428.173-.514.43-1.028.948-1.541 1.379-.77.69-1.456 1.465-2.398 2.069-.77.43-1.37 1.12-1.883 1.81-1.284 1.724-2.14 3.535-2.74 5.518-.171.603-.428 1.12-.6 1.637-.342 1.38-.599 2.759-.599 4.483"/><path fill="#fff" d="M11.9 22.94c.6 2.07.429 4.397 1.37 6.38.429.862 1.114 1.552 1.799 2.328.941.948 1.797 2.069 2.996 2.758a7 7 0 0 0 1.627.776c4.11 1.466 8.647.862 12.842-.43-.085.603-.685 1.034-1.284 1.379-.77.43-1.541.948-2.397 1.12-.428 0-.942.087-1.456.087-2.14.086-4.28-.087-6.421-.432a9 9 0 0 1-1.456-.344c-1.284-.431-2.397-1.207-3.51-2.07a10 10 0 0 1-1.455-1.206c-.685-.604-1.113-1.38-1.627-2.155a8 8 0 0 1-1.027-1.897c-.172-.603-.257-1.293-.343-1.897-.085-1.12-.171-2.24-.171-3.362.086-.344 0-1.034.514-1.034"/><path fill="#102C24" d="M39.041 23.63a18.5 18.5 0 0 1-.514 4.31c-.17.777-.599 1.38-.941 2.156l-.257.517a6.5 6.5 0 0 1-1.798 2.242l-.257.258c-.685.862-1.37 1.552-2.312 2.156-.77.43-1.54.948-2.311 1.379-.6.345-1.285.69-1.97.862-.856.259-1.712.603-2.568.259-1.113-.345-2.14-.087-3.253-.173-.771-.086-1.541 0-2.226-.172-1.114-.259-2.227-.604-3.168-1.38-.514-.43-1.199-.775-1.713-1.206-.513-.345-.941-.776-1.37-1.121-.77-.604-1.284-1.38-1.712-2.155a8 8 0 0 0-.685-1.121c-.257-.517-.428-1.035-.428-1.552-.085-.43-.257-.862-.342-1.293-.086-.517-.257-1.12-.257-1.638 0-.862-.086-1.724.085-2.672.086-.604.172-1.121.172-1.724 0-.776.342-1.466.6-2.156.17-.43.341-.862.598-1.206l.77-1.035c.857-1.12 1.97-1.896 3.254-2.586.343-.173.6-.431.942-.517.77-.431 1.456-.776 2.226-1.121 1.113-.517 2.226-1.035 3.51-1.12l2.569-.26c.514-.086 1.027-.086 1.541-.086h.343c1.712.259 3.253.69 4.708 1.552.685.431 1.37.69 2.055 1.12.6.346 1.113.69 1.627 1.035.342.345.685.776.942 1.207.342.517.513 1.12.77 1.724.172.345.257.69.428 1.035.257.517.514 1.12.6 1.724.17 1.034.257 2.069.428 3.103 0-.344 0-.344-.086-.344M26.2 36.735c.17 0 .256 0 .428-.086.685-.086 1.455-.086 2.055-.345 1.37-.603 2.74-1.38 4.024-2.328 1.027-.776 1.883-1.81 2.74-2.672.513-.604.941-1.293 1.455-1.983a6.8 6.8 0 0 0 1.027-2.586c.086-.776.171-1.638.257-2.414.171-1.034 0-2.069-.257-3.017-.085-.431-.257-.776-.257-1.207-.085-.431-.171-.776-.428-1.12s-.428-.69-.6-1.035c-.256-.517-.513-1.12-.855-1.638-.172-.345-.514-.604-.77-.862-.258-.259-.515-.517-.771-.69-.6-.345-1.2-.603-1.798-.948-.6-.345-1.199-.69-1.713-.948-.256-.173-.513-.259-.77-.345-.77-.172-1.456-.345-2.312-.431-1.198-.086-2.311-.173-3.51.172-.514.173-1.113.087-1.712.173-.857.086-1.627.345-2.398.69-.77.344-1.54.775-2.311 1.12-.514.259-1.113.517-1.627.862-.428.259-.77.69-1.199.948-.856.69-1.54 1.466-2.055 2.5-.17.345-.428.69-.513 1.121-.171.345-.257.69-.343 1.035-.085.69-.17 1.465-.257 2.155-.085.517-.085.948-.085 1.465 0 .776.085 1.552.085 2.328 0 .086 0 .258.086.345.257.69.514 1.293.685 1.982.171.862.6 1.552 1.113 2.242.428.517.942 1.034 1.456 1.552.428.43.941.862 1.455 1.293.77.69 1.541 1.207 2.483 1.465.513.172 1.113.345 1.627.517.428.173.77.345 1.198.431z"/><path fill="#102C24" d="M35.017 27.682c0-1.207-.856-2.241-1.712-3.017-.428-.431-.942-.776-1.456-1.12-.599-.346-1.198-.346-1.798-.432-.085 0-.17-.086-.17-.086 1.026-.69 2.054-1.552 2.825-2.5.256-.345.513-.69.684-1.034.6-1.207.428-2.673.086-3.966 0-.172-.086-.258-.171-.345s-.257-.086-.343-.086a8.8 8.8 0 0 0-4.794 1.983c-1.37 1.12-2.312 2.758-2.74 4.483-.342-.518-.6-1.121-.685-1.725-.085-.517 0-.948-.085-1.465-.172-1.207-.343-2.328-.514-3.534-.086-.776-.942-1.552-1.627-1.294-.685.259-1.284.518-1.883.776-.343.173-.685.259-1.028.431-.171.087-.342.345-.257.604l.257.776 2.055 5.948c.257.862.257 1.38-.6 1.896-.855.518-1.626 1.121-2.311 1.897-1.37 1.465-2.055 3.276-1.884 5.259.172 2.069 2.14 3.103 4.024 3.275 2.826.259 5.566 0 8.134-1.034.77-.345 1.627-.431 2.397-.862.685-.431 1.285-1.035 1.798-1.638.428-.517.77-1.12 1.113-1.638.514-.431.685-1.035.685-1.552"/><path fill="#ED891E" d="M33.99 27.424c-.257-1.81-3.168-3.793-5.052-3.707-.77.086-1.54-.086-2.397-.173.942.862 2.14 2.414 1.712 4.483a17.8 17.8 0 0 1-1.883 4.914c1.113-.259 2.14-.604 3.253-.948 1.798-.345 2.911-1.638 3.939-2.931.342-.345.428-1.035.428-1.638"/><path fill="#FFA004" d="M26.541 23.544h-.257c-.428 0-.856-.086-1.284 0a19.6 19.6 0 0 0-2.91 1.035c-1.456.776-3.169 1.465-3.597 3.362-.171.69-.171 1.38-.257 2.069-.085 1.293.857 2.93 2.055 3.19 1.284.258 2.654.344 3.939.172.684-.086 1.284-.259 1.969-.431.685-1.207 1.54-2.931 1.883-4.914.6-2.069-.513-3.62-1.54-4.483"/><path fill="#DD1024" d="M29.795 27.165c.256-.172.428-.259.684-.172.172.086.343.172.343.43.086.173-.086.518-.257.604-.342.259-.942-.517-.77-.862m-1.97-.259v-.086c0-.172 0-.258.172-.43.085-.087.256-.173.342-.173h.086c.171.258.342.517-.086.776-.257.086-.428.086-.514-.087m4.367-1.034v.172c0 .087-.171.431-.257.431-.257 0-.514-.172-.685-.344-.086-.087.086-.345.086-.431.17-.087.342-.087.513-.087.172 0 .257.173.343.259m-2.055 4.31q-.129-.129 0-.258c0-.087 0-.259.086-.259.17-.172.428-.086.513 0 .171.086.171.345 0 .517-.085.087-.171.087-.257.087h-.17c-.086 0-.172-.087-.172-.087m-1.284-.948c-.086.086-.257.086-.343.086-.342-.086-.257-.43 0-.517.343-.259.856.259.343.431m-.086 1.638c.086.172-.171.603-.342.69s-.428-.087-.428-.259q0-.258.256-.517c.086-.087.428-.087.514.086m4.024-2.759q0 .13 0 0c0 .087 0 .173-.085.259 0 0-.086.086-.172.086s-.17.086-.256.086-.257-.086-.257-.172c-.086-.086.085-.431.17-.431.172 0 .343 0 .429.086.171.086.171 0 .171.086m-3.253-2.931c0-.086.085-.086 0 0h.17c.172 0 .343 0 .429.173.086.086-.086.43-.171.43-.086.087-.172.087-.343.087q-.256 0-.257-.259c0-.344 0-.344.172-.43"/><path fill="#008C50" d="M29.966 18.89c.257-.26.428-.432.941-.173-1.37 1.38-2.654 2.586-4.023 3.965.599.345 2.91-.43 3.852-1.293 1.37-1.207 2.312-4.224 1.713-5.43-2.654.516-5.737 4.05-5.822 6.292.085-.086.17-.086.257-.172 1.027-1.12 2.054-2.155 3.082-3.19"/><path fill="#B58B76" d="M24.144 22.079c-.086-.948-.343-1.983-.514-2.931-.342-1.466-.6-2.931-.942-4.483-2.054.517-2.14.776-1.54 2.586.599 1.724 1.112 3.362 1.712 5.086.085.26.599.431.856.604.17-.259.513-.604.428-.862"/><path fill="#fff" d="M42.123 31.475c-.77 1.552-1.626 3.018-2.397 4.57-.685 1.379-2.312 2.413-3.596 3.189-2.055 1.293-4.366 2.5-6.935 2.069-.942-.172-1.798-.517-2.654-.948-.171-.086-.428-.173-.514-.345a.65.65 0 0 1 0-.776c.343-.69 1.627-.69 2.226-.862 1.884-.259 3.853-.862 5.48-1.81 1.969-1.121 3.168-2.931 4.452-4.656 1.113-1.551 1.883-3.362 2.055-5.344 0-.173 0-.345.17-.518.6-.862 1.799.776 2.141 1.293.77 1.121.172 2.932-.428 4.138M16.78 8.458c1.713-.43 2.74 1.81 1.285 2.845-2.14 1.552-4.366 3.017-6.507 4.655-1.284.862-2.74-.69-1.798-1.896 2.055-2.5 4.538-4.914 7.02-5.604m6.895 1.2c1.84-.129 3.272-1.08 3.2-2.125-.073-1.045-1.623-1.788-3.463-1.659-1.84.13-3.272 1.082-3.2 2.126.073 1.045 1.623 1.788 3.462 1.658m-3.212 16.645-.513.517c-.172.431-.086.862.085 1.293.257.345.6.604.942.862l.514.259c.257.086.513 0 .77 0 .856-.172 1.627-.517 2.14-1.207.6-.69.942-2.414-.256-2.672-1.113-.345-2.654.086-3.682.948"/></svg>