<svg xmlns="http://www.w3.org/2000/svg" width="60" height="60"><path fill="#00edbe" d="M29.602 0c-16.5.2-29.8 13.8-29.6 30.4s13.8 29.8 30.4 29.6c16.4-.2 29.6-13.5 29.6-30-.1-16.7-13.7-30.1-30.4-30"/><path fill="#141beb" d="M44.501 18.801c-.1-1.5.3-3 1.1-4.3h-24.5c-.9 0-1.7.7-1.7 1.7v5.2c0 .9.8 1.7 1.7 1.7h24.5c-.9-1.3-1.2-2.8-1.1-4.3m-29 11.2c.1 1.5-.3 3-1.1 4.3h24.5c.9 0 1.7-.7 1.7-1.7v-5.2c0-.9-.8-1.7-1.7-1.7h-24.5c.8 1.3 1.2 2.8 1.1 4.3m29 11.2c-.1-1.5.3-3 1.1-4.3h-24.5c-.9 0-1.7.7-1.7 1.7v5.2c0 .9.8 1.7 1.7 1.7h24.5c-.9-1.3-1.2-2.8-1.1-4.3"/></svg>