<svg xmlns="http://www.w3.org/2000/svg" width="157" height="32" fill="none"><path fill="#00EDBE" d="M15.997.5c-3.117.038-6.153.98-8.726 2.706a15.56 15.56 0 0 0-5.733 6.996 15.23 15.23 0 0 0-.82 8.94 15.4 15.4 0 0 0 4.37 7.887 15.9 15.9 0 0 0 8.095 4.189 16.1 16.1 0 0 0 9.103-.915 15.74 15.74 0 0 0 7.06-5.71A15.3 15.3 0 0 0 31.997 16c-.026-4.137-1.727-8.094-4.727-11-3-2.908-7.055-4.526-11.272-4.5"/><path fill="#141BEB" d="M22.32 10.267a3.86 3.86 0 0 1 .555-2.212H9.977a.9.9 0 0 0-.623.25.86.86 0 0 0-.26.61v2.704a.85.85 0 0 0 .26.61.88.88 0 0 0 .623.25h12.898a3.86 3.86 0 0 1-.554-2.212M7.087 16.04a3.86 3.86 0 0 1-.556 2.213H19.43a.9.9 0 0 0 .623-.25.86.86 0 0 0 .26-.61v-2.705a.85.85 0 0 0-.26-.61.88.88 0 0 0-.623-.25H6.53a3.86 3.86 0 0 1 .554 2.213m15.236 5.781a3.86 3.86 0 0 1 .555-2.213H9.977a.9.9 0 0 0-.623.251.86.86 0 0 0-.26.61v2.704a.85.85 0 0 0 .26.61.88.88 0 0 0 .623.25h12.898a3.86 3.86 0 0 1-.554-2.212"/><path fill="#fff" d="M49.732 9.666c3.78 0 6.246 2.538 6.246 6.732 0 3.186-1.89 6.444-6.192 6.444-3.834 0-6.228-2.718-6.228-6.732 0-3.258 2.052-6.444 6.174-6.444m2.808 6.498c0-2.412-1.152-3.564-2.754-3.564-1.854 0-2.898 1.458-2.898 3.69 0 2.016 1.098 3.6 2.826 3.6 1.926 0 2.826-1.476 2.826-3.726m10.476-2.628c2.124 0 3.942 1.584 3.942 4.572 0 2.88-1.944 4.482-4.158 4.5-1.188 0-2.178-.558-2.322-.792 0 .594.072 4.41-.09 4.518-.162.126-2.628.234-2.97.054-.054-.018.054-12.51.216-12.906.018-.054 2.7.09 2.7.09 0 .108-.018.864-.018.972.126-.216 1.08-1.008 2.7-1.008m.9 4.608c0-1.224-.738-1.872-1.71-1.872-1.224 0-1.8.774-1.8 1.854 0 1.188.828 1.908 1.728 1.908 1.134 0 1.782-.774 1.782-1.89m6.829.684c0 .954.684 1.548 1.926 1.548.972 0 1.638-.342 2.106-.63.18.18.918 1.674.936 1.944-.486.45-1.728 1.026-3.186 1.026-3.258 0-4.572-2.178-4.572-4.482 0-2.43 1.512-4.698 4.338-4.698 2.394 0 3.852 1.8 3.852 3.816 0 .558-.054 1.026-.162 1.386-.9.126-4.158.126-5.238.09m-.018-1.656 2.826-.054c.036-.882-.414-1.566-1.278-1.566-.936 0-1.548.702-1.548 1.62m6.748-3.33c.162-.234 2.682-.342 2.844-.18-.018.378-.036.972-.054 1.08.396-.594 1.278-1.26 2.736-1.26 1.962 0 3.186 1.566 3.186 3.888 0 1.206-.072 4.248-.144 5.13-.018.18-2.718.144-2.772.108-.072-.036.018-4.284.018-4.932 0-.972-.432-1.656-1.368-1.656-.99 0-1.584.774-1.584 1.476 0 .612-.018 4.932-.072 5.004s-2.682.036-2.736-.072c-.036-.072-.108-4.77-.054-8.586m17.016 2.394c0 2.574 1.584 3.6 3.114 3.6 1.458 0 2.448-.774 2.844-1.062.414.288 1.206 1.746 1.494 2.358-.774.882-2.592 1.746-4.662 1.746-4.212 0-6.174-3.006-6.174-6.768 0-3.618 2.556-6.408 6.642-6.408 2.07 0 3.564.648 4.122 1.188 0 .36-.756 2.304-1.206 2.682-.648-.378-1.746-.864-2.88-.864-1.854 0-3.294 1.476-3.294 3.528m8.324-.792c.018-.306 1.206-1.998 3.618-1.998 2.232 0 3.96 1.314 3.96 3.942 0 1.926-.09 4.914-.144 5.022s-2.322 0-2.322 0l-.162-.774c-.126.126-.882.99-2.304.99-1.962 0-2.79-1.152-2.79-2.718 0-1.62 1.422-2.646 3.222-2.646.828 0 1.332.234 1.674.486.018-.774.054-1.836-1.566-1.836-1.116 0-1.638.792-1.8.81-.162 0-1.404-1.08-1.386-1.278m2.268 4.41c0 .594.504 1.008 1.17 1.008.792 0 1.188-.468 1.188-1.008 0-.63-.522-1.026-1.188-1.026-.702 0-1.17.45-1.17 1.026m7.074-6.12c.162-.27 2.682-.108 2.844.054-.018.378-.036.864-.054.972.396-.594 1.08-1.224 2.538-1.224 1.008 0 1.818.504 2.304 1.296.612-1.08 1.98-1.296 2.718-1.296 2.268 0 3.276 1.494 3.276 3.798 0 1.224-.072 4.338-.126 5.184-.018.162-2.754.162-2.808.108-.054-.036.036-4.158.036-5.004 0-.882-.234-1.548-1.188-1.548-.99 0-1.278.972-1.278 1.53 0 1.296-.054 3.96-.108 4.86-.018.162-2.736.054-2.772.018-.072-.036.018-4.248.018-4.86 0-.882-.252-1.548-1.188-1.548s-1.332.792-1.332 1.368c0 .522-.036 5.076-.09 5.148s-2.682.036-2.736-.072c-.036-.072-.108-4.968-.054-8.784m20.978-.198c2.124 0 3.942 1.584 3.942 4.572 0 2.88-1.944 4.482-4.158 4.5-1.188 0-2.178-.558-2.322-.792 0 .594.072 4.41-.09 4.518-.162.126-2.628.234-2.97.054-.054-.018.054-12.51.216-12.906.018-.054 2.7.09 2.7.09 0 .108-.018.864-.018.972.126-.216 1.08-1.008 2.7-1.008m.9 4.608c0-1.224-.738-1.872-1.71-1.872-1.224 0-1.8.774-1.8 1.854 0 1.188.828 1.908 1.728 1.908 1.134 0 1.782-.774 1.782-1.89m12.895 4.32c-.162.234-2.502.162-2.682 0 .018-.378 0-.9.018-1.026-.396.576-1.314 1.332-2.664 1.332-2.178 0-3.222-1.332-3.222-3.852 0-1.296.18-4.374.234-5.22.036-.18 2.736-.144 2.79-.09.036.198-.144 4.302-.144 5.004 0 1.008.432 1.62 1.368 1.62.99 0 1.512-.756 1.53-1.548 0-.522.072-4.95.144-5.022.054-.072 2.664-.036 2.736.072.018.072-.036 4.896-.108 8.73m5.223.342c-1.8 0-3.438-.72-3.69-.99-.144-.18.684-2.142.828-2.07.288.144 1.404.954 2.556.954.72 0 1.08-.252 1.08-.648s-.288-.612-1.458-.828c-2.016-.342-2.952-1.188-2.952-2.7 0-1.926 1.314-3.042 3.528-3.042 1.656 0 3.114.558 3.348.792.162.162-.666 2.052-.792 2.07-.09 0-1.242-.702-2.286-.702-.702 0-1.008.342-1.008.702 0 .396.306.576 1.35.72 2.142.306 3.096 1.044 3.096 2.718 0 1.584-1.08 3.024-3.6 3.024"/></svg>