<svg xmlns="http://www.w3.org/2000/svg" width="55" height="54" fill="none"><path fill="#157433" d="M3.516 46.746c-.3.2-.6.3-.8.6-.6.7-.5 1.8-.1 2.7.7 1.6 2.1 2.6 3.7 3.1 1.5.5 3.1.6 4.7.6 9.6.3 19.2.2 28.7-.3 2.3-.1 4.6-.2 6.8-.6 2.4-.4 4.8-1 6.8-2.4.3-.2.5-.4.7-.7.1-.3.2-.5.2-.8.1-1.1 0-2.3-.5-3.3-.7-1.4-2-2.3-3.4-2.9-1.4-.5-2.8-.8-4.2-1-2.7-.4-5.4-.8-8.1-.8-1.7 0-3.3.1-5 .3l-10.5.9c-6.5.6-12.9 1.4-19 4.6"/><path fill="#FFA706" d="M19.416 22.446c-.5.2-.9.3-1.8.6.7.4 1.1.8 1.6.9 3.3 1.1 7.7-.7 9-4-.9.6-1.8 1.2-2.7 1.9-.8-2.3-.6-2.9 1.6-3.2 2.4-.3 4.9.1 7.3-.3 2.8-.5 5.2.5 7.7 1.4 2.7 1 4.4 2.8 5 5.8 1.2 5-.1 9.1-4 12.3-3 2.4-6.5 3.8-10 5.3-7.2 3.1-14.6 2.3-21.8.8-3-.6-5.9-1.9-8.1-4.5-3.2-4.1-2.3-8.1-.5-12.3 2-4.5 6.3-5.9 10.4-7.5.7-.3 1.5-.3 2.2-.5 3.5-.5 3.8-.3 4.1 3.3m20.4 8c-.1.3-.3.7-.4 1 .8.4 1.6.7 2.3 1.1.1-.5.3-1.4.2-1.5-.6-.3-1.3-.4-2.1-.6m-2.4 6 .6-.9c-.5-.4-1-.8-1.6-1.1-.1 0-.5.7-.8 1 .5.3 1.2.7 1.8 1m-2.1 4.6c.2-.8.5-1.3.5-1.7-.1-.3-.6-.5-.9-.7-.3.4-.8.8-.7 1.1-.1.4.5.7 1.1 1.3m0-9.5c.3-.6.7-1.1.6-1.3-.2-.4-.7-.8-1.1-.9-.2 0-.9.7-.8.9.2.4.7.7 1.3 1.3m4.1-2.6c.2-.1.4-.3.6-.4-.3-.6-.6-1.3-.8-1.9-.4.3-.8.5-1.2.8.4.4.9 1 1.4 1.5m5.1-.4c.3-.7.7-1.2.6-1.3-.3-.4-.8-.7-1.3-.8-.1 0-.7.7-.6.9.2.4.6.7 1.3 1.2m-11.9-2.5c-.8-.4-1.3-.7-1.8-.7-.2 0-.5.6-.7.9.4.3.8.7 1.3.8.2.1.6-.4 1.2-1"/><path fill="#008C50" d="M25.716 14.846c3.2-3.2 6.4-6.5 9.6-9.7q2.1-2.1 5.1-2.7c2.6-.5 5.1-1 7.6-1.5 1.5-.3 2.4.5 2.1 1.9-.4 1.7-.8 3.6-1.8 4.9-5 6.5-11.8 9.3-20.1 8.3 5.4-3.1 10.7-6.3 16.1-9.4 0-.1.1-.3.1-.4-.8 0-1.8-.3-2.5 0-2.5 1.4-4.8 3.2-7.2 4.6-2.8 1.6-5.7 2.9-8.5 4.4-.2-.1-.4-.2-.5-.4"/><path fill="#BB9276" d="M23.516 22.846q-.9.15-1.5.3c-1.5-4.1-3-8.1-4.5-12.2 1.8-.6 3.5-1.1 5.6-1.7 0 2.8-.1 5.2 0 7.6 0 1.9.2 3.8.4 6m-.1-15c-2 .5-3.6 1-5.3 1.3-.9.2-1.3-.4-.8-1.3.6-1.1 4.4-1.4 6.1 0"/><path fill="#E6622B" d="M39.816 30.446c.7.2 1.5.3 2.1.6.2.1-.1 1-.2 1.5-.8-.4-1.6-.7-2.3-1.1.2-.3.3-.6.4-1m-2.4 6c-.6-.3-1.2-.6-1.8-1 .3-.4.7-1.1.8-1 .6.3 1.1.7 1.6 1.1-.3.3-.4.6-.6.9m-2.1 4.6c-.6-.6-1.2-.9-1.2-1.3s.5-.8.7-1.1c.3.2.9.4.9.7.1.4-.1.9-.4 1.7m0-9.5c-.6-.6-1.1-.8-1.3-1.3-.1-.2.6-1 .8-.9.4.1.9.5 1.1.9.2.2-.2.6-.6 1.3m4.1-2.6c-.5-.5-.9-1-1.4-1.5.4-.3.8-.5 1.2-.8.3.6.6 1.3.8 1.9-.2.1-.4.2-.6.4m5.1-.4c-.6-.5-1.1-.8-1.3-1.2-.1-.2.5-.9.6-.9.5.1.9.4 1.3.8.1.1-.3.7-.6 1.3m-11.9-2.5c-.6.5-1 1-1.2 1-.5-.1-.8-.5-1.3-.8.2-.3.5-.9.7-.9.5 0 .9.4 1.8.7"/><path fill="#91FF1E" d="m49.816 28.346-.3-1.8c-.3-2-1-3.8-2.4-5.3-1-1.1-2.2-1.9-3.5-2.6q-1.05-.6-2.1-.9c-.3-.1-2-.9-2.3-.7 1.4-.9 2.7-1.4 4-2 4.8-2.1 8.7-7.7 8.1-13.2 0-.4-.5-1.2-.8-1.2-1.9-.3-3.9-.8-5.7-.6-5.9.6-10.6 3.8-14.8 7.8-1.8 1.7-3.4 3.7-5.2 5.7-.1-.8-.1-1.4-.2-2-.2-1.4-.3-2.7-.6-4.1-.1-.4-.5-1.1-.8-1.2-2.3-.6-4.6-.5-6.5 1.1-1.7 1.4-.7 3-.3 4.6.5 1.9 1.1 3.7 1.7 5.9-4.2-.3-7.5 1.2-10.8 3-2.6 1.4-4.6 3.6-6.1 6.1-.3.5-.8 1.1-1 1.7-.3.8-.2 1.9-.2 2.7 0 1.4 0 2.8.2 4.2.2 1.3.9 2.3 1.2 3.5 1.1 3.7 3.9 5.7 7.2 7.2 5.1 2.4 10.6 2.5 16 2.5 2.1 0 4.3 0 6.1-.8 5.1-2 10-4.2 14.3-7.8 2.6-2.1 4.6-4.9 5-8.3.1-1-.1-2.3-.2-3.5m-14.5-23.2q2.1-2.1 5.1-2.7c2.6-.5 5.1-1 7.6-1.5 1.5-.3 2.4.5 2.1 1.9-.4 1.7-.8 3.6-1.8 4.9-5 6.5-11.8 9.3-20.1 8.3 5.4-3.1 10.7-6.3 16.1-9.4 0-.1.1-.3.1-.4-.8 0-1.8-.3-2.5 0-2.5 1.4-4.8 3.2-7.2 4.6-2.8 1.6-5.7 2.9-8.5 4.4-.1-.2-.3-.3-.4-.5 3.1-3.1 6.3-6.4 9.5-9.6m-18 2.7c.6-1.1 4.5-1.4 6.1-.1-2 .5-3.6 1-5.3 1.3-.9.3-1.3-.3-.8-1.2m5.8 1.3c0 2.8-.1 5.2 0 7.6.1 1.9.3 3.9.5 6q-.9.15-1.5.3c-1.5-4.1-3-8.1-4.5-12.2 1.7-.5 3.4-1 5.5-1.7m20.1 28.7c-3 2.4-6.5 3.8-10 5.3-7.2 3.1-14.6 2.3-21.8.8-3-.6-5.9-1.9-8.1-4.5-3.2-4.1-2.3-8.1-.5-12.3 2-4.5 6.3-5.9 10.4-7.5.7-.3 1.5-.3 2.2-.5 3.4-.6 3.7-.4 4 3.3-.5.2-.9.3-1.8.6.7.4 1.1.8 1.6.9 3.3 1.1 7.7-.7 9-4-.9.6-1.8 1.2-2.7 1.9-.8-2.3-.6-2.9 1.6-3.2 2.4-.3 4.9.1 7.3-.3 2.8-.5 5.2.5 7.7 1.4 2.7 1 4.4 2.8 5 5.8 1.2 5 0 9.1-3.9 12.3"/></svg>