<svg xmlns="http://www.w3.org/2000/svg" xmlns:xlink="http://www.w3.org/1999/xlink" viewBox="3 1.17 34 37.25"><linearGradient id="a" x1="1067.217" x2="1104" y1="-3085" y2="-3085" gradientTransform="rotate(90 -999 -2065)" gradientUnits="userSpaceOnUse"><stop offset="0" style="stop-color:#ec448e"/><stop offset="1" style="stop-color:#c92a40"/></linearGradient><path fill="url(#a)" d="M37 26.1V13.5c0-2.1-1.1-4.1-3-5.2L23 2C21.1.9 18.9.9 17 2L6 8.3c-1.9 1.1-3 3.1-3 5.2v12.6c0 2.1 1.1 4.1 3 5.2l11 6.3c1.9 1.1 4.1 1.1 6 0l11-6.3c1.8-1.1 3-3 3-5.2"/><g transform="translate(54 53.7)"><defs><path id="b" d="M-44-43.8h20v20h-20z"/></defs><clipPath id="c"><use xlink:href="#b"/></clipPath><g clip-path="url(#c)"><path d="m-26.8-39.4.2.3-.2.3c-6.7 9.1-10.6 13.2-12.2 12.7-1-.3-2-1.3-3-2.8-.4-.5-.7-1.1-1-1.6-.2-.4-.4-.7-.5-.9s-.2-.4-.2-.6v-.2a9.14 9.14 0 0 1 6.5-11.2 9 9 0 0 1 6.8.9c1.1.7 2.3 1.7 3.6 3.1m-4-2.5c-4-2.2-9.1-.8-11.3 3.3-1 1.9-1.3 4.1-.8 6.2v.2c0 .1.1.3.1.4.1.2.2.5.4.8l.9 1.5c.9 1.3 1.8 2.2 2.6 2.5 1 .3 4.9-3.8 11.1-12.1-.8-1-1.9-2-3-2.8"/><path fill="#EC1C79" d="M-30.8-41.9c-4-2.2-9.1-.8-11.3 3.3-1 1.9-1.3 4.1-.8 6.2v.2c0 .1.1.3.1.4.1.2.2.5.4.8l.9 1.5c.9 1.3 1.8 2.2 2.6 2.5 1 .3 4.9-3.8 11.1-12.1-.8-1-1.9-2-3-2.8"/><path d="M-33.2-23.8c-5.1 0-9.2-4.1-9.2-9.2s4.1-9.2 9.2-9.2S-24-38-24-32.9c0 5-4.1 9.1-9.2 9.1m0-.8c4.6 0 8.3-3.7 8.3-8.3s-3.7-8.3-8.3-8.3-8.3 3.7-8.3 8.3c0 4.5 3.7 8.3 8.3 8.3"/><path fill="#FFF" d="M-33.2-24.6c4.6 0 8.3-3.7 8.3-8.3s-3.7-8.3-8.3-8.3-8.3 3.7-8.3 8.3c0 4.5 3.7 8.3 8.3 8.3"/><path d="m-39.4-31.2-1.1-3.3h1l.6 1.9.6-1.9h.8l.6 1.9.6-1.9h.9l-1.1 3.3h-.8l-.7-1.9-.7 1.9zm4.4-.1v-3.3h2.6v.8h-1.7v.5h1.6v.7h-1.6v.5h1.8v.8zm3.9 0v-2.5h-1v-.8h2.9v.8h-1v2.5zm2.3 0v-3.3h.9v1.2h1.2v-1.2h.9v3.3h-.9v-1.3h-1.2v1.3zm-14.7-4.3c-.2-.1-.3-.4-.2-.6s.4-.3.6-.2l1.3.7c.2.1.3.4.2.6s-.4.3-.6.2zm-.1 2.3c-.2-.1-.3-.4-.2-.6s.4-.3.6-.2l1.3.6c.2.1.3.4.2.6s-.4.3-.6.2z"/></g></g></svg>