<svg xmlns="http://www.w3.org/2000/svg" width="1389" height="1083" fill="none"><rect width="100%" height="100%" fill="#157433"/><path fill="#008C50" d="M242.915 78.613c13.514-5.89 32.113-17.01 46.759-18.476l36.952-20.528c21.216-14.145 50.566-20.307 73.903-30.679 51.77-23.009 109.691-31.936 164.114-46.19 29.46-7.715 60.546-9.597 90.44-15.51 17.602-3.481 36.95-6.76 54.971-6.158 72.629 2.42 144.666 8.854 216.463 20.072 19.401 3.031 37.881 10.816 56.91 15.853l.145.038c31.638 8.374 64.168 16.986 94.288 29.728 24.54 10.384 51.52 19.498 74.02 33.872 33.17 21.194 65.11 43.68 95.91 68.315 29.19 23.352 55.13 48.837 79.49 77.096 12.69 14.721 28.95 25.79 41.97 40.259 13.71 15.232 18.7 33.724 18.7 53.602 0 20.132-4.1 39.47-4.1 59.419 0 24.239 4.1 47.918 4.1 72.307 0 94.33 4.82 198.837-43.56 284.435-12.16 21.518-27.58 40.328-37.64 63.182-7.43 16.893-15.33 33.86-23.61 50.409-8.44 16.879-13.68 37.55-24.52 53.032-15.1 21.579-32.92 40.487-48.24 61.7-18.32 25.366-39.69 52.743-62.84 73.789-14.42 13.11-36.82 20.53-54.06 29.31-15.6 7.95-29.71 17.06-46.76 22.13-28.73 8.53-58.117 14.81-86.217 24.17-19.789 6.6-39.138 5.06-59.989 6.73-36.082 2.89-72.575 1.94-108.915 1.94-49.36 0-97.067-8.06-146.096-14.37-100.259-12.9-200.963-29.88-292.19-75.498-22.824-11.412-45.515-27.985-65.007-44.479-46.783-39.585-92.347-80.102-138.226-120.662-27.38-24.206-51.61-53.233-72.877-82.799-24.88-34.591-33.579-73.35-48.128-112.451C16.372 598.06 9.29 563.256 4.327 527.277c-7.429-53.859-7.069-107.35 15.396-157.272 8.496-18.878 18.33-36.805 27.714-55.313 4.806-9.479 8.506-19.861 14.37-28.74 4.466-6.763 10.59-12.029 14.826-18.932 17.668-28.792 35.792-55.617 50.865-85.764 5.968-11.936 12.319-23.214 18.932-34.898 9.735-17.198 29.201-29.884 44.707-41.514 15.524-11.643 34.103-18.526 51.778-26.23"/><path fill="#157433" d="M474.834 146.91c22.481-12.507 51.466-9.862 76.348-10.27l23.94-13.377c39.055-26.073 56.093-61.463 109.84-51.895 13.729 2.445 28.069 2.566 41.478 6.733 15.916 4.946 31.913 11.962 48.316 14.949 20.281 3.692 40.979 2.51 61.534 2.51 48.052 0 101.215-5.988 147.682 7.76 65.688 19.435 137.848 58.034 166.598 124.152 11.86 27.279 17.55 58.611 18 88.322.69 44.947 5.8 87.723-11.85 130.543-10.06 24.422-33.27 42.958-33.27 70.749 0 26.9 10.25 52.484 10.25 79.649 0 40.074-4.05 75.886-12.3 115.024-8.34 39.541-22.3 79.42-49.34 109.889-44.36 49.97-118.146 72.917-183.238 72.917-30.426 0-67.139-4.741-95.492-16.432-23.106-9.527-38.571-13.428-61.534-3.081-10.407 4.69-19.588 12.004-29.286 17.916-14.939 9.106-30.048 16.949-45.532 24.986l-1.986 1.031c-14.841 7.706-35.126 8.448-51.392 10.042-17.866 1.75-36.942-.708-54.583-3.652-41.334-6.898-82.576-31.455-111.787-60.707-12.284-12.301-20.829-26.974-30.083-41.536-5.367-8.446-13.577-14.455-19.942-22.024-8.788-10.45-20.018-18.847-26.779-30.696-3.731-6.538-15.335-10.724-20.967-15.975-8.136-7.586-18.321-12.185-26.437-20.312-28.34-28.38-54.556-58.107-66.434-97.451-12.453-41.25-5.526-82.019 8.205-122.213 12.369-36.207 27.271-71.977 31.792-110.459 4.627-39.383 10.324-81.187 29.856-116.393 24.011-43.281 50.562-80.443 94.466-104.868 21.35-11.878 42.58-23.955 63.927-35.831"/></svg>
