<svg xmlns="http://www.w3.org/2000/svg" width="256.504" height="274.204" fill="none" style="max-height:500px"><path fill="#008C50" d="M99.39 381.668c-2.061.567-4.122 1.254-6.264 1.335-3.859.142-7.414-1.699-10.97-3.034-9.132-3.418-19.698-3.6-28.992-.546-2.323.769-4.565 1.74-6.95 2.326-6.99 1.74-15.596.728-22.688-.263-6.707-.93-14.99 2.023-21.233 4.147-.546.182-1.132.404-1.475.809-.343.404-.424.95-.505 1.456-.404 2.993-.727 6.27 1.111 8.778 2.222 3.054 6.728 3.803 10.748 4.308 5.799.708 11.597 1.436 17.395 2.144 1.354.162 2.728.344 4.02.748 1.758.567 3.294 1.558 4.83 2.488 4.605 2.832 9.414 5.401 14.566 7.363 12.324 4.672 26.345 5.541 39.275 2.467 1.919-.465 3.353-1.476 5.151-1.982 2.506-.688 5.374-.85 7.96-1.234 8.526-1.294 17.436-.222 26.042.142 7.718.323 15.658.101 22.79-2.569 1.636-.607 3.03-1.456 4.707-1.82 2.242-.486 4.727-.526 7.01-.749 4.809-.465 9.658-.788 14.506-.708 2.788.041 4.182-.586 6.728-1.557.404-.162.808-.303 1.192-.485 8.283-3.924 4.323-16.201-1.98-19.984-4.182-2.508-9.415-3.216-14.405-2.932-2.485.141-4.99.505-7.455.121-4.04-.627-7.313-3.135-10.91-4.915-6.949-3.438-14.465-3.843-21.476-.283-2.788 1.416-5.212 3.034-8.485 3.357s-6.465-.526-9.617-.687c-4.909-.263-9.879.465-14.586 1.759z"/><path fill="#FA0" d="M149.939 365.662c1.45.007 3.243.011 5.017.096 3.185.255 6.37.509 9.536.844 4.155.487 7.917 2.249 11.163 4.741 2.515 1.975 3.127 5.116 2.751 8.104-.491 3.816-2.46 6.677-6.008 8.645-5.814 3.218-12.033 3.858-18.349 2.764-4.034-.63-8.134-1.703-11.482-4.476-.284-.24-.568-.479-.833-.8-2.263-3.025-4.044-6.277-4.944-10-1.273-5.011 2.567-8.191 6.648-9.175 2.013-.199 4.026-.399 6.501-.743"/><path fill="#008D45" d="M169.284 361.596c1.183-.656 2.427-1.211 3.61-1.867 5.833-3.299 11.728-6.497 17.5-9.896 3.287-1.946 6.328-4.292 9.431-6.538 2.162-1.532 2.863-1.961 6.082-2.555-.578-1.507-1.592-2.265-2.836-1.709-3.031 1.237-6.204 2.354-8.929 4.093-8.312 5.438-16.954 10.113-25.983 14.267-.963.452-1.945.985-2.928 1.518-.142-.119-.284-.239-.445-.278 1.271-2.089 2.338-4.397 3.913-6.327 1.913-2.276 4.273-4.274 6.594-6.109 1.48-1.183 2.712-3.11 4.948-3.17.181-.042.236-.628.456-.831.42-.327.921-.634 1.483-.84.663-.268 1.467-.417 2.088-.866.821-.572 1.396-1.545 2.278-2.017 1.823-1.186 3.707-2.271 5.714-3.156 1.063-.514 2.21-.665 3.296-.917 2.171-.503 4.404-.906 6.536-1.248.886-.128 1.771-.257 2.598-.144 2.077.244 4.216.588 6.273.913.908.133 1.438.774 1.023 1.786-.708 1.882-1.417 3.764-2.206 5.626-1.304 2.936-2.688 5.853-4.234 8.731-.634 1.215-1.51 2.373-2.49 3.249-4.299 3.668-8.904 6.835-14.207 8.636-5.765 1.947-11.764 2.384-17.643.54-.546-.217-1.211-.292-1.877-.367-.022-.262-.084-.362-.045-.524"/><path fill="#C06822" d="M153.735 350.58c-.766-4.632-1.512-9.344-2.359-13.996-.213-1.249-.077-1.814 1.29-2.169 2.633-.649 5.125-1.417 7.777-2.147 1.086-.251 1.78.771 1.469 2.065-.385 1.96-.852 3.9-1.237 5.86-.402 2.383-.885 4.747-1.126 7.169-.11 1.171.283 2.378.334 3.587.048.867.177 1.754.063 2.582-.165 1.756-.512 3.554-.859 5.352-.214.889.06 2.238-1.571 2.273-2.297-.041-2.682-.219-2.981-2.172-.174-1.411-.428-2.84-.602-4.251-.112-1.31-.205-2.7-.198-4.153-.019.081-.1.062 0 0"/><path fill="#96FF00" d="M182.087 383.326c1.221-5.436.059-11.618-4.045-15.514-.142-.12-.084-.362-.087-.705 1.732-.096 3.463-.192 5.053-.408 4.427-.644 8.953-1.35 12.922-3.644 2.184-1.27 4.146-2.679 6.208-4.149 4.244-3.083 7.919-6.645 9.89-11.644.472-1.255 1.025-2.49 1.498-3.745.333-1.031.486-2.021.9-3.033 1.045-2.571 1.99-5.08 2.954-7.67l.078-.323c-.042-.182-.265-.321-.407-.441-2.267-1.23-4.609-1.794-7.113-2.397-2.361-.484-4.755-.119-7.069.264-6.94 1.151-13.59 3.226-19.704 6.628-4.15 2.336-8.012 5.255-11.978 7.892-3.025 1.922-5.481 4.324-6.74 7.784-.039.161-.34.346-.779.753.013-.767-.051-1.21-.015-1.714.007-1.452.334-3.17-.101-4.557s-.247-2.882-.078-4.296c.254-3.189.75-6.319.923-9.527.03-1.191-.044-2.662-1.077-3.339-.588-.398-1.354-.412-2.019-.486-.766-.014-1.431-.088-2.216-.021-1.551.054-2.879.247-4.365.745-1.306.455-2.94.147-4.229.178-1.551.054-2.608 1.254-2.393 2.845.28 2.034.56 4.069.92 6.123.171 1.067.442 2.074.713 3.08.232 1.167.625 2.374.695 3.503.25 3.224.239 6.472.57 9.716.199 2.015.66 4.008 1.04 5.981-2.614.568-5.509 1.239-8.304 1.848-3.881.861-7.535 2.205-9.983 5.635-.12.142-.301.184-.34.346-.119.142-.035.504-.174.727-.117.486-.395.932-.592 1.397-.868 2.186-1.008 4.547-.887 6.886.065.443.029.947.013 1.371.064.443.29.925.535 1.326.391.864.881 1.667 1.391 2.388 1.611 2.184 3.661 3.961 5.97 5.373 3.566 2.227 7.548 3.785 11.492 5.505 1.476.612 3.191.94 4.784 1.067 3.185.254 6.432.608 9.485-.367.081.02.081.02.181-.041 3.102-.109 6.22-.64 9.151-1.816 1.224-.475 2.911-1.095 3.748-2.09.877-1.158 1.792-2.477 2.364-3.793.217-.546.414-1.012.55-1.578.317-.608.492-1.335.667-2.063m-13.308-31.002c1.914-2.276 4.274-4.274 6.594-6.109 1.481-1.183 2.713-3.11 4.948-3.17.181-.042.236-.628.456-.831.42-.327.921-.634 1.484-.84.662-.268 1.467-.417 2.087-.866.821-.572 1.397-1.545 2.279-2.017 1.823-1.186 3.707-2.271 5.714-3.156 1.063-.514 2.21-.665 3.296-.917 2.171-.503 4.403-.906 6.536-1.248.885-.128 1.77-.257 2.597-.144 2.078.244 4.216.588 6.274.913.908.133 1.437.774 1.023 1.786-.709 1.882-1.417 3.764-2.207 5.626-1.303 2.936-2.688 5.853-4.234 8.73-.634 1.216-1.51 2.374-2.489 3.249-4.299 3.669-8.905 6.836-14.208 8.637-5.764 1.947-11.764 2.384-17.643.54-.545-.217-1.211-.292-1.876-.367-.062-.1-.023-.262-.084-.362 1.183-.656 2.427-1.212 3.61-1.867 5.833-3.299 11.728-6.498 17.5-9.897 3.286-1.945 6.328-4.291 9.431-6.537 2.162-1.532 2.863-1.962 6.081-2.555-.577-1.507-1.591-2.265-2.835-1.709-3.031 1.237-6.205 2.354-8.929 4.092-8.313 5.439-16.954 10.114-25.983 14.268-.963.452-1.946.985-2.928 1.518-.142-.12-.284-.24-.446-.278 1.33-2.332 2.316-4.66 3.952-6.489m-15.144-1.681a360 360 0 0 0-2.279-13.977c-.213-1.249-.077-1.815 1.29-2.17 2.633-.648 5.125-1.417 7.777-2.146 1.086-.252 1.78.771 1.469 2.064-.385 1.96-.852 3.9-1.237 5.86-.402 2.384-.885 4.748-1.126 7.17-.11 1.171.283 2.377.334 3.587.048.867.177 1.753.063 2.581-.166 1.756-.512 3.554-.859 5.352-.214.89.06 2.239-1.572 2.273-2.296-.04-2.681-.218-2.98-2.172-.174-1.41-.428-2.84-.602-4.25zm18.664 37.509c-5.814 3.218-12.034 3.858-18.349 2.765-4.035-.63-8.134-1.703-11.482-4.477-.285-.24-.569-.479-.833-.8-2.263-3.025-4.045-6.277-4.944-10-1.273-5.01 2.567-8.191 6.648-9.175 1.99-.461 4.084-.641 6.478-1.005 1.45.007 3.244.012 5.017.097 3.185.254 6.371.508 9.537.843 4.154.488 7.917 2.249 11.162 4.742 2.515 1.974 3.127 5.115 2.751 8.103-.406 4.179-2.376 7.04-5.985 8.907"/><path fill="#EA5A28" d="M163.47 371.913c-.161-.039-.342.003-.523.045-.12.142-.239.285-.278.446l-.389 1.617c-.039.162-.077.323-.036.504.084.363.349.683.691.68.243.058.524-.045.724-.168.381-.164.843-.31 1.083-.594.339-.346.773-1.439.647-1.982-.145-.463-1.334-.492-1.919-.548m5.996-1.122c-.1.062-.22.204-.32.265-.239.285-.598.711-.595 1.054.025.605.691.68 1.175.796l.162.039c.081.02.181-.042.262-.022.381-.165.64-.53.717-.853.175-.728-.6-1.77-1.401-1.279m4.385 3.793c-.12.142-.32.265-.278.446a.65.65 0 0 0 .245.401c.284.24.488.46.791.618.365.259.75.437 1.131.273.381-.165.478-.569.556-.892s.155-.647-.029-.948c-.613-1.003-1.657-.57-2.416.102m-6.557 3.467a1.43 1.43 0 0 1 1.373.33c.488.46.736 1.204.419 1.812-.197.465-1.08.937-1.503.92-.665-.074-.933-.738-.959-1.342-.003-.343-.009-1.029.15-1.333.22-.203.339-.346.52-.387m7.537 2.414c-.058.242-.359.426-.882.471a2.4 2.4 0 0 1-1.05-.253c-.446-.278-.694-1.022-.355-1.368.139-.223.86-.733 1.164-.575.688.337 1.34 1.178 1.123 1.725m-12.352 6.945.039-.161c.197-.466.737-.935 1.241-.899.604-.025 1.276.735 1.04 1.362-.136.566-.815 1.258-1.38 1.122-.527-.298-.895-.9-.94-1.424m-.565-4.753c-.627-.236-.858-1.404-.842-1.828-.003-.342.679-.691 1.002-.614.584.056.955 1 1.101 1.463.064.443-.838.995-1.261.979m-2.972 3.475-.019.081c-.117.485-1.06.856-1.564.82-.524.045-1.095-.777-.736-1.203.278-.446 1.021-.695 1.483-.84.524-.045.872.637.836 1.142m13.594-.746c-.058.242-.481.226-.862.39-.101.062-.181.042-.282.104-.865.048-1.417-.855-.758-1.466.779-.753 1.409-.173 1.819.609.041.182.103.282.083.363"/><path fill="#FFEFDE" d="M139.067 285.412c-5.515-12.742-13.455-23.199-27.314-27.79a3.7 3.7 0 0 1-1.091-.546c-6.849-4.713-14.769-5.097-24.002-5.805-6.667.849-14.627 1.78-22.546 2.933-8.365 1.233-14.87 5.703-20.062 12.216-3.617 4.511-6.162 9.587-8.344 14.927-2.808 6.897-3.455 14.057-2.384 21.278 1.03 6.998 3.152 13.834 3.92 20.853.585 5.279 2.787 9.648 5.394 13.935 2.323 3.823 5.111 7.363 7.636 11.084 1.92 2.832 4.465 4.713 7.738 5.684 1.819.546 3.697 1.031 5.374 1.861 3.798 1.901 7.779 2.103 11.92 1.86 7.556-.465 15.132-.991 22.709-.97 8.081.02 15.293-2.165 21.738-6.897 2.526-1.841 4.788-4.066 7.273-5.967 7.455-5.684 11.557-13.632 14.668-22.148 3.374-9.263 1.394-18.587-.323-27.851-.546-2.933-1.112-5.946-2.283-8.657zm-74.004 55.521c-3.515 1.699-8.748-1.173-9.213-5.077-.585-4.895 2.627-8.96 7.678-9.627 1.293-.183 2.626-.203 4.222-.344.445.586.788 1.011 1.091 1.456 3.677 5.441 2.223 10.679-3.758 13.592z"/><path fill="#ED8C3F" d="M182.788 145.024c-.06-.263-.606-.404-1.05-.667-.586.971-1.111 1.82-1.718 2.791-1.575-.708-2.909-1.315-4.161-1.881-1.233 1.456-2.425 2.832-3.738 4.409-1.576-1.335-2.768-2.326-4.243-3.559-.384 1.678-.707 2.993-.949 4.308-1.455 7.483-2.748 15.028-4.405 22.471-1.818 8.151-6.283 15.048-11.212 21.642-3.415 4.571-7.395 8.778-10.466 13.571-6.101 9.527-14.303 16.667-24.526 20.914-9.132 3.782-17.86 8.657-27.537 11.043-5.253 1.295-10.486 3.135-16.001 1.639-2.06-.567-4.02-1.639-6.122-1.922-4.424-.607-7.818-3.317-11.233-5.623-4.525-3.054-7.758-7.847-12.91-10.234-.464-.222-.747-.789-1.171-1.133-4.99-4.308-6.809-10.537-8.93-16.302-4.808-13.106-4.727-26.395.606-39.521.667-1.659 1.172-3.318.89-5.441-.567-4.41-.385-8.94-.203-13.43.121-3.54.808-7.039 1.03-10.579.627-9.91 1.314-19.821 3.233-29.59.364-1.841.707-3.782-.828-5.401-1.495.607-2.93 1.659-4.384 1.679-2.627.02-.95-3.013-2.445-4.166-2.344.728-4.95 2.063-6.586-2.347-1.88 2.832-3.617 4.693-4.506 6.918-4.121 10.234-8.344 20.448-10.06 31.492-1.9 12.176-2.526 24.433-2.748 36.71-.162 8.313-.344 16.646-.081 24.959.161 5.562.93 11.144 1.656 16.686 1.172 8.9 1.98 17.921 6.304 26.092.182.344.222.768.384 1.315-.87.141-1.677.262-2.465.384-.142 2.852-.06 5.461-.424 8.009-1.455 10.235-.99 20.388.626 30.562 2.242 14.077 7.212 27.406 10.91 41.079 1.677 6.169 3.454 12.318 5.414 18.406 1.738 5.44 3.536 10.881 5.798 16.12 2.203 5.117 5.132 9.91 7.577 14.906 3.656 7.443 6.828 15.17 13.293 20.853.788.688 1.374 1.699 1.839 2.67 2.06 4.248 5.818 7.019 8.849 10.417.525.586 1.394.869 2.162 1.314-.506-3.034-2.768-5.319-1.617-8.899 2.02 1.861 3.758 3.438 5.718 5.238.747-1.557 1.293-2.669 2-4.166 1.333 1.557 2.263 2.872 3.434 3.903.586.506 1.617.486 2.465.708.202-.971.828-2.103.525-2.852-.545-1.334-1.434-2.75-2.586-3.62-4.93-3.722-7.879-8.94-11.132-13.956-2.666-4.106-4.161-8.717-5.899-13.329.707-.222 1.111-.506 1.455-.445 4.97.809 9.9 1.719 14.87 2.468 2.545.384 5.13.505 7.717.687 7.05.486 13.698-1.921 20.486-3.094 4.222-.728 8.243-2.65 12.364-4.066 1.718-.586 4.001.425 3.576 1.861-.808 2.771.687 5.421.061 8.03-1.051 4.349-2.182 8.717-3.637 12.945-1.212 3.539-2.889 6.897-4.384 10.335.162.081.323.182.485.263.788-1.133 1.596-2.265 2.586-3.661.99 1.173 1.778 2.124 2.707 3.216.687-1.396 1.253-2.569 1.778-3.641 3.354.385 2.849 3.236 3.556 5.664 1.091-1.214 1.899-1.942 2.485-2.812 3.677-5.542 7.354-11.124 10.95-16.727a32.5 32.5 0 0 0 2.647-5.036c2.02-4.753 3.454-9.81 5.98-14.259 2.444-4.288 3.071-8.981 4.424-13.511 1.657-5.603 2.708-11.367 4.041-17.051.687-2.912 1.556-5.785 2.081-8.738.727-4.004 1.293-8.029 1.778-12.074.343-2.832.444-5.704.666-8.536.162-2.022.506-4.045.566-6.088.263-7.484.465-14.967.647-22.451.06-2.73.101-5.461-.021-8.191-.202-4.612-.525-9.223-.767-13.835-.02-.506.161-1.072.363-1.557 1.293-2.994 2.768-5.927 3.92-8.96 2.343-6.088 5.051-12.055 6.081-18.608.343-2.245 1.434-4.389 2.182-6.574.444-1.294 1.03-2.528 1.354-3.843a479 479 0 0 0 2.788-11.792c.969-4.328 2.04-8.656 2.808-13.025 1.071-6.27 1.919-12.56 2.808-18.851.384-2.67.748-5.36.869-8.029.161-3.54.121-7.08.04-10.619-.04-1.335-.404-2.65-.727-3.964zm-41.477 188.082c-4.485 7.383-9.637 13.855-17.072 18.365-.929.567-1.757 1.295-2.565 2.043-6.93 6.331-15.274 8.697-24.426 8.677-3.394 0-6.788-.303-10.182-.586-6.486-.506-13.031.505-19.496-.607-1.839-.324-3.677-.789-5.415-1.477-2.525-1.011-4.828-2.73-7.415-3.337-4.363-1.011-6.666-3.964-8.626-7.504-1.697-3.034-2.89-6.452-5.051-9.102-3.03-3.701-3.92-8.05-5.576-12.277-1.778-4.551-2.89-9.283-4.667-13.814-.242-.627-.566-1.315-.505-1.942.525-5.198-.828-10.214-1.273-15.331-.202-2.488.424-5.218 1.333-7.605 1.778-4.693 4-9.223 6.041-13.814 1.152-2.589 2.223-5.239 3.495-7.767 2.607-5.158 6.97-8.697 11.698-11.731 5.859-3.762 12.364-5.421 19.375-5.239a28 28 0 0 0 6.89-.688c6.08-1.395 12.222-1.193 18.243-.161 8.929 1.537 18.061 2.831 25.759 8.272 11.293 7.969 19.435 18.406 22.91 31.876 1.637 6.291 2 12.904 2.728 17.941-.324 10.032-1.597 18.183-6.203 25.768z"/><path fill="#F0DBC5" d="M143.452 295.708c-1.818-.587-3.818.546-4.929 2.103s-1.536 3.499-2.101 5.32c-1.212 3.903-3.152 7.544-5.233 11.063-2.727 4.632-5.717 9.143-9.293 13.147-7.375 8.252-16.971 14.118-26.406 19.862-2.889 1.76-5.839 3.54-9.111 4.47-2.324.647-4.728.87-7.132 1.072-4.243.364-8.486.728-12.728 1.072-1.071.101-2.223.223-3.05.91-.83.688-1.011 2.205-.102 2.791.323.203.727.263 1.111.304 7.03.809 14.041 1.638 21.072 2.447 5.799.668 11.698 1.335 17.435.243a28.7 28.7 0 0 0 10.466-4.268c3.03-2.002 5.657-4.571 8.626-6.634 2.91-2.022 6.122-3.56 8.951-5.683 5.818-4.329 9.737-10.882 11.818-17.84 1.556-5.157 2.142-10.538 2.243-15.918.04-1.982.586-13.753-1.637-14.481z"/><path fill="#C46822" d="M181.151 143.931c-1.011.708-1.394 2.023-1.637 3.257-.97 4.914-.949 9.971-1.495 14.967-1.131 10.538-4.667 20.651-7.859 30.764-2.546 8.07-4.869 16.201-7.213 24.311-1.454 5.037-2.889 10.053-4.343 15.089-1.879 6.553-2.93 14.502-7.657 19.74-.93 1.032-2 1.983-2.505 3.277s-.202 3.054 1.05 3.621c.546.242 1.172.222 1.758.364 1.778.424 2.889 2.144 3.677 3.802 5.253 11.124 3.333 24.19 5.637 36.286 1.272.343 1.979-1.436 2.08-2.751.566-6.756 1.132-13.511 1.718-20.267.283-3.317.565-6.634.424-9.971-.162-3.883-.909-7.726-2.162-11.408-1.252-3.64.323-6.391 1.536-10.011a282 282 0 0 1 8.626-22.593c1.071-2.488 2.182-4.955 3.051-7.524 1.131-3.337 1.859-6.816 2.566-10.275 3.414-16.464 6.829-32.968 8.202-49.715.162-2.084-1.07-14.017-5.454-10.963M25.184 178.174c-.324-3.58-.283-7.2.282-10.76.687-4.369 1.334-8.697 1.86-13.106.646-5.36.423-10.76 1.01-16.12.868-7.949 3.494-15.595 6.1-23.159.587-1.699 1.435-3.641 3.172-4.045.546 3.822-.484 7.362-.444 11.104.06 4.146 0 8.191-.626 12.297-.303 2.043-.728 4.066-.95 6.108-.727 6.513.424 13.066.89 19.599.201 2.812.242 5.704-.83 8.313-.585 1.436-1.494 2.711-2.12 4.106-.667 1.517-1.03 3.155-1.374 4.774-.708 3.357-1.415 6.735-1.718 10.153-.161 1.719-.222 3.438-.12 5.178.06 1.234.545 2.73.14 3.924-2.08-3.884-3.818-8.799-4.585-13.107a66 66 0 0 1-.708-5.259z"/><path fill="#ED8C3F" d="M110.606 114.06c-1.98.445-2.707-.344-3.152-1.962a12.8 12.8 0 0 1 3.879-1.901l-1.677-.91c-1.495.384-2.99.789-4.485 1.112-2.525.546-5.071 1.254-7.637 1.335-3.515.122-6.687 1.072-9.738 2.67-4.141 2.164-8.263 4.349-12.404 6.472-.425.223-1.01.142-1.94.243.283-1.193.384-2.083.707-2.892.788-1.881 1.778-3.681 2.505-5.603 1.071-2.771.101-5.542-2.303-7.16-2.323-1.578-4.626-1.234-7.01.951-1.94 1.78-2.89 3.883-2.647 6.553.364 3.924.647 7.848.89 10.922-2.264 2.144-4.001 3.661-5.577 5.299-5.111 5.34-9.213 11.387-13.132 17.658-4.424 7.079-8.506 14.299-11.738 21.965-2.788 6.594-4.465 13.531-3.96 20.711.606 8.799 3.657 16.99 7.354 24.919.424.91 1.07 1.679 1.637 2.528.242-1.254-.101-2.245-.405-3.216-1.313-4.146-3.03-8.232-3.818-12.479-1.535-8.313-1.253-16.525 2.788-24.312 5.111-9.83 18.304-14.441 27.719-7.221 2.91 2.225 5.758 4.612 8.243 7.262 4.566 4.854 9.677 6.351 16.203 4.571 6.263-1.72 12.728-2.832 19.152-3.864 3.596-.566 7.071.547 9.981 2.792 4.727 3.661 7.152 8.636 6.95 14.562-.202 6.331-1.596 12.46-5.193 17.84-2.121 3.175-4.485 6.169-6.707 9.263-.748 1.052-1.455 2.124-2.182 3.196 1.131.101 1.859-.162 2.505-.566 8.001-5.118 15.051-11.226 20.527-19.094 3.111-4.47 6.566-8.758 8.081-14.097 1.071-3.783 1.859-7.666 2.747-11.489 2.001-8.515 3.253-17.111 3.071-25.889-.04-1.618-.141-3.337-.727-4.814-1.717-4.288 0-7.807 3.657-9.587 3.596-1.76 6.061-4.571 8.364-7.625 1.778-2.346 1.758-3.196.141-5.481-.464-.668-1.131-1.234-1.495-1.942-1.03-1.962-2.464-2.225-4.444-1.497-4.89 1.821-9.031 4.369-10.425 9.891-.243.991-.707 1.941-1.273 3.479-1.697-1.699-2.97-3.055-4.324-4.329-3.151-2.933-5.515-6.715-9.899-8.313-1.232-.445-1.919-2.427-3.132-4.085q-3.898.06-4.788-2.65a49 49 0 0 1 1.617-.748l-6.304-3.398c-2.061.263-4.162.445-6.182.91zm-38.043.101c-.404 2.347-1.01 4.673-3.333 6.068-1.88-3.054-1.778-5.259.323-9.85 3.152.789 3.455 1.072 2.99 3.782zm78.894 16.505c.505-.567 2.323-.283 3.333.121.667.263.97 1.436 1.212 1.841-.141 3.236-3.919 6.229-6.465 5.461-.646-.203-1.576-1.578-1.394-1.982.889-1.922 1.899-3.884 3.314-5.441"/><path fill="#FFEFDE" d="M243.096 45.755c-9.536-.992-18.648-3.763-27.759-6.533-4.546-1.376-9.092-2.953-13.738-3.843-7.617-1.436-15.395-2.043-22.971-3.62-13.597-2.853-27.093-6.19-40.629-9.264-8.889-2.023-17.738-4.268-26.709-5.846-8.081-1.416-15.96-3.418-23.799-5.764-8.707-2.61-17.556-4.713-26.708-7.14-.687 1.922-1.374 3.378-1.738 4.915-1.576 6.472-3.07 12.965-4.566 19.457-1.374 5.987-2.707 11.974-4.06 17.961-.809 3.58-1.496 7.18-2.465 10.7-1.051 3.802-2.607 7.483-3.516 11.326-1.737 7.282-3.232 14.603-4.748 21.946-.444 2.204-.585 4.49-.909 6.917 2.303.465 4.283.85 6.304 1.254.323-.425.666-.85.99-1.254-.324.425-.667.85-.99 1.254.323.06.646.121.97.202.464-.586.828-1.153 1.292-1.618 2.667-2.67 3.799-2.73 6.91-.485.384.283 1.07.708 1.313.566 3.05-1.78 4.02.93 5.071 2.144 2.283.303 4.687-.06 5.778.95 1.293 1.214 1.455 3.621 2.182 5.724.121.021.263.061.384.081 0-.424 0-.849-.04-1.274.02.425.02.85.04 1.274 6.627 1.315 13.253 2.65 19.94 3.985.122-.627.243-1.234.384-1.861-.141.607-.262 1.234-.383 1.861.282.061.565.121.868.182.324-.85.586-1.315.707-1.82.647-2.872 2.627-4.713 4.91-6.291 2.02-1.395 5.98-1.638 7.293-.101 2.566 3.034 4.647 6.412 3.637 10.74-.202.89-.465 1.78-.93 3.54 9.435-5.219 18.648-8.333 28.426-9.688 3.293-.445 4.303-.081 5.92 2.629-.889.222-1.758.465-2.627.688l1.677.91c3.192-.931 6.445-.304 9.475 1.982-1.05.324-1.838.647-2.646.789-.465.081-.909.121-1.374.182l6.303 3.398c4.162-1.841 5.657-1.396 8.829 1.941-.909.466-1.757.89-2.99 1.517 6.485 1.881 9.294 7.383 13.314 11.226 1.576-2.124 3.253-4.167 4.728-6.351 2.121-3.115 5.293-4.693 8.687-5.765 1.111-.343 2.727.041 3.818.627 4.203 2.306 6.162 6.655 5.354 11.367-.404 2.367-.929 4.693-1.434 7.181l.606.182c.869.303 1.596.647 2.04.424 2.97-1.537 4.89-.303 6.304 2.205q3.98-2.083 6.748.506c3.394-2.043 3.353-2.003 6.121 1.132.546.607 1.536 1.012 2.364 1.153.222.041.444.061.667.101 2.02.304 4.02.466 5.677.648 1.273-3.297 2.566-6.675 3.859-10.032.525-1.396 1.192-2.751 1.575-4.187 2.203-8.394 4.183-16.849 6.526-25.222 2.505-9.041 5.314-17.981 8.001-26.961 1.757-5.866 3.596-11.731 5.293-17.617 1.273-4.41 2.343-8.88 3.636-13.794-2.788-.547-5.01-1.133-7.273-1.376z"/><path fill="#E9883F" d="M201.38 79.752c-8.949.955-17.944 1.91-26.894 1.273-.818-.045-1.635-.136-2.408.137-1.59.545-2.453 2.183-3.77 3.138-1.227.864-2.772 1.091-4.225 1.273-3.68.5-7.451 1.001-11.13.41-1.363-.228-3.726-.546-4.589-1.683-.954-1.273-1.363-3.457-1.453-5.003 0-.136 0-.318-.091-.41-.046-.136-.182-.227-.273-.272a9 9 0 0 0-3.135-1.456c-.999-.227-1.998-.727-3.043-.773-1.181-.045-2.499.592-2.817 1.774-.182.682 0 1.41-.182 2.047-.408 1.228-2.18 1.91-2.044 3.229.045.5.318.91.5 1.364.681 2.183-2.09 4.184-1.681 6.413.318 1.728 2.271 2.547 3.998 2.91 2.998.683 5.996 1.092 9.04 1.502 3.998.545 7.996 1.046 11.993 1.591 7.133.956 14.265 1.865 21.488 1.956 8.178.091 16.355-.955 24.487-1.956.59-.09 1.181-.136 1.681-.409.499-.273.863-.682 1.226-1.091 2.681-3.048 4.452-6.868 5.225-10.825.408-2.047.499-4.139.318-6.185-.091-1.183-1-1.365-2.226-.864-1 .454-1.182.454-2.272.727-2.589.637-5.179.91-7.723 1.183M94.757 47.006c1.409-.636 2.772-1.364 4.18-1.955 1.136-.455 2.317-.819 3.498-1.183 4.77-1.5 9.904-2.956 14.719-1.592.727.182 1.408.455 1.999.91.681.546 1.181 1.364 1.908 1.865 1.454 1 3.543.682 4.861 1.819.863.728 1.226 1.865 1.772 2.82.681 1.228 1.771 2.501 1.272 3.82-.5 1.273-2.09 1.5-3.271 1.41-1.681-.091-2.09-1.41-3.362-2.274-.818-.546-1.908-.546-2.908-.546-.272 0-.59.046-.863.137-.272.09-.499.363-.454.682 0 .182.091.364.182.5.681 1.274.045 3.639-.636 4.821-.409.682-1.636 2.092-2.59 1.683-.363-.182-.727-.955-.954-1.274-.363-.455-.727-.91-1.135-1.273-.364-.364-.773-.728-1.318-.91-.681-.182-1.499.046-1.908.637-.409.546-.5 1.319-.727 1.956-.409 1.046-1.635.727-2.544.682-1.226-.046-2.453-.41-3.68-.227-.999.181-1.908.727-2.771 1.273a435 435 0 0 0-3.861 2.365c-1.908 1.182-3.907 2.365-6.133 2.82-2.317.455-4.725.09-6.95.864-1.59.546-2.908 1.637-4.498 2.183-1.5.5-3.09.546-4.634.546-1.363 0-2.453-.091-3.316-1.137-.864-1.137-2.181-1.729-2.544-3.002-.682-2.41-1-4.957-1-7.459 0-1.546.136-3.138-.227-4.639-.227-1.046-1.681-5.003.454-4.957 1 .045 2.272.682 3.226.955 1.09.273 2.226.5 3.361.637 4.498.636 9.086.5 13.538-.5a39.5 39.5 0 0 0 7.314-2.457"/><path fill="#102C24" d="M126.194 48.644c-.045-.046-.091-.137-.181-.182-1.136-1.228-2.408-2.274-3.998-2.865-1.272-.455-2.453-.637-3.544-1.456-.999-.727-2.544-.91-3.77-1.137-1.772-.318-3.589-.591-5.315-.5-1.318.091-2.59.728-3.862 1.228-3.225 1.273-6.406 2.729-9.676 3.866-3.68 1.319-7.45 2.456-11.221 3.456-1.636.41-3.408.364-5.088.41-2.181.09-4.362-.182-6.497-.546-1.09-.182-2.18-.41-3.27-.591-.91-.182-1.909-.273-2.772-.592-.363-.136-.727-.363-.863-.727s-.09-.819.182-1.137.636-.5 1.044-.592a1 1 0 0 1 .636.091c.546.228.818.82 1.409 1.001.772.318 1.726.455 2.544.546 1.772.182 3.543.227 5.315.318 1.045.046 2.09-.09 3.135-.136a14.2 14.2 0 0 0 3.634-.637c.59-.182 1.227-.41 1.863-.546.681-.136 1.362-.136 1.998-.227 1.818-.228 3.453-1.092 5.134-1.728 1.59-.592 3.18-1.047 4.77-1.683.772-.319 1.545-.637 2.317-1.092.681-.41 1.272-1.046 1.999-1.273 1.59-.546 3.225-1.137 4.952-1.365 1.68-.136 3.452-.045 5.179.046.726.045 1.453.09 2.18.182 2.862.318 5.633 1.228 8.268 2.41 1.545.728 3.089 1.547 4.361 2.729 1.409 1.273 2.272 3.002 3.226 4.64 1.136 1.91 1.045 3.365-.409 5.002a2.52 2.52 0 0 1-1.545.773c-.999.137-1.998.091-2.907-.273-.818-.318-1.545-1-2.362-1.41a10 10 0 0 1-1.136-.727c-.545-.41-1.09-.956-1.772-1.137h-.136c-.045 0-.091.045-.091.09-.227.41.227.683.364.956.181.409.227 1 .227 1.455 0 .955-.318 1.865-.545 2.774-.773 2.911-3.408 3.775-5.77 2.32-.318-.182-.5-.682-.681-1.046-.273-.591-.5-1.228-.818-1.82-.136-.272-.545-.363-.818-.545-.182.273-.409.546-.454.819-.227 1.364-.772 2.592-2.226 2.956-.636.182-1.454.182-1.999-.091-1.681-.819-3.089-.319-4.498.545-2.907 1.82-5.724 3.866-9.085 4.912-1.863.592-3.726 1.046-5.588 1.638-3.907 1.273-7.996 1.364-12.039 1.91-.954.136-1.908.455-2.907.546-1 .09-2.045.09-2.317-1.228 0-.046-.046-.046-.046-.091-.727-1.137-.727-1.137.636-1.274 2.862-.318 5.724-.545 8.586-.91 1.681-.227 3.362-.636 5.043-1 .636-.136 1.318-.182 1.954-.41 2.77-1 5.587-1.91 8.313-3.092 2.044-.91 3.952-2.183 5.906-3.275 1.726-.955 3.498-1.455 5.36-.272.091.045.137.09.228.136 1.635.91 1.953.5 2.089-1.273.046-.546-.136-1.137-.272-1.729q-.205-.886.681-.955c.455 0 .954 0 1.363.137 1.181.5 2.59.59 3.407 1.773.545.82 1.136 1.638 1.636 2.502.318.546.636.5.954.09.272-.318.59-.681.681-1.09.273-.91.409-1.865.591-2.82.181-1.047-.455-1.683-1.045-2.365-.364-.455-.545-.91-.364-1.501.046-.182 0-.41-.045-.592-.227-.818-.091-1 .727-.955 2.726.137 5.043 1.183 7.132 2.82.727.591 1.636 1 2.544 1.319 1.045.364 2.226-.682 1.817-1.728-.272-.773-.545-1.774-1.044-2.456-.455-.319-.954-.819-1.409-1.32m14.583 27.245c-.772-.273-1.499-.774-2.271-.774-2.09 0-3.635 3.184-2.817 4.776.5 1.046.454 1.046-.636 1.455-.091.046-.227.091-.318.137-1.499.682-1.999 2.638-.908 3.911.363.41.863.682 1.362 1.046-.318.273-.636.455-.908.728-1.09 1.091-2.044 2.365-1.636 4.002.455 1.82 1.59 3.32 3.453 3.957 1.545.546 3.089 1 4.634 1.41 1.544.454 3.044.864 4.588 1.228 1.59.318 3.18.5 4.77.818 1.817.364 3.589 1 5.452 1.228 2.635.319 5.27.41 7.904.501.864.045 1.818.545 2.635-.228.091-.09.545 0 .727.137 1.181.818 2.59 1 3.862.454.136-.045.318 0 .499.046.546.182 1.091.455 1.681.5 1.454.137 2.908.182 4.361.228.954.045 1.909 0 2.863 0v-.182c.272.091.499.182.772.273.908.182 1.726 0 2.453-.592.363-.273.909-.591.909.41.545-.228.999-.41 1.499-.592 1.135.865 19.398-1.819 22.442-3.32-1.954-1.091-3.271-1.319-5.951-1.182-3.726.227-7.405.455-11.131.682-1.181.091-2.362.091-3.543.227-1 .091-1.954.364-2.953.546-.182-.045-.409-.227-.636-.227-1.136 0-2.271.045-3.407.045-2.499 0-5.043-.045-7.541-.09-1.227-.046-2.454-.046-3.635-.137-2.726-.319-5.451-.773-8.177-1-2.544-.183-5.088.09-7.632-.592-2.135-.546-4.361-.91-6.542-1.319-1.272-.227-2.544-.41-3.816-.682-1.09-.273-2.181-.637-3.271-.955-1.045-.319-2.135-.591-3.134-1-1.273-.546-1.363-2.093-.273-2.911.136-.091.227-.319.363-.455.318-.273.591-.682 1-.773.59-.182.999-.455 1.045-1.092-.318-.227-.591-.364-.863-.591-.5-.455-1-.955-1.409-1.456-.272-.364-.5-.864-.454-1.273.045-.318.545-.682.909-.773.499-.137 1.09-.046 1.635 0 .727.045 1.317-.137 1.817-.637-.681-1-1.317-1.91-1.908-2.865-.363-.546-.5-1.274.046-1.683.318-.227.954-.045 1.408.09l2.317.82c.363.136.772.363 1.135.454.318.046.455-.318.546-.545.09-.137.136-.319.181-.455v-.137c0-.045-.045-.045-.045-.09-.227-.228-.318-.41-.636-.5a8 8 0 0 1-.954-.32c-.636-.272-1.227-.5-1.863-.681m72.141 1.545c-.863-.228-1.681-.5-2.59-.683-.499-.09-1.09-.181-1.544 0-3.544 1.274-7.314 1.501-11.039 1.82-4.044.409-8.178.681-12.266.318-.409-.046-.818.09-1.227.09a337 337 0 0 1-6.769-.181c-1.09-.046-2.68-.591-3.498.5-.136.182-.182.41-.273.591-.09.319-.181.591-.318.91-.09.318-.181.59-.136.91.136 1.545 2.544.545 3.453.454.818-.091 1.635-.182 2.408 0 2.771.637 5.587.591 8.404.455 3.089-.091 6.224-.364 9.313-.728 3.089-.41 6.178-1 9.267-1.637 2.317-.5 4.589-1.228 6.906-1.864.363-.091.772-.182 1.135-.273v-.228c-.408-.136-.817-.318-1.226-.454"/><path fill="#C2C7FB" d="M169.956 86.757a6.3 6.3 0 0 1-2.039 1.083c-1.219.392-2.609.469-4.104.25-5.132-.743-11.543-4.913-16.747-11.433-5.381-6.74-8.043-14.186-7.405-19.398.157-1.288.517-2.442 1.09-3.413a6.3 6.3 0 0 1 1.511-1.76c4.995-3.997 15.24.525 22.89 10.1 7.644 9.57 9.793 20.573 4.804 24.57"/><path stroke="#102C24" stroke-miterlimit="10" stroke-width="3.107" d="M169.956 86.757a6.3 6.3 0 0 1-2.039 1.083c-1.219.392-2.609.469-4.104.25-5.132-.743-11.543-4.913-16.747-11.433-5.381-6.74-8.043-14.186-7.405-19.398.157-1.288.517-2.442 1.09-3.413a6.3 6.3 0 0 1 1.511-1.76c4.995-3.997 15.24.525 22.89 10.1 7.644 9.57 9.794 20.573 4.804 24.57Z"/><path fill="#102C24" d="m171.584 86.374-3.481 2.907c-4.902 4.102-14.973-.54-22.483-10.362-7.516-9.828-9.63-21.116-4.722-25.218l3.475-2.912a6.4 6.4 0 0 0-1.484 1.805c-.563.998-.917 2.181-1.071 3.504-.626 5.349 1.991 12.992 7.277 19.909 5.114 6.692 11.412 10.972 16.454 11.734 1.468.226 2.834.148 4.032-.255a6.1 6.1 0 0 0 2.003-1.112"/><path stroke="#102C24" stroke-miterlimit="10" stroke-width="3.107" d="m171.584 86.374-3.481 2.907c-4.902 4.102-14.973-.54-22.483-10.362-7.516-9.828-9.63-21.116-4.722-25.218l3.475-2.912a6.4 6.4 0 0 0-1.484 1.805c-.563.998-.917 2.181-1.071 3.504-.626 5.349 1.991 12.992 7.277 19.909 5.114 6.692 11.412 10.972 16.454 11.734 1.468.226 2.834.148 4.032-.255a6.1 6.1 0 0 0 2.003-1.112Z"/><path fill="#00EDBE" d="M171.585 86.376c-.594.5-1.265.866-2.003 1.112-1.198.402-2.564.48-4.032.255-5.042-.762-11.34-5.043-16.454-11.734-5.286-6.918-7.903-14.56-7.277-19.91.155-1.322.509-2.506 1.071-3.503a6.4 6.4 0 0 1 1.485-1.805c4.907-4.102 14.972.539 22.488 10.367 7.51 9.822 9.623 21.115 4.722 25.218"/><path fill="#00EDBE" stroke="#102C24" stroke-miterlimit="10" stroke-width="3.107" d="M171.585 86.376c-.594.5-1.265.866-2.003 1.112-1.198.402-2.564.48-4.032.255-5.042-.762-11.34-5.043-16.454-11.734-5.286-6.918-7.903-14.56-7.277-19.91.155-1.322.509-2.506 1.071-3.503a6.4 6.4 0 0 1 1.485-1.805c4.907-4.102 14.972.539 22.488 10.367 7.51 9.822 9.623 21.115 4.722 25.218Z"/><path fill="#102C24" d="M162.363 63.645c-.384-.675-.544-1.346-.458-1.927h-12.204a.7.7 0 0 0-.29.056.4.4 0 0 0-.188.162.4.4 0 0 0-.058.243.7.7 0 0 0 .082.288l1.201 2.354q.077.15.211.288a1.6 1.6 0 0 0 .659.405q.183.056.348.056h12.204c-.679-.58-1.203-1.25-1.507-1.926m-11.854 5.027c.383.675.542 1.346.456 1.926l12.204.001a.7.7 0 0 0 .29-.056.4.4 0 0 0 .188-.162.43.43 0 0 0 .058-.243.8.8 0 0 0-.082-.288l-1.201-2.354a1.2 1.2 0 0 0-.211-.288 1.6 1.6 0 0 0-.659-.405 1.2 1.2 0 0 0-.348-.056L149 66.745c.679.581 1.203 1.252 1.507 1.926m16.985 5.034c-.384-.675-.544-1.346-.458-1.927H154.83a.7.7 0 0 0-.29.056.4.4 0 0 0-.188.162.4.4 0 0 0-.058.243.7.7 0 0 0 .082.288l1.201 2.354q.077.15.211.287a1.6 1.6 0 0 0 .659.406c.12.037.239.056.348.056h12.204c-.679-.58-1.203-1.251-1.507-1.926"/><path fill="#C46822" d="M137.473 156.39c.101 6.351-.101 12.824-2.101 18.851-1.435 4.308-3.738 8.293-5.233 12.581-1.455 4.166-2.101 8.596-3.657 12.742-2.97 7.929-9.031 14.421-11.94 22.37-1.798 4.915 4.728 1.295 6.586-.04 3.314-2.387 7.213-3.722 10.547-6.068 2.323-1.618 4.262-3.722 6-5.947 6.243-8.07 9.758-18.021 11.455-28.094 1.697-10.072 1.697-20.347 1.515-30.561-.04-2.205-.06-4.531 1.031-6.432.848-1.517 2.303-2.569 3.656-3.661 2.485-1.962 4.849-4.146 6.445-6.877s2.344-6.088 1.414-9.122c-.222-.708-.525-1.415-1.03-1.962-.687-.768-1.677-1.213-2.667-1.517-5.091-1.496-11.091 1.153-13.435 5.927-.869 1.78-1.434 3.944-3.212 4.813a45.3 45.3 0 0 0-7.819-7.281c-1.374-1.011-3.151-1.76-4.424-2.892-1.273-1.133-2.182-2.812-2.889-4.248-.263-.526-.485-1.072-.889-1.496-.465-.486-1.071-.789-1.697-1.072-1.354-.627-2.708-1.275-4.061-1.902-1.071-.505-2.121-.991-3.253-1.355-1.859-.586-3.798-.789-5.738-.991-1.515-.162-2.848-.849-4.424-.768-1.152.06-2.283.343-3.414.647-1.859.485-3.738.971-5.597 1.456-.606.162-1.293.384-1.575.951-.304.667.14 1.476.747 1.86.606.385 1.374.466 2.08.628.708.161 1.456.444 1.839 1.071.627 1.032.081 2.63 1.031 3.358.565.425 1.353.263 2.06.142 1.637-.284 3.334-.284 4.991-.284.909 0 1.899.021 2.606.567.869.667 1.111 1.861 1.737 2.75.95 1.295 2.667 1.76 4.263 1.902s3.253 0 4.768.526a6.06 6.06 0 0 1 3.657 3.458c.404 1.032.768 1.841 1.616 2.549.687.586 1.536.93 2.283 1.436 3.374 2.225 3.516 6.027 4.122 9.607.04.223.06.445.141.627s.222.324.343.465c2.405 2.852 1.96 7.767 2.021 11.246z"/><path fill="#9AFF00" d="M42.153 109.506c6.526 1.274 12.89 2.528 19.274 3.782.182-1.193.404-2.387.646-3.559-6.687-1.335-13.334-2.67-19.94-3.984.06 1.253.06 2.507.04 3.761zm208.636-63.249c-6.303-2.366-13.051-2.468-19.496-4.126-4.606-1.173-9.293-2.124-13.819-3.54-8.162-2.589-16.082-5.987-24.708-6.937-1.495-.162-2.97-.445-4.425-.749a6161 6161 0 0 1-32.345-7.059c-10.364-2.285-20.729-4.631-31.113-6.937-4.505-1.011-9.031-2.002-13.536-2.993-6.243-1.376-12.526-2.59-18.728-4.127-4.748-1.173-9.395-2.75-14.082-4.166A4111 4111 0 0 1 59.93 0c-1.697.85-2.384 2.771-2.829 4.773-1.232 5.583-2.303 11.185-3.636 16.748-3.05 12.701-6.243 25.383-9.314 38.085-1.374 5.684-2.626 11.408-4 17.091-.485 1.982-1.313 3.883-1.717 5.886-.95 4.53-1.718 9.081-2.607 13.612-.626 3.176-.12 3.944 3.092 4.126 1.575.081 3.171.041 5.293.02a53 53 0 0 0 .95-1.213c-2-.405-3.98-.79-6.304-1.254.303-2.427.444-4.713.909-6.918 1.495-7.321 2.99-14.663 4.748-21.945.909-3.843 2.465-7.504 3.515-11.326.97-3.52 1.657-7.14 2.465-10.7 1.354-5.987 2.687-11.974 4.06-17.96 1.496-6.493 2.99-12.986 4.567-19.458.363-1.537 1.05-2.994 1.737-4.915 9.152 2.427 18.001 4.55 26.709 7.14 7.839 2.346 15.718 4.348 23.799 5.764 8.97 1.578 17.819 3.823 26.709 5.845 13.556 3.075 27.032 6.412 40.628 9.264 7.576 1.578 15.355 2.184 22.971 3.62 4.667.89 9.193 2.448 13.738 3.843 9.112 2.771 18.224 5.563 27.76 6.533 2.262.223 4.485.83 7.273 1.376-1.293 4.915-2.384 9.385-3.637 13.794-1.697 5.886-3.535 11.751-5.293 17.617-2.687 8.98-5.495 17.94-8 26.961-2.324 8.353-4.324 16.828-6.526 25.222-.384 1.436-1.03 2.791-1.576 4.187a3830 3830 0 0 1-3.859 10.032c-1.677-.182-3.677-.344-5.677-.647.384.97.687 1.962.889 2.993 2.889.506 5.556.971 8.102 1.416.363-2.104.383-4.49 1.171-6.594 2.041-5.481 4.304-10.821 5.637-16.585 1.778-7.666 4.546-15.109 6.788-22.674 4.91-16.605 9.799-33.21 14.567-49.836.646-2.286.626-4.754.97-7.666-1.637 0-2.506.222-3.213-.04z"/><path fill="#FFEFDE" d="M41.873 203.659c.262 5.036 1.98 9.587 4.465 13.895 1.838 3.176 3.535 6.493 5.757 9.365 1.718 2.205 3.92 4.369 6.385 5.562 4.02 1.942 8.384 3.216 12.667 4.531 2.04.627 4.243.667 6.101.93 3.718-.667 7.092-1.132 10.385-1.901 6.303-1.456 12.081-4.025 17.152-8.191 6.122-5.017 10.971-11.024 14.405-18.103 2.768-5.663 4.829-11.65 3.98-18.122-.828-6.351-5.515-10.477-11.819-9.85-5.394.526-10.829 1.496-16.02 3.054-9.96 2.993-18.244.95-25.174-6.796-1.535-1.719-3.394-3.196-4.828-4.996-2.667-3.337-6.284-3.904-10.183-4.146-3.111-.182-5.677.829-7.677 3.094-3.233 3.681-6.809 7.241-6.203 12.824.061.647-.181 1.355-.404 2.002-1.616 4.45-1.192 8.839.243 13.248.384 1.153.667 2.387.747 3.6zm54.104-14.3c4.505-2.386 9.455-2.326 14.324-2.427 1.03-.02 2.444 1.133 3.071 2.124.868 1.355.505 3.054-.829 4.025-1.495 1.092-3.172 2.144-4.929 2.67-1.778.526-3.758.404-5.132.526-2.162-.243-3.798-.445-5.414-.567-2.02-.161-3.354-1.092-3.677-3.155-.324-1.982 1.293-2.488 2.586-3.175zm-33.921-9.89c1.697 1.537 3.192 3.277 4.707 4.996 1.151 1.294.485 2.508-.424 3.62-1.192 1.477-2.687 2.67-4.526 1.477-2.707-1.74-5.334-3.661-7.738-5.785-1.252-1.092-1.94-2.811-2.848-4.187 3.374-3.458 7.111-3.499 10.808-.141z"/><path fill="#000" d="M56.355 153.903c-1.313.344-2.444 1.598-1.818 2.974.727 1.577 2.869 2.609 4.263 3.499.545.344 1.09.687 1.697.93 1.232.506 2.586.566 3.92.607.16 0 .323 0 .464-.041.242-.101.384-.343.505-.566.647-1.497.142-3.317-.95-4.53-1.09-1.214-2.444-1.558-3.899-2.165-1.454-.606-2.626-1.112-4.162-.708zm56.754 11.65c-1.313.324-2.505 1.072-3.111 2.366-.384.809-.465 1.901.181 2.528.485.485 1.213.566 1.9.627 2.363.202 4.909.364 6.99-.809.262-.142.525-.324.727-.566 1.778-2.144-2.586-4.045-4.081-4.247-.848-.122-1.758-.101-2.606.121zm-5.013-53.155c.444 1.598 1.171 2.407 3.151 1.962 2.465-.566 5.031-.708 7.556-1.112.809-.122 1.596-.465 2.647-.789-4.283-3.215-8.99-3.195-13.354-.081zm42.085 25.97c2.545.769 6.323-2.225 6.465-5.46-.243-.385-.546-1.557-1.212-1.841-1.01-.404-2.829-.667-3.334-.121-1.394 1.557-2.424 3.499-3.313 5.44-.182.384.747 1.78 1.394 1.982m3.495-5.784c.929 3.661.909 3.701-2.97 3.216 1.172-1.254 2.061-2.245 2.97-3.216M70.197 110.68c-2.1 4.591-2.202 6.796-.323 9.85 2.324-1.396 2.93-3.722 3.334-6.068.464-2.71.161-2.994-2.99-3.782zm.465 6.735c-.303-.061-.606-.101-.93-.162.243-1.133.465-2.286.769-3.722q1.434 1.558.161 3.864z"/><path fill="#F396A8" stroke="#F396A8" stroke-linecap="round" stroke-linejoin="round" stroke-width="2.192" d="M61.832 189.582c1.838 1.173 3.333 0 4.525-1.476.89-1.113 1.576-2.326.425-3.621-1.516-1.719-3.01-3.479-4.708-4.996-3.697-3.357-7.434-3.317-10.808.142.909 1.375 1.596 3.094 2.848 4.187 2.405 2.123 5.03 4.045 7.738 5.784zm1.434-5.117c.485.445.324 1.557.566 2.933-4.425-.911-6.91-3.014-8.283-7.019 3.636-.182 5.636 2.104 7.717 4.066z"/><path fill="#fff" d="M153.677 132.584c-.909.971-1.798 1.962-2.97 3.216 3.879.485 3.899.445 2.97-3.216m-83.925-15.331c.303.061.606.101.93.162q1.292-2.326-.162-3.863c-.303 1.436-.526 2.569-.768 3.721z"/><path fill="#ED8C3F" d="M63.83 187.417c-.242-1.375-.08-2.487-.566-2.932-2.08-1.962-4.08-4.247-7.717-4.065 1.374 4.004 3.859 6.087 8.283 7.018z"/><path fill="#000" d="M67.73 325.885c-1.596.122-2.93.162-4.222.344-5.051.668-8.263 4.733-7.678 9.628.465 3.903 5.698 6.776 9.213 5.077 6-2.913 7.455-8.152 3.758-13.592-.303-.445-.647-.85-1.091-1.457zm-8.687 10.235v-4.43c1.11.971 1.757 1.537 2.586 2.245-.89.769-1.576 1.335-2.586 2.185m4.222 2.366c-.404.02-.828-.364-1.232-.566.323-.486.666-.971.99-1.456.384.283.767.566 1.434 1.051-.545.466-.848.951-1.192.971m.546-6.978c-1.111-.991-1.778-1.557-2.748-2.427 1.232-.586 2.101-1.011 3.798-1.82-.444 1.759-.687 2.771-1.05 4.227zm3.333 4.47q-2.565-2.084.323-5.724c1.354 2.306 1.01 3.985-.323 5.724"/><path fill="#fff" d="M67.166 335.977c1.354-1.739 1.697-3.418.323-5.723q-2.91 3.64-.323 5.723m-3.354-4.47c.364-1.456.606-2.468 1.05-4.227-1.696.809-2.565 1.234-3.797 1.82.99.87 1.636 1.436 2.747 2.427zm-4.767 4.612c1.01-.849 1.677-1.416 2.586-2.184-.828-.708-1.455-1.274-2.586-2.245zm3.008 1.801c.404.202.828.586 1.232.566.344 0 .647-.505 1.192-.971-.667-.485-1.05-.768-1.434-1.051-.324.485-.667.971-.99 1.456"/><path fill="#000" d="M189.797 147.289a19.5 19.5 0 0 0-.889-2.993c-.222-.04-.444-.061-.667-.101-.848-.142-1.818-.546-2.363-1.153-2.768-3.155-2.728-3.196-6.122-1.133q-2.767-2.589-6.748-.505c-1.414-2.508-3.333-3.742-6.303-2.205-.424.222-1.172-.121-2.041-.425a16.2 16.2 0 0 0-2.161 3.196c.545.243 1.131.566 1.838 1.032-1.576 8.191-2.909 16.484-4.849 24.615-.929 3.903-2.949 7.544-4.545 11.265-.95 2.246-2.021 4.43-3.091 6.635-.384.809-.889 1.577-1.334 2.366l-.768-.222c3.839-13.532 3.698-27.245 2.162-40.776 1.717-1.173 3.394-2.164 4.91-3.358 2.485-1.941 3.717-2.427 5.656-1.577.586-1.153 1.334-2.225 2.162-3.196-.202-.061-.404-.142-.606-.182.505-2.468 1.03-4.814 1.435-7.18.808-4.733-1.152-9.061-5.354-11.367-1.091-.587-2.708-.971-3.819-.627-3.394 1.072-6.566 2.649-8.687 5.764-1.475 2.185-3.152 4.227-4.728 6.351-4.02-3.843-6.828-9.344-13.314-11.225 1.233-.627 2.081-1.052 2.991-1.517-3.556-3.742-4.991-3.863-10.446-1.194q.91 2.71 4.789 2.65c1.212 1.659 1.899 3.62 3.131 4.086 4.384 1.598 6.768 5.38 9.9 8.313 1.353 1.274 2.646 2.629 4.323 4.328.566-1.537 1.031-2.488 1.273-3.479 1.374-5.522 5.515-8.05 10.425-9.89 1.98-.749 3.414-.486 4.444 1.496.364.708 1.031 1.274 1.496 1.942 1.596 2.285 1.616 3.135-.142 5.481-2.303 3.054-4.768 5.886-8.364 7.625-3.657 1.78-5.374 5.3-3.657 9.588.586 1.476.687 3.195.728 4.813.181 8.758-1.071 17.375-3.071 25.89-.91 3.843-1.677 7.706-2.748 11.488-1.515 5.34-4.97 9.628-8.081 14.098-5.475 7.868-12.526 13.976-20.527 19.093a3.5 3.5 0 0 1-1.151.485c-.728 1.639-1.414 3.297-2.122 4.956 1.192-.526 2.384-1.052 3.597-1.558 10.222-4.247 18.425-11.387 24.526-20.913 3.071-4.794 7.051-8.981 10.465-13.572 4.91-6.594 9.375-13.491 11.213-21.642 1.677-7.443 2.95-14.987 4.405-22.471.262-1.315.585-2.629.949-4.308 1.475 1.234 2.667 2.225 4.243 3.56 1.333-1.558 2.505-2.953 3.737-4.41 1.253.567 2.586 1.173 4.162 1.881.586-.97 1.111-1.82 1.717-2.791.445.283.97.425 1.051.668.323 1.294.707 2.629.727 3.964.081 3.54.122 7.079-.04 10.619-.121 2.69-.485 5.38-.869 8.029-.889 6.291-1.737 12.601-2.808 18.851-.748 4.369-1.818 8.697-2.808 13.026-.889 3.944-1.798 7.867-2.788 11.791-.324 1.315-.909 2.569-1.354 3.843-.747 2.185-1.838 4.329-2.182 6.574-1.01 6.553-3.737 12.52-6.081 18.608-1.172 3.034-2.626 5.966-3.919 8.96-.202.485-.405 1.052-.364 1.557.242 4.612.566 9.223.768 13.835.121 2.73.08 5.461.02 8.191a2076 2076 0 0 1-.647 22.451c-.081 2.043-.404 4.066-.565 6.088-.243 2.852-.324 5.704-.667 8.536-.485 4.045-1.051 8.07-1.778 12.075-.525 2.932-1.394 5.825-2.081 8.737-1.333 5.684-2.384 11.468-4.041 17.051-1.333 4.51-1.979 9.203-4.424 13.511-2.525 4.449-3.98 9.506-5.98 14.259a36 36 0 0 1-2.647 5.036 1246 1246 0 0 1-10.95 16.727c-.586.87-1.394 1.578-2.485 2.812-.707-2.448-.202-5.279-3.556-5.664-.525 1.072-1.091 2.246-1.778 3.641-.929-1.092-1.717-2.043-2.707-3.216-.99 1.396-1.778 2.528-2.586 3.661-.161-.081-.323-.182-.485-.263 1.475-3.438 3.172-6.796 4.384-10.335 1.435-4.228 2.586-8.596 3.637-12.945.626-2.609-.869-5.239-.061-8.03.425-1.436-1.858-2.447-3.576-1.861-4.101 1.416-8.121 3.338-12.364 4.066-6.808 1.173-13.455 3.56-20.486 3.094-2.586-.182-5.172-.303-7.718-.687-4.97-.749-9.92-1.659-14.87-2.468-.343-.06-.747.223-1.454.445 1.758 4.612 3.233 9.203 5.9 13.329 3.252 5.016 6.202 10.235 11.132 13.956 1.151.87 2.04 2.265 2.586 3.621.303.748-.324 1.901-.526 2.851-.828-.222-1.879-.182-2.465-.707-1.171-1.032-2.12-2.367-3.434-3.904-.707 1.497-1.253 2.609-2 4.166-1.96-1.8-3.677-3.377-5.718-5.238-1.151 3.6 1.112 5.865 1.617 8.899-.768-.465-1.637-.728-2.162-1.314-3.03-3.398-6.809-6.169-8.85-10.417-.464-.971-1.05-1.982-1.838-2.67-6.465-5.663-9.636-13.389-13.293-20.853-2.465-5.016-5.374-9.809-7.576-14.906-2.263-5.218-4.041-10.679-5.799-16.12-1.96-6.088-3.737-12.237-5.414-18.406-3.718-13.673-8.667-27.002-10.91-41.079-1.616-10.174-2.08-20.327-.626-30.562.363-2.548.283-5.157.424-8.009.788-.121 1.596-.243 2.465-.384-.162-.546-.202-.971-.384-1.315-4.324-8.151-5.111-17.172-6.303-26.092-.728-5.542-1.496-11.104-1.657-16.686-.243-8.313-.06-16.646.08-24.959.223-12.277.87-24.534 2.748-36.71 1.718-11.044 5.96-21.238 10.061-31.492.89-2.205 2.627-4.086 4.506-6.918 1.636 4.41 4.243 3.055 6.586 2.347 1.495 1.153-.182 4.187 2.445 4.166 1.454 0 2.889-1.072 4.384-1.678 1.535 1.618 1.192 3.559.828 5.4-1.94 9.769-2.606 19.68-3.233 29.591-.222 3.539-.909 7.058-1.03 10.578-.161 4.47-.343 9 .202 13.43.263 2.103-.222 3.782-.889 5.441-5.333 13.106-5.414 26.395-.606 39.521 2.122 5.765 3.94 11.994 8.93 16.302l.121.122c-.364-2.043-.606-4.106-1.09-6.129-.466-.647-.93-1.294-1.253-2.002-3.698-7.949-6.748-16.12-7.354-24.918-.505-7.181 1.171-14.118 3.96-20.712 3.232-7.666 7.313-14.886 11.738-21.965 3.919-6.27 8.02-12.338 13.132-17.658 1.575-1.658 3.313-3.155 5.576-5.299-.243-3.074-.526-6.998-.89-10.922-.242-2.67.708-4.773 2.647-6.553 2.384-2.185 4.688-2.508 7.01-.951 2.405 1.618 3.355 4.389 2.304 7.16-.727 1.901-1.717 3.702-2.505 5.603-.344.809-.424 1.719-.707 2.892.95-.101 1.515-.04 1.94-.243 4.161-2.123 8.282-4.328 12.404-6.472 3.05-1.598 6.223-2.548 9.738-2.67 2.566-.081 5.111-.789 7.637-1.335 2.384-.505 4.727-1.173 7.111-1.78-1.616-2.71-2.626-3.074-5.919-2.629-9.799 1.355-18.991 4.47-28.426 9.688.465-1.759.727-2.649.93-3.539 1.01-4.329-1.072-7.706-3.637-10.74-1.314-1.558-5.273-1.295-7.294.101-2.283 1.578-4.263 3.398-4.91 6.29-.12.506-.363.991-.706 1.821-.283-.061-.566-.122-.869-.183a73 73 0 0 0-.646 3.56c.484.101.97.182 1.454.283.404 3.277.788 6.351 1.131 9.203-5.11 5.037-10.687 9.648-15.152 15.17-4.465 5.521-7.859 11.913-11.657 17.859-1.697-5.622.768-35.314 4.02-46.479.324.061.627.121.93.182.04-1.254.02-2.508-.04-3.762-.122-.02-.263-.061-.385-.081-.727-2.103-.889-4.51-2.181-5.724-1.092-1.032-3.496-.647-5.779-.95-1.07-1.214-2.02-3.924-5.07-2.144-.243.141-.91-.284-1.314-.567-3.111-2.225-4.242-2.164-6.91.486-.464.465-.848 1.031-1.292 1.618a17 17 0 0 1-.97-.203c-.323.405-.647.81-.95 1.214h1.172c-1.535 2.346-2.566 4.207-3.859 5.866-2.303 2.953-3.98 6.168-4.687 9.87a14 14 0 0 1-.99 3.094c-2.606 5.724-4.323 11.711-5.333 17.921-.243 1.476-.485 2.953-.526 4.449-.161 5.724-.1 11.448-.404 17.152-.808 15.392-2.04 30.804-.02 46.156 1.273 9.708 2.91 19.417 5.253 28.923 1.01 4.065 1.636 7.463.384 11.63-1.394 4.612-1.536 9.648-1.96 14.502-.283 3.236-.485 6.553-.06 9.749.909 6.614 2.565 13.106 3.394 19.72 1.454 11.448 5.495 22.209 8.505 33.232 2.566 9.445 6.344 18.547 8.99 27.972 1.152 4.106 3.294 7.363 5.476 10.821 2.525 4.005 4.788 8.212 6.687 12.561 3.333 7.665 6.647 15.25 13.172 20.893 1.01.87 1.617 2.164 2.485 3.196 2.526 2.993 4.95 6.108 7.718 8.859 1.172 1.173 3.172 1.476 4.748 2.285 1.757.89 2.06-1.072 3.01-1.537.93.647 1.737 1.234 2.687 1.881.869-1.436 1.556-2.589 2.303-3.823.869.081 1.677.203 2.465.223 3.515.101 5.657-2.427 4.748-5.845-.384-1.416-1.192-2.751-2.061-3.965-1.758-2.427-3.798-4.652-5.495-7.119-2.586-3.762-5.496-7.342-6.97-11.913 3.252 0 6.242-.344 9.152.06 7.535 1.052 14.93.789 22.223-1.456 6.061-1.861 12.122-3.722 18.405-5.663-.828 2.204-1.232 4.632.162 7.099.444.789.02 2.164-.263 3.196-.464 1.699-1.01 3.418-1.778 4.996-1.636 3.418-3.394 6.775-5.151 10.113-1.475 2.771-.627 6.249 1.919 6.836 2.061.465 4.222.485 6.323.748.708.081 1.495.182 2.061.567 3.192 2.103 5.213 1.962 7.758-.991 1.515-1.74 2.869-3.621 4.122-5.583 3.434-5.4 7.414-10.578 9.98-16.383 4.546-10.315 8.566-20.934 12.142-31.633 2.849-8.515 5.212-17.253 6.869-26.072 1.637-8.677 2.505-17.536 3.01-26.354.586-9.931.485-19.923.465-29.874 0-2.69-.586-5.421-1.232-8.05-.97-3.863-.93-7.463.889-11.104 2.505-4.996 5.111-9.992 7.01-15.23 3.212-8.819 6.021-17.819 8.789-26.8 1.111-3.62 1.798-7.402 2.444-11.144a1449 1449 0 0 0 4.081-24.615c.424-2.67.768-5.38.849-8.071.141-4.469.04-8.939.04-13.733.485.081.97.162 1.455.263z"/><path fill="#000" d="M121.876 257.521c-7.698-5.441-16.83-6.735-25.76-8.272-6.02-1.032-12.142-1.234-18.243.161a28.2 28.2 0 0 1-6.89.688c-7.01-.182-13.495 1.477-19.374 5.239-4.728 3.034-9.071 6.573-11.698 11.731-1.273 2.528-2.343 5.178-3.495 7.767-2.04 4.591-4.263 9.121-6.04 13.814-.91 2.387-1.536 5.117-1.334 7.605.424 5.097 1.778 10.113 1.273 15.331-.06.627.262 1.315.505 1.942 1.778 4.531 2.889 9.263 4.667 13.814 1.636 4.228 2.545 8.576 5.576 12.277 2.162 2.65 3.374 6.068 5.05 9.102 1.96 3.54 4.264 6.493 8.627 7.504 2.586.607 4.89 2.326 7.415 3.337 1.717.688 3.576 1.153 5.414 1.477 6.465 1.112 12.991.081 19.496.607 3.395.263 6.789.566 10.183.586 9.152.02 17.496-2.346 24.426-8.677.808-.728 1.636-1.476 2.565-2.043 7.435-4.51 12.607-10.982 17.072-18.365 4.606-7.585 5.879-15.736 6.202-25.768-.727-5.016-1.091-11.65-2.727-17.94-3.495-13.471-11.617-23.907-22.91-31.876zm19.799 64.4c-3.091 8.515-7.193 16.464-14.668 22.147-2.485 1.901-4.748 4.106-7.273 5.967-6.445 4.733-13.657 6.917-21.739 6.897-7.576-.02-15.152.506-22.708.971-4.142.263-8.122.04-11.92-1.861-1.677-.849-3.556-1.315-5.374-1.861-3.273-.971-5.818-2.852-7.738-5.683-2.525-3.702-5.293-7.261-7.637-11.084-2.606-4.288-4.808-8.657-5.394-13.936-.767-6.998-2.889-13.855-3.92-20.853-1.07-7.221-.444-14.381 2.385-21.278 2.182-5.339 4.727-10.416 8.344-14.926 5.212-6.513 11.697-10.983 20.061-12.217 7.92-1.153 15.9-2.083 22.547-2.933 9.233.708 17.132 1.092 24.002 5.805q.515.334 1.091.546c13.839 4.592 21.799 15.028 27.314 27.791 1.172 2.71 1.738 5.724 2.283 8.657 1.697 9.263 3.697 18.607.323 27.851z"/><path fill="#F0DBC5" d="m92.238 230.58 4.546-3.883c1.717-1.477 3.434-2.933 5.03-4.551 7.799-7.848 12.223-18.932 12.021-29.995-.02-1.457-.141-2.933-.444-4.349a15.4 15.4 0 0 0-2.142-5.036c-.222-.324-.465-.688-.404-1.092.101-.789 1.212-.931 2-.769 1.94.404 3.455 1.557 5.334 2.103.666.182 6.364 1.376 6.424 1.821 1.415 7.847-.464 15.877-2.747 23.523-1.778 5.926-5.071 10.477-9.435 14.684-.869.849-1.758 1.699-2.627 2.548-1.373 1.315-2.747 2.65-4.303 3.742-4.505 3.155-8.586 6.857-13.98 8.272-1.96.526-4.809 2.266-6.405.365-.262-.324-.505-.668-.566-1.072-.141-1.234 1.374-1.861 2.506-2.367 1.272-.566 2.343-1.497 3.394-2.387.586-.505 1.192-1.011 1.778-1.517z"/><path fill="#F396A8" stroke="#F396A8" stroke-miterlimit="10" stroke-width="2.192" d="M42.538 223.885c5.152 2.387 8.385 7.18 12.91 10.235 3.415 2.305 6.809 5.016 11.233 5.622 2.081.284 4.04 1.376 6.122 1.922 5.535 1.497 10.768-.344 16-1.638 8.405-2.084 16.103-6.028 23.941-9.507a217 217 0 0 1 2.122-4.955 4.8 4.8 0 0 1-1.354.081c.728-1.072 1.414-2.144 2.182-3.196 2.243-3.094 4.586-6.108 6.708-9.263 3.596-5.38 4.99-11.509 5.192-17.84.182-5.926-2.243-10.902-6.95-14.562-2.889-2.246-6.384-3.378-9.98-2.792-6.425 1.032-12.89 2.144-19.153 3.864-6.526 1.779-11.637.283-16.203-4.572-2.505-2.669-5.354-5.036-8.243-7.261-9.415-7.2-22.607-2.609-27.719 7.221-4.04 7.787-4.323 15.999-2.788 24.312.788 4.247 2.505 8.313 3.819 12.479.303.991.666 1.962.404 3.216a12 12 0 0 0-.364-.526c.465 2.003.727 4.086 1.091 6.129.343.344.626.809 1.03 1.011zm-1.656-37.074c.222-.627.485-1.355.404-2.002-.606-5.583 2.95-9.163 6.202-12.824 1.98-2.245 4.546-3.256 7.677-3.094 3.9.222 7.516.788 10.183 4.146 1.434 1.8 3.293 3.256 4.828 4.996 6.93 7.746 15.213 9.789 25.174 6.796 5.172-1.558 10.626-2.508 16.021-3.054 6.303-.627 10.97 3.499 11.819 9.85.848 6.472-1.213 12.439-3.98 18.122-3.455 7.059-8.284 13.086-14.405 18.103-5.071 4.166-10.85 6.735-17.153 8.191-3.293.769-6.647 1.234-10.384 1.901-1.859-.263-4.061-.323-6.102-.93-4.283-1.315-8.647-2.589-12.667-4.531-2.465-1.193-4.667-3.357-6.384-5.562-2.243-2.872-3.92-6.189-5.758-9.365-2.485-4.287-4.202-8.859-4.465-13.895-.06-1.213-.364-2.427-.748-3.6-1.434-4.409-1.858-8.798-.242-13.248z"/><path fill="#F396A8" stroke="#F396A8" stroke-linecap="round" stroke-linejoin="round" stroke-width="2.192" d="M97.065 195.71c1.636.142 3.252.344 5.414.566 1.374-.121 3.354 0 5.132-.525 1.757-.526 3.414-1.578 4.929-2.67 1.334-.971 1.697-2.69.828-4.025-.646-.991-2.04-2.144-3.07-2.124-4.869.121-9.819.04-14.324 2.427-1.294.688-2.91 1.214-2.587 3.176.324 2.063 1.677 2.993 3.677 3.155zm3.656-5.501c2.384-.526 4.788-.991 7.213-1.275.747-.081 1.576.506 2.364.789-.344.789-.506 2.083-1.071 2.266-3.455 1.173-6.95 1.537-11.112-.243 1.313-.809 1.899-1.396 2.606-1.558z"/><path fill="#ED8C3F" d="M109.248 191.988c.546-.182.708-1.476 1.071-2.265-.788-.283-1.616-.89-2.364-.789-2.424.283-4.828.748-7.212 1.274-.687.162-1.293.748-2.606 1.557 4.162 1.8 7.677 1.416 11.111.243z"/></svg>
