<svg xmlns="http://www.w3.org/2000/svg" width="327" height="308" fill="none"><path fill="#EB8A3F" d="m307.161 217.086-4.74.85c-1.746.314-3.696.921-5.282.69-.544-.16-.589-.409-.678-.908s-.767-1.408-.857-1.907c-.019-1.542-.242-2.789-.511-4.287a425 425 0 0 0-5.265-25.067c-1.188-5.195-2.582-10.096-4.723-14.863-2.794-6.968-6.834-13.712-9.423-20.974-4.909-13.027-13.746-23.546-22.288-33.861-5.243-6.271-11.395-11.864-17.546-17.457-5.563-5.183-11.421-10.571-17.642-15.121-5.928-4.345-12.355-8.601-20.08-10.049-6.639-1.127-12.957-3.342-19.845-4.424-5.551-.807-11.262-1.07-16.884-.835-9.497.158-18.458 3.31-27.079 6.917-11.277 4.598-22.214 9.65-31.911 17.313-3.179 2.373-6.607 4.79-9.447 7.618-3.953 3.799-7.273 8.258-10.932 12.262-6 6.742-11.119 14.099-13.928 22.844-.48 1.632-1.798 2.898-2.073 4.235-1.395 5.144-2.54 10.243-3.98 15.137-.756 2.968-1.805 5.732-2.017 8.86-.699 7.594-.898 15.099-1.846 22.738-.788 7.095-1.077 14.1-.324 21.176.664 6.577 2.12 13.27 3.782 19.668 1.189 5.195 2.877 10.301 4.973 14.818 3.587 7.083 7.672 14.077 11.758 21.07 2.212 3.724 1.367 6.193-2.694 7.952-.953.428-2.2.652-3.109 1.33-.659.633-1.522 1.561-1.638 2.354-.204.295 1.222 1.069 1.81 1.478s1.675.73 2.424.596c5.122-.146 9.951-.497 15.074-.643 1.79-.064 3.742-.671 5.782-.78 5.123-.146 10.066-1.29 13.77-5.045 1.977-1.9 2.438-5.073 1.492-7.479-.812-1.657-1.918-3.519-1.732-5.355.263-5.713 1.025-11.516 1.787-17.319.833-6.845 1.87-13.985 2.204-20.741.308-5.463-.631-10.703-.866-16.327-.09-.499.569-1.132 1.183-2.015 1.17 3.653 2.883 7.467 2.806 11.344-.238 4.42-.52 8.592-.758 13.013-.225 8.797-.406 17.843.411 26.71.243 2.79.779 5.784 2.224 8.101 1.4 2.066 3.709 3.455 5.972 4.594 5.749 3.347 11.703 6.4 17.407 9.498-.55 2.674-4.631 2.891-5.181 5.565-1.012 5.847 9.58 3.175 12.074 2.728 2.29-.153 4.49-.805 6.012-2.366.864-.928 1.433-2.06 2.252-3.237s1.683-2.105 2.885-2.578c.998-.179 2.334.097 3.377.167 2.673.551 5.372-.191 7.911-.389 8.819-1.066 17.256-2.837 25.941-4.652 3.243-.582 6.984-1.253 9.843-2.538 3.358-1.375 6.377-3.204 9.69-4.829 2.61-1.24 5.219-2.481 7.49-4.176 3.633-2.712 6.339-6.288 10.311-8.546.454-.339.704-.383 1.203-.473.748-.134 1.381.525 1.72.979 2.148 1.933 4.342 4.115 7.264 4.621 1.88.435 3.876.077 5.871-.28s3.947-.966 4.925-2.687c3.596-5.795-4.104-8.535-8.363-9.316-.793-.116-1.337-.276-1.925-.685-.838-.365-1.676-.73-1.81-1.478-.089-.5.071-1.043.026-1.293.8-2.719 1.939-4.983 2.24-7.613.212-3.128.129-6.462.59-9.635.231-1.586.461-3.173 1.824-4.19 5.111-4.522 11.389 4.653 14.26 7.744 1.605 1.773 3.664 3.206 5.589 3.891 5.231 1.895 10.507 4.039 16.148 5.345 3.76.871 7.796.405 11.697-.81 1.951-.607 3.652-1.17 5.603-1.778 1.701-.562 3.358-1.374 4.676-2.641.409-.588.863-.927 1.273-1.516.819-1.177 1.682-2.105 2.501-3.282l1.228-1.765c.57-1.132.89-2.22 1.21-3.308.16-.543.025-1.292-.064-1.791q-.576-1.055-1.765-1.229c-.793-.115-1.541.019-2.29.153z"/><path fill="#C26822" d="M205.672 176.57c-7.446 4.426-14.891 8.852-22.72 12.574-4.969 2.437-10.028 4.374-15.561 5.109-3.786.421-7.911.389-11.832.062-12.509-.847-24.973-1.445-37.483-2.292-2.795 3.077-4.459 6.724-5.285 10.735-.07 1.043-.39 2.13.038 3.084.179.998.857 1.906 1.534 2.815 2.935 4.882 3.055 11.299 2.249 16.852-.763 5.803-2.567 11.535-2.831 17.248-.282 4.171.478 8.413.989 12.7.403 2.246.601 4.786 1.751 6.897 2.302 4.223 7.533 6.118 12.176 7.603 5.436 1.6 10.667 3.495 16.103 5.096-2.226 1.944-4.452 3.889-6.928 5.878-.454.339-.658.633-.818 1.177.089.499.178.998.722 1.158 3.076 2.797 7.815 1.946 11.716.732 2.904-1.036 6.645-1.707 8.443-4.605.57-1.132 1.139-2.265 2.297-2.987.454-.339.953-.429 1.202-.474.998-.179 1.746-.313 2.584.052 1.087.32 1.541-.019 2.744-.492 2.2-.652 4.285-.511 6.574-.664 19.155-.86 37.646-8.297 54.532-17.507 3.268-1.874 7.036-3.837 8.744-7.234 2.737 2.342 5.224 4.729 8.575 6.188 3.306 1.21 7.431 1.243 10.111-1.041s3.078-7.248.136-9.296c-2.692-2.092-7.68-1.198-8.805-4.601-.428-.954-.109-2.041.007-2.835 1.082-6.89 2.164-13.78 3.201-20.92.276-1.337.301-2.629.033-4.126-.537-2.995-3.478-5.043-5.716-7.474-2.532-2.637-4.45-6.156-6.323-9.425-5.236-9.105-10.223-18.255-13.803-28.172-2.16-6.309-3.593-4.249-7.547-.45-2.456 3.531-6.633 6.083-10.809 8.635"/><path fill="#000" d="M142.735 276.452c-1.247.223-2.29.153-2.993.537-2.361 1.195-5.559 2.027-5.681 5.654-.141 2.086 3.229 5.087 5.857 5.388 8.474 1.313 17.211-3.087 20.992-10.718 1.791-.064 3.876.077 5.667.013l31.563-4.888c11.563-1.559 20.69-8.089 30.157-14.165 3.473-2.168 6.313-4.996 8.993-7.279 2.398 1.888 4.592 4.07 7.194 5.663 1.72.979 3.761.871 5.89 1.262 5.008.647 9.121-3.697 8.476-8.732-.69-5.284-6.599-8.088-11.721-7.942-1.542.019-3.013-1.005-4.759-.691.09.499-.051 2.584.038 3.083 1.586.231 3.128.212 4.714.443 2.379.346 4.758.691 6.772 1.875 1.177.82 2.327 2.931 2.346 4.473-.025 1.292-1.593 2.604-2.706 3.576-1.612 1.062-3.063 1.58-4.944 1.144-1.63-.48-3.306-1.21-4.777-2.234-1.47-1.024-2.692-2.092-3.913-3.161-.588-.409-1.221-1.069-1.56-1.523s-.678-.908-1.222-1.069c-.793-.115-2.2.653-2.859 1.286-5.296 6.358-12.581 10.24-19.278 14.532-2.565 1.49-5.175 2.731-8.123 3.517a300 300 0 0 1-21.068 4.551c-7.732 1.387-15.554 2.275-23.331 3.412-1.497.269-3.448.876-4.561 1.848-4.183 5.387-9.741 7.414-16.495 7.08-1.042-.071-1.97-.935-2.852-1.549.659-.633 1.228-1.766 2.181-2.194 2.655-.991 5.104-1.688 7.803-2.43.499-.089.909-.678 1.567-1.311-.588-.41-1.016-1.363-1.56-1.523-2.174-.64-4.509-.737-6.433-1.422-.544-.16-1.337-.275-1.631-.48-.544-.16-.883-.614-1.471-1.024q-1.257-.547-2.379-.346l-.748.135c-.25.044-.454.339-.41.588.045.25.045.25.339.454.339.455.927.864 1.516 1.274.294.205.339.454.633.659s.543.16 1.087.32.837.365 1.426.774c.294.205 1.132.57 2.264 1.14"/><path fill="#F194A6" d="M155.744 192.48c-3.786.422-7.822.888-11.563 1.559-1.996.358-3.742.671-5.782.779-.748.135-1.292-.025-1.951.608-.704.384-1.113.972-1.816 1.356-.953.428-1.862 1.106-2.77 1.784-1.567 1.311-3.045 3.122-4.024 4.843-1.433 2.059-3.16 3.914-4.593 5.974-1.388 2.31-2.776 4.619-3.915 6.883-.89 2.22-1.191 4.85-1.786 7.274-.55 2.675-1.145 5.099-1.447 7.729-1.402 7.977-3.009 16.249-1.079 24.145.607 1.951 1.259 4.152 2.116 6.059.428.953.901 2.156 1.579 3.065.723 1.158 1.56 1.523 2.443 2.137 1.675.73 3.395 1.709 5.071 2.439.838.364 1.675.729 2.308 1.388.634.659 1.427.775 2.514 1.095 1.586.23 3.421.416 5.212.353 2.29-.153 4.061-1.759 6.057-2.117 1.746-.313 3.652-1.17 5.308-1.982 3.064-1.58 5.994-3.908 8.086-6.601 2.091-2.693 3.346-5.751 4.306-9.014.16-.544 2.11-1.151 3.153-1.08 3.965.576 7.859 2.196 11.94 1.979 6.12-.325 12.356-1.444 18.458-3.311 6.85-2.001 11.826-7.272 14.494-13.931 3.353-8.586.381-16.551-4.453-23.411 0 0-.044-.249-.294-.205-2.711-3.634-5.876-6.929-9.451-9.636-1.809-1.479-3.779-2.413-5.544-3.642-.882-.614-1.515-1.273-2.647-1.843l-3.396-1.709c-1.675-.729-3.146-1.753-5.026-2.189-3.761-.871-7.681-1.198-11.556-1.275-3.422-.417-6.709-.085-9.952.497m29.097 11.522c2.219.889 4.483 2.029 6.248 3.257 7.443 5.619 12.322 12.728 13.228 22.094.223 1.248-.551 2.675-1.075 4.056-3.532 7.587-9.231 11.7-17.507 12.927-6.779.958-13.604 1.667-20.261-1.002-1.925-.685-3.485-2.208-5.25-3.437-.588-.409-1.355-1.817-2.308-1.388-.499.089-.615.882-.819 1.177-.275 1.337-.052 2.584-.327 3.922-.186 1.836-.167 3.377-.353 5.214-.103 5.169-3.059 8.79-6.014 12.41-.614.883-1.817 1.356-2.814 1.535-3.198.831-6.601 1.957-10.093 2.583-11.973 2.147-21.289-6.741-21.466-17.784.04-6.96 1.825-14.234 2.907-21.125.506-2.923.513-5.758 1.563-8.521 1.618-3.896 4.03-7.677 5.898-11.617 5.259-9.443 15.698-14.405 26.506-12.996 4.758.692 9.836.297 14.434 1.532 6.568 2.17 11.933 4.814 17.503 7.163"/><path fill="#000" d="M305.118 142.332c-2.149-1.933-4.208-3.367-4.042-6.744.255-2.879-2.009-4.019-4.753-3.527-3.492.625-3.831.171-3.416-3.252.256-2.878-2.731-5.176-5.341-3.936-3.268 1.873-6.197 4.2-9.376 6.572-1.362 1.016-2.385 2.487-3.908 4.047-2.757-3.884-5.22-7.563-7.637-10.993-2.802-4.134-5.604-8.268-8.815-11.813-5.405-5.728-11.06-11.412-16.919-16.8a511 511 0 0 0-17.897-15.08c-8.756-7.188-18.856-11.818-30.254-13.64-8.725-1.27-17.519-1.498-26.269-1.477-3.876-.078-8.002-.112-12.082.104-4.331.26-8.776 1.314-13.266 2.118-2.743.491-5.238.938-7.937 1.679-2.45.696-4.56 1.846-6.92 3.042-4.516 2.096-8.987 4.442-12.869 7.197-1.816 1.356-3.339 2.916-4.906 4.227-1.567 1.31-3.472 2.167-5.289 3.522-7.809 5.261-14.352 11.841-20.306 18.831-3.364 4.208-6.978 8.46-9.798 12.828-3.025 4.662-5.8 9.28-7.988 14.307-2.142 5.277-3.402 11.168-5.25 16.65-2.398 8.155-4.547 16.266-5.064 24.857-.07 1.043-.64 2.175-.915 3.511-.837-.365-1.381-.525-1.72-.979-2.214-3.724-6.314-5.05-10.075-5.922-2.424-.596-5.257-.604-7.752-.157-.997.179-2.52 1.739-2.84 2.826-.754 2.968-1.732 4.689-5.314 4.815-3.831.171-4.151 1.258-2.98 4.912.473 1.203.991 2.655 1.759 4.063-1.247.223-2.495.446-3.448.875-1.157.722-2.814 1.534-3.134 2.621-.274 1.337.583 3.244 1.76 4.063 8.577 6.19 18.818 8.734 28.329 12.954 2.808 1.3 4.369 2.823 4.612 5.613.474 11.246 4.645 21.573 9.02 31.606 3.474 7.876 7.856 15.075 12.033 22.568-1.158.722-2.61 1.24-3.518 1.918-1.816 1.355-3.095 5.704-1.669 6.479 2.31 1.389 4.618 2.779 7.043 3.375 8.065 1.903 16.137.973 24.324-.751 2.699-.741 5.782-.778 8.142-1.973 5.264-2.23 9.849-5.369 10.86-11.216-2.169-3.474-3.883-7.288-4.849-11.235-1.932-7.895-.577-16.122 1.073-24.143.505-2.923 1.259-5.891 1.72-9.064.505-2.923 1.643-5.187.856-8.137-1.529-5.649-2.015-11.228-1.005-17.074.23-1.587.754-2.968.735-4.51s-.582-3.244-1.759-4.063c-.294-.205-.544-.16-.838-.365-.249.045-.748.134-.953.428-2.271 1.694-3.274 4.707-3.78 7.63-.53 4.216-.018 8.502.993 12.699a437 437 0 0 0 1.868 6.104c.563 1.702.332 3.288.352 4.83-.288 7.005-1.368 13.894-2.199 20.739-.511 5.757-1.522 11.604-1.784 17.316-.185 1.836.922 3.698 1.734 5.355 1.197 2.361.487 5.579-1.49 7.478-3.952 3.798-8.647 4.896-13.77 5.041-1.791.063-3.742.67-5.782.778-5.079.394-9.952.495-15.076.639-.748.134-1.586-.231-2.424-.596s-2.014-1.184-1.81-1.478c.115-.793.978-1.72 1.637-2.354.908-.677 2.156-.901 3.109-1.329 3.812-1.713 4.656-4.181 2.692-7.95-4.088-6.994-8.175-13.988-11.764-21.071-2.392-4.723-3.832-9.873-4.977-14.819-1.663-6.397-3.122-13.09-3.788-19.666-.755-7.076-.468-14.081.319-21.175.946-7.638 1.144-15.141 1.84-22.735.256-2.878 1.26-5.891 2.014-8.859 1.145-5.098 2.54-10.241 3.978-15.134.48-1.631 1.548-2.852 2.072-4.234 2.807-8.743 7.674-16.053 13.923-22.838 3.658-4.003 6.977-8.46 10.93-12.258 2.84-2.827 6.313-4.994 9.446-7.615 9.696-7.66 20.634-12.709 31.91-17.303 8.621-3.604 17.582-6.754 27.08-6.91 5.622-.234 11.334.03 16.886.84 6.639 1.128 13.163 3.05 19.847 4.429 7.727 1.449 13.906 5.75 20.085 10.052 6.223 4.551 12.038 9.69 17.647 15.125 6.154 5.593 12.307 11.187 17.552 17.459 8.84 10.521 17.386 20.837 22.299 33.864 2.841 7.217 6.589 13.757 9.429 20.974 1.894 4.811 3.583 9.917 4.728 14.863 2.022 8.394 3.5 16.627 5.272 25.066.359 1.996.512 4.287.371 6.372.045.249.09.499-.115.793-.204.294.09.499.135.749.269 1.497.991 2.655 2.418 3.43.409-.589.569-1.132 1.228-1.765l1.228-1.766q.613-.882 1.362-1.016c.499-.089 1.292.026 1.631.48.045.25.339.455.339.455l.249-.045c.454-.339.909-.678 1.408-.767.454-.339 1.202-.473 1.541-.018.588.409.428.953.812 1.657.659-.633 1.612-1.061 2.61-1.24.499-.089.748-.134 1.042.071.544.16.678.909.518 1.452-.159.544-.613.883-.773 1.426.045.25-.864.928-.819 1.177-.204.294-.659.633-.863.927-.614.883-1.273 1.516-1.638 2.354-1.432 2.059-3.408 3.958-5.385 5.857-.249.045-.204.294-.454.339-5.603 1.776-11.161 3.801-16.802 2.494-5.392-1.352-10.874-3.204-16.151-5.349-2.219-.89-4.029-2.369-5.59-3.892-3.844-4.205-7.235-8.748-10.83-12.997-3.684-4.749-7.573-9.203-11.008-13.996-3.908-5.996-7.612-12.286-10.862-18.915-2.437-4.972-3.627-10.167-5.815-15.183-.723-1.158-.403-2.246-.582-3.244-.518-1.452-1.331-3.109-1.849-4.562-.812-1.657-1.33-3.109-2.347-4.472-1.651-2.023-3.71-3.457-5.77-4.89-5.456-3.144-11.437-4.906-17.577-6.124-3.217-.711-5.936-1.512-9.063-1.725a57 57 0 0 0-9.249.111c-6.076.573-12.223 2.189-18.075 4.01-7.055 2.293-13.048 6.199-18.951 10.604-2.226 1.944-5.04 3.478-7.221 5.671-3.044 3.121-5.749 6.695-8.5 10.021-1.477 1.809-2.999 3.37-3.978 5.09-2.117 3.985-4.188 8.219-6.011 12.408-1.094 2.514.352 4.83 2.821 5.676 4.189 1.825 8.52 1.564 12.85 1.304l4.624-.056.045.25a264 264 0 0 1 19.84-2.78c3.288-.332 6.531-.912 9.908-.744 4.125.033 8.091.611 12.101 1.438 3.608-1.419 6.761-2.498 9.62-3.783 4.515-2.096 4.515-2.096 8.021 1.654 1.899 1.978 7.586 3.535 9.447 2.429 2.11-1.151 3.971-2.257 6.037-3.657 3.224-2.122 4.17-9.76 1.931-12.192-2.533-2.637-2.533-2.637.397-4.964.658-.633 1.567-1.311 2.225-1.944l6.678-5.831c1.688 5.106 2.789 9.802 4.593 14.114 2.322 5.765 4.599 11.281 7.874 16.617 3.704 6.29 8.067 11.947 12.474 17.854 1.401 2.067 2.667 3.385-.147 4.919-.249.045-.07 1.043-.23 1.587-.486 4.465-1.016 8.68-1.752 13.19-.23 1.586-1.208 3.307-1.982 4.733a9.14 9.14 0 0 0-.601 5.258l.045.25.249-.045c1.542-.018 3.332-.082 4.874-.1-.429-.953-.812-1.657-1.241-2.611-.045-.249-.384-.704-.429-.953-.358-1.996.96-3.262 1.938-4.983.774-1.426 1.503-3.102 1.982-4.733s.665-3.467.895-5.053c.116-.793.186-1.836.301-2.629-.045-.25.345-2.38.051-2.585 1.765 1.23 2.827 2.842 4.094 4.16 3.755 3.706 7.439 8.454 11.968 10.734 5.66 2.849 12.389 4.477 18.984 5.356 6.05.72 12.581-.192 17.736-4.463 2.679-2.283 5.359-4.566 7.7-7.302.863-.928 1.433-2.06 2.002-3.192.524-1.381 1.343-2.558 1.912-3.69.364-.838.934-1.97.754-2.968-.179-.998-.812-1.657-1.196-2.361-.044-.25-.339-.455-.588-.41-.25.045-.25.045-.544-.16-.998.179-1.995.357-2.949.785-.179-.998-1.061-1.612-1.854-1.728-.25.045-.544-.16-.749.134-.249.045-.454.339-.454.339-.908.678-1.567 1.311-2.43 2.238l-1.017-1.363c-.295-.205-.339-.454-.589-.41l-.498.09c-.205.294-3.269 1.873-3.224 2.122l-3.359-18.713c-1.702-9.481-3.155-19.008-7.556-27.748-.384-.704-.812-1.657-.991-2.655-.135-.749.185-1.836.639-2.175 3.588-2.96 7.176-5.921 11.058-8.676 3.179-2.372 6.064-4.949 5.801-9.28-.134-.748.729-1.676.595-2.424-.589-.41-.857-1.907-1.491-2.566m-250.82 41.31c-1.74 7.522-.894 15.097-1.092 22.601.045.249-.16.544-.774 1.426-8.942-5.352-19.751-6.764-28.08-12.999-.044-.249.16-.543.07-1.043 1.453-.517 2.95-.785 4.356-1.552 1.158-.722 2.815-1.534 2.93-2.327.115-.794-1.401-2.067-2.08-2.976-.338-.454-.882-.614-1.355-1.817.793.115 1.291.026 2.085.141 1.496-.268 3.332-.081 4.74-.848 1.86-1.106.095-2.335-.379-3.538-1.24-2.611.103-5.169 3.14-5.456 3.493-.625 6.46.131 9.039 3.017 1.266 1.319 3.646 1.665 5.161 2.939 1.088.32 2.354 1.639 2.24 2.432m157.049-12.929c-6.447 4.245-12.51 9.193-19.635 12.53-8.986 4.442-18.331 6.888-28.667 6.678-8.001-.112-15.914.275-23.87.412-5.418-.06-10.88-.37-16.342-.679-.793-.116-1.81-1.479-1.695-2.272-.058-4.625 2.647-8.2 5.148-11.48s5.34-6.107 7.591-9.343c3.07-4.413 6.818-7.917 11.449-10.807 3.019-1.828 5.743-3.861 8.512-5.644 11.257-6.137 23.57-7.827 35.92-6.433 3.966.578 7.977 1.405 11.622 3.07 1.676.73 2.898 1.798 4.324 2.573 1.766 1.229 3.646 1.665 5.411 2.894 3.486 2.209 6.448 5.799 7.913 9.657.902 2.156-.3 2.629-1.867 3.94-1.977 1.899-3.748 3.504-5.814 4.904m88.335-19.939c-1.931 2.148-4.157 4.092-6.088 6.241s-4.158 4.092-6.498 6.829c-1.197-2.361-2.348-4.473-3.046-6.923-1.484-5.4-2.968-10.8-6.358-15.343-.339-.455-.563-1.702-.154-2.291 3.045-3.12 6.133-5.991 9.472-8.907.454-.338.998-.178 2.45-.696-.595 2.424-1.324 4.1-1.554 5.687-.115.793.109 2.04.742 2.699.339.455 1.586.231 2.584.053 4.81-1.892 4.81-1.892 6.825-.707-.16.543-.57 1.132-.774 1.426-1.637 2.353-.87 3.761 1.395 4.901 4.074 2.618 4.208 3.367 1.004 7.031"/><path fill="#000" d="M162.947 259.951c-.25.045-.455.339-.659.634-.979 1.721 1.08 3.154 2.372 3.18 1.042.07 1.995-.358 2.744-.492.499-.09.703-.384 1.157-.723a3.05 3.05 0 0 0 1.024-1.471c.409-.589.819-1.177.934-1.971.115-.793-.019-1.542-.358-1.996l-.294-.205-.249.045c-1.701.563-3.608 1.42-5.264 2.232-.454.339-.953.428-1.407.767m50.726-18.627c.294.204.294.204.543.16a5.37 5.37 0 0 0 4.74-.85c1.362-1.017 2.047-2.943 1.529-4.395-.044-.25-.089-.499-.339-.455l-.294-.205c-1.042-.07-1.701.563-2.36 1.196-.908.678-1.772 1.606-2.68 2.284-.454.339-1.158.723-1.318 1.266-.205.295-.115.794.179.999"/><path fill="#FFEDDC" d="M127.282 208.917c-2.162 3.736-4.324 7.472-5.898 11.617-1.094 2.515-1.306 5.643-1.562 8.522-1.038 7.14-3.118 14.209-2.908 21.125.177 11.043 9.244 19.976 21.466 17.783 3.492-.626 6.646-1.706 10.093-2.582.998-.179 2.155-.902 2.814-1.535 2.955-3.621 5.911-7.241 6.014-12.411-.019-1.542.167-3.378.148-4.92.231-1.586-.082-3.333 1.913-3.691 2.495-.447 4.483 2.029 6.702 2.919 6.657 2.669 13.481 1.96 20.261 1.002 8.276-1.227 13.93-5.589 17.507-12.927.569-1.132 1.299-2.808 1.075-4.056-.906-9.366-5.829-16.725-13.228-22.094-1.81-1.478-4.029-2.368-6.248-3.258-5.57-2.349-10.89-4.742-16.576-6.298-4.598-1.236-9.676-.84-14.434-1.532-11.441-2.069-21.88 2.894-27.139 12.336m62.445-65.285c-12.394-1.64-24.661.303-35.918 6.442-3.064 1.58-5.744 3.863-8.513 5.648-4.631 2.891-8.38 6.396-11.451 10.81-2.251 3.237-5.091 6.064-7.593 9.346-2.706 3.576-5.456 6.902-5.15 11.483.134.748 1.195 2.361 1.694 2.271 5.462.308 10.923.617 16.34.675 7.956-.139 15.868-.528 23.869-.417 10.085.251 19.724-1.993 28.665-6.687 6.831-3.543 13.189-8.289 19.637-12.536 1.817-1.356 3.633-2.712 5.405-4.318 1.567-1.311 3.019-1.829 2.661-3.825-.671-3.743-2.428-7.806-5.415-10.103-3.325-2.752-7.424-4.077-10.909-6.285-4.234-2.073-8.564-1.812-13.322-2.504"/><path fill="#EB8A3F" d="M47.075 177.973c-2.577-2.886-5.544-3.641-9.036-3.015-2.993.537-4.382 2.846-3.141 5.457.473 1.203 2.237 2.431.376 3.538-1.407.767-2.993.537-4.739.85-.748.134-1.541.019-2.085-.141.428.953 1.017 1.363 1.356 1.817.927.864 2.193 2.182 2.078 2.975-.071 1.043-1.728 1.855-2.93 2.328-1.407.768-2.904 1.036-4.356 1.554.045.25-.16.544-.07 1.043 8.326 6.233 19.09 7.393 28.074 12.993.365-.838.819-1.177.774-1.427.2-7.504-.643-15.079 1.098-22.603.115-.793-1.15-2.111-2.033-2.726-1.72-.979-4.1-1.325-5.366-2.643m251.152-33.714c-2.264-1.139-3.281-2.502-1.393-4.901.409-.589.569-1.132.774-1.427-2.015-1.184-1.97-.934-6.825.709-.703.384-1.995.358-2.583-.051-.634-.659-.857-1.907-.742-2.7.186-1.837.915-3.513 1.555-5.688-1.247.224-1.995.358-2.449.697-3.09 2.872-6.429 5.789-9.474 8.911-.454.339-.23 1.586.153 2.29 3.389 4.543 4.872 9.943 6.354 15.343.652 2.201 2.097 4.517 3.043 6.923 2.636-2.533 4.568-4.682 6.5-6.832s4.158-4.093 6.09-6.243c3.614-4.254 3.48-5.002-1.003-7.031"/><path fill="#F194A6" d="M198.629 183.242c-1.567 1.312-2.974 2.079-3.089 2.872-.16.544.473 1.203.812 1.658.633.659 1.176.819 1.809 1.478.883.614 1.97.934 2.968.755l.499-.089s.249-.045.204-.294c.41-.589.864-.928 1.024-1.472s.07-1.043-.019-1.542-.383-.703-.972-1.113a14.5 14.5 0 0 0-3.236-2.253m8.954-.317q.068.374 0 0c1.471 1.024 2.852 1.549 4.598 1.236l.25-.045c-.09-.499.025-1.292-.064-1.792l-.358-1.996c-.518-1.452-2.033-2.726-3.824-2.662l-.748.134-.205.295-.96 3.262c.045.25-.16.544.134.749.09.499.633.659 1.177.819m-2.642 5.365c.09.499-.071 1.043.063 1.792l1.747-.314c.499-.089 1.203-.473 1.657-.812a3.06 3.06 0 0 0 1.024-1.471l-.09-.499c-.045-.25-.339-.454-.633-.659-.588-.41-1.426-.775-2.219-.89l-.25.045-.249.045c-.455.339-.909.678-1.069 1.221-.16.544-.07 1.043.019 1.542"/><path fill="#EF92A4" d="M171.259 234.508c.864-.928 2.022-1.65 3.224-2.124 1.906-.857 4.151-1.259 6.147-1.617 1.995-.358 3.991-.716 5.826-.53 3.083-.038 4.777 2.234 4.566 5.362-.116.794.019 1.542-.141 2.086-.365.838-1.113.972-1.772 1.605-.25.045-.454.339-.704.384-.953.429-2.2.652-3.243.582-1.291-.026-2.289.153-3.581.127-2.335-.096-4.669-.193-7.093-.788-1.087-.32-2.468-.845-3.351-1.46-.588-.409-.972-1.113-.812-1.657-.134-.748.231-1.586.934-1.97m-30.74 10.923a32 32 0 0 0 2.36-1.196c1.203-.473 3.083-.037 4.349 1.281.633.659.428.953.313 1.746-.115.794-.275 1.337-.64 2.175-.614.883-1.273 1.517-2.181 2.195-.659.633-1.318 1.266-2.271 1.695-1.407.767-2.769 1.784-3.883 2.756-2.68 2.284-5.967 2.616-9.139 2.155-2.38-.346-3.031-2.547-1.304-4.402.863-.928 2.021-1.651 3.134-2.623l4.836-3.185c.703-.384 1.612-1.062 2.565-1.49.204-.295.454-.339.703-.384.16-.544.659-.633 1.158-.723"/><path fill="#C06822" d="M174.591 234.426c-.205.294-.455.339-.659.633-.864.928-.142 2.086.901 2.156q2.82.654 5.507.558c2.04-.108 4.08-.217 6.031-.824.748-.134 1.407-.768 1.772-1.606.569-1.132.141-2.085-1.151-2.111-1.542.019-3.377-.167-5.168-.103-1.541.018-2.788.242-4.33.261-.748.134-1.541.019-2.04.108-.41.589-.659.634-.863.928m-29.09 12.944c-.044-.25.205-.295.16-.544s-.339-.454-.633-.659l-.294-.205-.499.09q-1.497.268-2.859 1.285c-.703.384-1.362 1.017-2.066 1.401-1.906.857-3.723 2.213-5.629 3.07-.908.678-2.11 1.151-3.019 1.829-.454.339-.819 1.177-.48 1.631.678.909 2.424.596 3.422.417 1.202-.474 2.36-1.196 3.268-1.874.909-.678 1.862-1.107 2.815-1.535 1.157-.723 2.565-1.49 3.428-2.418.41-.588 1.113-.972 1.523-1.561.454-.339.703-.383.863-.927"/><path fill="#FA0" d="M148.054 62.3c1.682.947 3.764 2.112 5.771 3.36 3.538 2.356 7.077 4.713 10.541 7.151 4.515 3.255 7.751 7.737 9.913 12.733 1.648 3.922.33 7.966-2.039 11.194-3.036 4.116-7.174 6.165-12.571 6.155-8.839-.025-16.483-3.307-23.118-8.665-4.283-3.343-8.356-7.242-10.456-12.632-.175-.462-.351-.924-.452-1.468-.675-4.979-.645-9.91.716-14.816 1.758-6.645 8.277-7.854 13.658-6.356 2.469 1.071 4.937 2.142 8.037 3.344"/><path fill="#008D45" d="M173.169 70.098c1.799.004 3.604.163 5.403.167 8.914-.056 17.834.043 26.741-.17 5.078-.132 10.13-.89 15.189-1.49 3.503-.38 4.596-.426 8.721.968.303-2.125-.386-3.661-2.192-3.82-4.323-.526-8.734-1.282-13.025-1.025-13.178.937-26.246.775-39.427-.243-1.412-.098-2.899-.115-4.385-.131-.088-.231-.176-.463-.339-.612 2.828-1.604 5.561-3.595 8.638-4.818 3.696-1.405 7.73-2.198 11.615-2.829 2.485-.416 5.163-1.857 7.801-.48.237.069.68-.576 1.067-.67a7.4 7.4 0 0 1 2.267-.016c.943.118 1.975.466 2.986.346 1.324-.133 2.623-.891 3.953-.868 2.886-.198 5.778-.24 8.683.031 1.567.092 2.999.658 4.424 1.069 2.849.82 5.705 1.797 8.405 2.78 1.112.424 2.225.847 3.113 1.514 2.257 1.628 4.521 3.412 6.703 5.12.97.743 1.171 1.83.036 2.737-2.041 1.728-4.081 3.456-6.202 5.108-3.413 2.567-6.907 5.06-10.564 7.401-1.523 1.002-3.29 1.78-4.994 2.164-7.369 1.479-14.77 2.177-22.099.838-7.96-1.47-15.217-4.846-20.859-10.793-.495-.605-1.22-1.123-1.945-1.64.143-.32.136-.475.286-.638"/><path fill="#C06822" d="M162.213 47.237c2.103-5.877 4.28-11.835 6.302-17.787.56-1.588 1.083-2.157 2.902-1.685 3.48.951 6.873 1.671 10.429 2.54 1.424.411 1.57 2.048.373 3.35-1.715 2.027-3.511 3.979-5.226 6.006-2.007 2.508-4.096 4.942-5.941 7.6-.886 1.289-1.208 2.945-1.93 4.384-.505 1.038-.928 2.15-1.595 3.039-1.328 1.933-2.893 3.797-4.458 5.661-.823.895-1.377 2.64-3.296 1.623-2.644-1.533-2.976-1.989-2.061-4.452.709-1.75 1.337-3.576 2.047-5.327.716-1.594 1.507-3.27 2.454-4.952-.075.081-.156.006 0 0"/><path fill="#96FF00" d="M174.011 103.626c4.933-5.525 7.576-13.458 5.323-20.64-.088-.231.137-.475.355-.876 2.075 1.01 4.15 2.019 6.138 2.797 5.562 2.117 11.281 4.227 17.377 4.13 3.36-.06 6.551-.428 9.899-.802 6.926-.834 13.501-2.594 19.022-7.125 1.36-1.152 2.801-2.229 4.161-3.38 1.055-.983 1.871-2.034 3.007-2.942 2.876-2.31 5.596-4.613 8.391-6.998l.299-.325c.069-.238-.1-.544-.188-.775-1.841-2.896-4.199-5.067-6.719-7.388-2.433-2.09-5.452-3.217-8.389-4.268-8.812-3.156-17.884-5.048-27.191-5.053-6.334.027-12.71.918-19.024 1.414-4.76.276-9.168 1.476-12.867 4.68-.15.163-.618.182-1.393.371.511-.882.723-1.438 1.091-2.001.947-1.682 2.437-3.465 2.828-5.36.39-1.893 1.575-3.507 2.685-5.04 2.355-3.54 4.955-6.855 7.23-10.47.804-1.363 1.669-3.12.905-4.575-.426-.843-1.307-1.354-2.032-1.872-.882-.51-1.607-1.028-2.564-1.458-1.837-.941-3.506-1.576-5.555-1.96-1.812-.317-3.513-1.732-5.032-2.53-1.838-.94-3.842-.232-4.62 1.756-.989 2.545-1.979 5.09-2.887 7.709-.492 1.35-.827 2.694-1.162 4.038-.485 1.507-.808 3.163-1.455 4.52-1.794 3.908-3.906 7.672-5.618 11.655-1.07 2.47-1.822 5.083-2.656 7.621-3.405-1.032-7.205-2.126-10.848-3.227-5.068-1.511-10.185-2.316-15.247.084-.231.088-.468.02-.618.183-.231.087-.368.563-.674.732-.449.488-1.06.826-1.591 1.24-2.42 1.977-4.109 4.63-5.479 7.424-.212.557-.58 1.12-.872 1.601-.212.556-.261 1.263-.235 1.887-.104 1.257-.053 2.506.074 3.674.461 3.58 1.697 6.971 3.469 10.106 2.705 4.894 6.328 9.282 9.802 13.832 1.32 1.666 3.102 3.157 4.872 4.336 3.538 2.357 7.084 4.87 11.264 5.713.081.075.081.075.237.069 3.676 1.881 7.644 3.282 11.811 3.813 1.731.241 4.092.613 5.709-.002 1.767-.777 3.683-1.718 5.199-2.876.605-.494 1.136-.907 1.66-1.477.761-.501 1.435-1.233 2.108-1.965m4.564-44.627c3.696-1.405 7.73-2.199 11.614-2.829 2.485-.416 5.163-1.857 7.801-.48.237.068.68-.576 1.067-.67a7.4 7.4 0 0 1 2.267-.016c.944.117 1.975.466 2.986.346 1.324-.133 2.623-.891 3.953-.868 2.886-.198 5.778-.24 8.682.03 1.568.092 3 .659 4.424 1.07 2.85.82 5.706 1.797 8.406 2.78 1.112.423 2.225.847 3.113 1.514 2.257 1.628 4.521 3.411 6.703 5.12.969.742 1.171 1.83.035 2.737-2.04 1.728-4.08 3.455-6.201 5.108-3.413 2.567-6.908 5.059-10.564 7.401-1.523 1.002-3.29 1.78-4.994 2.163-7.369 1.479-14.77 2.177-22.098.838-7.96-1.47-15.217-4.846-20.86-10.792-.494-.605-1.22-1.123-1.945-1.64-.006-.157.143-.32.137-.476 1.799.004 3.604.164 5.403.167 8.913-.056 17.833.043 26.74-.17 5.078-.132 10.13-.89 15.189-1.49 3.504-.38 4.597-.425 8.721.968.303-2.125-.386-3.66-2.192-3.82-4.323-.525-8.734-1.281-13.025-1.025-13.178.937-26.245.775-39.426-.243-1.412-.098-2.899-.114-4.386-.131-.087-.231-.175-.462-.338-.612 3.052-1.848 5.704-3.914 8.788-4.98m-16.52-11.755a478 478 0 0 0 6.383-17.711c.56-1.588 1.084-2.158 2.902-1.685 3.481.95 6.874 1.67 10.429 2.54 1.425.41 1.571 2.047.373 3.349-1.714 2.027-3.511 3.98-5.225 6.006-2.008 2.509-4.097 4.942-5.942 7.6-.885 1.29-1.208 2.945-1.93 4.384-.504 1.038-.928 2.15-1.595 3.039-1.327 1.933-2.892 3.797-4.458 5.661-.823.895-1.376 2.64-3.295 1.623-2.645-1.533-2.976-1.989-2.062-4.452.71-1.75 1.338-3.576 2.048-5.326zm-2.543 55.653c-8.838-.024-16.482-3.306-23.117-8.664-4.284-3.343-8.356-7.243-10.456-12.632-.176-.462-.351-.924-.452-1.468-.675-4.979-.645-9.909.716-14.816 1.758-6.645 8.277-7.854 13.657-6.356 2.612.752 5.163 1.898 8.181 3.025 1.682.947 3.763 2.113 5.77 3.36 3.539 2.356 7.078 4.713 10.542 7.151 4.514 3.256 7.75 7.737 9.912 12.733 1.649 3.922.331 7.966-2.038 11.194-3.173 4.591-7.311 6.64-12.715 6.473"/><path fill="#EA5A28" d="M159.748 78.322c-.163-.15-.4-.218-.638-.287-.231.088-.462.176-.612.339L157.001 80c-.149.162-.299.325-.367.562-.137.475-.036 1.02.364 1.237.244.225.637.287.95.274.55.055 1.181.186 1.643.01.618-.182 1.828-1.171 2.033-1.884.131-.631-1.232-1.436-1.876-1.878m7.694 2.576c-.156.007-.387.095-.544.101-.462.176-1.155.44-1.373.84-.361.719.364 1.236.852 1.686l.163.15c.081.074.237.068.319.143a1.73 1.73 0 0 0 1.386-.527c.673-.732.446-2.444-.803-2.393m2.646 7.245c-.231.088-.544.1-.612.338a.86.86 0 0 0 .026.625c.176.462.27.85.52 1.23.257.538.589.993 1.139 1.049s.924-.352 1.223-.677.599-.65.579-1.12c-.064-1.562-1.558-1.734-2.875-1.445m-9.863-.216a1.9 1.9 0 0 1 1.383 1.272c.269.85.077 1.875-.684 2.376-.53.413-1.861.39-2.343.097-.725-.518-.608-1.461-.246-2.18.218-.4.654-1.201 1.035-1.452.387-.094.618-.182.855-.114m7.2 7.683c-.224.243-.693.263-1.331-.024a3.16 3.16 0 0 1-1.057-.973c-.338-.612-.146-1.637.472-1.82.306-.168 1.474-.295 1.725.086.582.836.796 2.236.191 2.73m-18.846.076.15-.163c.53-.413 1.461-.608 2.024-.24.719.361 1.008 1.68.328 2.255-.524.57-1.76.934-2.33.41-.419-.687-.458-1.624-.172-2.262m2.415-5.888c-.575-.68-.09-2.187.203-2.669.218-.4 1.236-.364 1.561-.065.644.443.465 1.78.335 2.412-.212.557-1.617.615-2.099.322m-5.699 2.114-.074.08c-.45.489-1.787.31-2.349-.058-.638-.287-.771-1.611-.078-1.875.612-.338 1.636-.146 2.267-.016.638.287.602 1.305.234 1.868m16.284 7.93c-.225.244-.706-.049-1.256-.104-.156.006-.238-.069-.394-.062-1.038-.505-1.096-1.91.066-2.194 1.392-.37 1.75.71 1.72 1.885-.068.237-.062.394-.136.475"/></svg>