<svg xmlns="http://www.w3.org/2000/svg" width="1389" height="1024" fill="none"><rect width="100%" height="100%" fill="#FFB000"/><path fill="#FFD117" d="M242.915 78.613c13.514-5.89 32.113-17.01 46.759-18.476l36.952-20.528c21.216-14.145 50.566-20.307 73.903-30.679 51.77-23.009 109.691-31.936 164.114-46.19 29.46-7.715 60.546-9.597 90.44-15.51 17.602-3.481 36.95-6.76 54.971-6.158 72.629 2.42 144.666 8.854 216.463 20.072 19.401 3.031 37.881 10.816 56.91 15.853l.145.038c31.638 8.374 64.168 16.986 94.288 29.728 24.54 10.384 51.52 19.498 74.02 33.872 33.17 21.194 65.11 43.68 95.91 68.315 29.19 23.352 55.13 48.837 79.49 77.096 12.69 14.721 28.95 25.79 41.97 40.259 13.71 15.232 18.7 33.724 18.7 53.602 0 20.132-4.1 39.47-4.1 59.419 0 24.239 4.1 47.918 4.1 72.307 0 94.33 4.82 198.837-43.56 284.435-12.16 21.518-27.58 40.328-37.64 63.182-7.43 16.893-15.33 33.86-23.61 50.409-8.44 16.879-13.68 37.55-24.52 53.032-15.1 21.579-32.92 40.487-48.24 61.7-18.32 25.366-39.69 52.743-62.84 73.789-14.42 13.11-36.82 20.53-54.06 29.31-15.6 7.95-29.71 17.06-46.76 22.13-28.73 8.53-58.117 14.81-86.217 24.17-19.789 6.6-39.138 5.06-59.989 6.73-36.082 2.89-72.575 1.94-108.915 1.94-49.36 0-97.067-8.06-146.096-14.37-100.259-12.9-200.963-29.88-292.19-75.498-22.824-11.412-45.515-27.985-65.007-44.479-46.783-39.585-92.347-80.102-138.226-120.662-27.38-24.206-51.61-53.233-72.877-82.799-24.88-34.591-33.579-73.35-48.128-112.451C16.372 598.06 9.29 563.256 4.327 527.277c-7.429-53.859-7.069-107.35 15.396-157.272 8.496-18.878 18.33-36.805 27.714-55.313 4.806-9.479 8.506-19.861 14.37-28.74 4.466-6.763 10.59-12.029 14.826-18.932 17.668-28.792 35.792-55.617 50.865-85.764 5.968-11.936 12.319-23.214 18.932-34.898 9.735-17.198 29.201-29.884 44.707-41.514 15.524-11.643 34.103-18.526 51.778-26.23"/><path fill="#FFC60B" d="M454.486 146.91c22.481-12.507 51.465-9.862 76.347-10.27l23.941-13.378C593.828 97.19 610.867 61.8 664.613 71.368c13.729 2.444 28.07 2.565 41.479 6.733 15.915 4.946 31.913 11.962 48.315 14.948 20.282 3.693 40.979 2.51 61.534 2.51 48.052 0 101.215-5.988 147.682 7.76 65.687 19.435 137.847 58.034 166.597 124.153 11.86 27.279 17.55 58.61 18.01 88.322.69 44.947 5.79 87.723-11.86 130.543-10.06 24.421-33.27 42.958-33.27 70.749 0 26.899 10.26 52.484 10.26 79.649 0 40.073-4.06 75.886-12.31 115.024-8.34 39.54-22.3 79.419-49.34 109.889-44.36 49.97-118.145 72.917-183.237 72.917-30.425 0-67.139-4.741-95.492-16.432-23.106-9.528-38.571-13.429-61.534-3.081-10.406 4.689-19.587 12.004-29.285 17.915-14.94 9.106-30.049 16.949-45.533 24.987l-1.985 1.03c-14.841 7.707-35.127 8.449-51.393 10.042-17.865 1.75-36.942-.707-54.583-3.651-41.334-6.899-82.576-31.456-111.787-60.707-12.283-12.301-20.829-26.974-30.083-41.537-5.367-8.445-13.577-14.455-19.942-22.023-8.788-10.451-20.017-18.848-26.778-30.696-3.731-6.539-15.335-10.725-20.967-15.976-8.137-7.586-18.321-12.184-26.437-20.311-28.341-28.38-54.556-58.108-66.434-97.451-12.454-41.25-5.527-82.019 8.204-122.213 12.37-36.208 27.272-71.977 31.793-110.459 4.627-39.384 10.323-81.187 29.855-116.394 24.012-43.28 50.562-80.442 94.466-104.868 21.35-11.877 42.581-23.954 63.928-35.83"/><path fill="#FFD117" d="M655.758 296.293c-12.931-8.627-29.931-13.725-45.123-16.855-14.11-2.907-27.829 4.815-40.347 10.566-21.879 10.05-37.184 27.39-50.276 47.042-14.939 22.426-22.624 45.624-22.624 72.451 0 16.414 3.953 32.037 4.525 48.049.337 9.446 1.207 20.561-2.263 29.433-13.195 33.745-23.017 66.468-18.602 103.142 6.049 50.242 42.458 78.244 84.213 98.362 62.252 29.996 126.128 40.014 194.066 24.905 21.352-4.748 32.201-36.728 53.041-36.728h.81c37.851.001 73.094.003 97.731-31.698 26.913-34.627 35.782-83.349 28.155-126.285-2.478-13.946-5.209-30.569-12.318-43.018-4.206-7.367-10.329-16.752-10.809-25.408-1.564-28.178.779-57.169 0-86.035-.724-26.806-22.891-59.875-44.746-74.715-20.663-14.032-42.401-22.641-67.873-22.641-8.359 0-20.093-1.979-28.154.503-8.191 2.522-15.973 5.959-24.887 6.289-30.268 1.122-50.394 22.641-81.311 22.641z"/></svg>