<svg xmlns="http://www.w3.org/2000/svg" width="439" height="618" fill="none"><path fill="#157433" d="M45.665 489.249c-10.499 3.702-18.498 8.803-30.097 10.204-12.499 1.5-25.097.7-37.496-1.301-9.9-1.5-19.698-3.801-29.697-3.401-10 .4-20.398 3.601-26.797 11.304-2.9 3.501-4.9 7.703-6.5 11.904-2.3 5.902-4.2 12.304-3.2 18.706 3.2 20.807 27.098 21.007 40.897 31.211 8.199 6.102 12.898 15.705 19.298 23.707 10.998 13.605 27.497 22.308 44.695 25.209s35.197.4 51.595-5.602c6.3-2.301 12.599-5.202 19.298-5.402 6-.2 11.799 1.701 17.498 3.301 16.498 4.602 33.797 7.103 50.895 5.502 9.499-.9 18.998-3.101 27.897-6.702 8.799-3.601 15.799-7.303 25.398-9.003 10.399-1.801 21.198-1.1 31.596.6 14.599 2.501 28.898 7.002 43.496 9.603 11.799 2.101 23.798 2.901 35.797 3.501s24.097.801 35.796-1.8c40.096-9.103 77.192-49.417 64.393-92.331-7.099-23.808-31.796-41.714-56.394-43.314-17.198-1.101-35.396 1.7-52.595 3.201-18.098 1.6-36.196 3.501-54.294 4.701-18.698 1.201-37.496 1.701-56.294.4-17.399-1.2-34.197-5.902-51.395-7.402-16.399-1.4-32.797-1.2-49.095.7-18.598 2.001-36.897 6.202-54.695 12.504"/><path fill="#B58B76" d="M195.95 205.855c-.1 8.303-1.399 16.406-3.099 24.508-.9 4.302-2.3 8.503-2.9 12.805-.6 3.701-2.6 6.702-4.199 10.003-.1.2-.2.3-.1.5 0 .2.2.4.399.5.7.6 1.4 1.201 2.2 1.701.3.2.6.5 1 .5q.45 0 .9-.3c2.9-1.501 5.3-3.601 8.299-4.802 3.6-1.4 5.8-3.001 8.399-5.602 2.9-2.901 7.2-5.001 10.899-6.702 2.4-1.1 4.9-2.001 7.2-3.101 3.299-1.6 6.399-3.501 9.499-5.502 14.998-9.803 28.597-21.607 43.495-31.61.9-.6 1.9-1.201 3-1.201 1.6 0 2.8 1.301 3.9 2.401l5.399 6.002c.5.6 1.1 1.201 1.4 2.001.8 1.9-.2 4.101-1.5 5.702-3 3.801-7.499 6.102-11.799 8.302-13.198 6.603-24.197 13.505-35.896 22.608-7.199 5.602-17.098 8.803-24.698 13.705-8.699 5.601-17.798 10.703-25.997 17.005-3 2.301-6.999 5.702-7.299 9.804-.2 3.901 0 7.802-.5 11.703-1 8.803-2.9 17.506-6.8 25.609-2.699 5.602-6.299 10.704-8.299 16.605-1 3.001-1.6 4.702.1 7.203 2 2.901 4.2 5.702 6.1 8.703 1.699 2.701 3.399 5.402 4.299 8.503 1 3.601.9 7.502.7 11.303-.4 6.403-1.1 12.805-2 19.107-1.4 8.903-3.299 17.906-2.999 26.909.2 9.003 2.499 17.806 3.799 26.609.7 4.501 1.1 9.103.8 13.704-.3 4.702-.3 8.303.4 13.004 3.3 23.908 11.499 47.316 10.799 71.424-2.4 1.101-5.199.5-7.599-.7s-4.6-2.701-7.1-3.401c-3.799-1-7.899 0-11.698 1.1-6.3 1.901-12.599 4.202-19.298 4.602-1.9.1-7 .8-7.9-1.601-.9-2.2 3.3-5.402 4.8-6.802 2.3-2.201 4.999-4.101 7.199-6.302 7.199-7.303 9.699-18.006 10.999-28.21 1.9-16.005 1.3-32.31-1.7-48.116-2.799-14.504-.3-28.809.7-43.414.1-1.3.1-2.701-.4-3.801-.6-1.401-1.8-2.401-2.999-3.301-18.999-14.305-39.996-26.409-56.195-43.815 6.3-.2 12.599-1.3 18.698-3.201 1.3-.4 2.6-.8 3.9-.6 1 .2 1.8.8 2.7 1.4 4.999 3.501 9.899 7.003 15.198 10.004 2.3 1.3 4.6 2.5 6.699 4.001 2.1 1.5 4.4 2.501 7.1 2.101.4-.1.8-.1 1.1-.401.3-.3.5-.7.6-1 1.599-4.701 1.599-9.803 1.599-14.705 0-3.101 0-6.302-.8-9.303-1.699-6.102-5.799-9.903-2.399-16.405 1.6-3.001 4.099-5.502 6.199-8.203 8.999-11.604 11.399-26.909 12.299-41.614.3-4.101.4-8.203-.4-12.104-.6-2.901-1.8-5.702-2.5-8.703-1.2-5.402-.5-11.104.6-16.605 3.1-15.405 9.199-30.21 17.998-43.315 1.3.3 2.7-.3 4-.5s3 0 3.599 1.2c.1.801.1 1.501.1 2.101"/><path fill="#000" d="M154.955 340.9c2.799 2.401 2.899 5.902 3.099 9.203.6 8.703.9 17.406 1.4 26.009.1 2 .4 4.001.6 6.402-1.9-.5-4.299-.8-6.199-1.801-7.299-4.001-14.499-8.302-21.698-12.504-1.6-.9-3.2-1.9-4.599-3.001-.7-.6-1.4-1.4-1.8-2.301-.7-1.8-1.6-2.3-3.6-1.6-4.7 1.7-9.499 3.101-14.698 4.801 1.299 1.101 2.599 2.201 3.999 3.202 3.8 2.6 7.699 5.001 11.399 7.702 7.399 5.402 14.798 10.904 22.198 16.306 3.299 2.5 6.799 4.801 9.999 7.502 2.3 2.001 4.599 4.301 4.799 7.703.4 5.501.9 11.003 1.2 16.505.3 5.802.1 11.704.5 17.506.2 2.601 1.6 5.002 1.8 7.602.6 7.403.8 14.905 1.3 22.308.3 4.201.9 8.303.9 12.504.1 13.304-3.6 25.909-2.1 39.213.5 4.001 1.2 8.503-1.1 11.904-2.8 4.302-8.799 4.702-13.399 7.102-2.099 1.101-3.999 2.601-5.999 3.802-2.1 1.2-4.5 2-6.799 1.4s-4.2-3.001-3.7-5.302c.4-1.6 1.9-2.7 3.3-3.701 4.199-3.001 8.399-5.902 11.598-9.903 7.4-9.403 7.5-22.408 7.5-34.312 0-6.602.2-13.204-.3-19.806-.6-7.903-2.2-15.905-1.8-23.908.4-7.503-1-14.905-1.7-22.408-.4-4.601-.6-9.303-.4-14.004.1-2.801 1.1-5.502 1.5-8.203.1-.7-.7-1.801-1.4-2.301-7.099-4.801-14.398-9.403-21.498-14.305a988 988 0 0 1-23.397-16.805c-2.2-1.601-4-3.801-6-5.602-.6-.5-1.6-1.1-2.2-1-14.898 3.101-29.696 1.4-44.295-1.901-14.998-3.401-28.597-10.003-40.396-19.807-5.4-4.401-9.999-9.903-14.998-14.804-3.5-3.302-6.7-6.803-8.2-11.504-2-6.202-5.4-11.404-10.799-15.005-5.2-3.501-10.699-6.002-17.198-6.102-8.399-.2-16.798-.5-25.097-1.501-7.4-.9-14.999-1.9-21.298-6.602-5.4-4.001-9-9.603-12.399-15.305-5.099-8.603-7.199-18.106-6.999-27.909.1-5.102 1.4-10.304 2.999-15.206 2.1-6.402 4.5-12.804 7.7-18.706 3.9-7.202 9.099-13.604 15.698-18.606 3.2-2.401 6.1-5.202 9.2-7.703 1.1-.9 2.299-1.7 3.599-2.3 4.9-2.401 9.899-4.702 14.798-7.003.6-.3 1.2-.8 1.6-1-3.8-4.802-7.5-9.403-11.099-14.005-4.5-5.802-6.899-12.604-7.899-19.806-.6-4.602-1.3-9.103-1.6-13.705-.4-6.202 1.5-12.104 3.9-17.706 1.8-4.001 4.4-7.702 6.7-11.504 1.299-2.1 2.599-4.3 3.999-6.402.7-1 1.5-1.9 2.4-2.6 3.2-2.401 6.399-4.702 9.599-7.003.3-.2.5-.5.7-.6 5.499-2.3 11.098-4.501 16.598-6.802 3.6-1.5 7.2-3.001 10.799-4.602 3.5-1.6 6.999-3.2 10.199-5.202 7.399-4.801 15.498-8.602 21.698-15.205.5-.5 1.1-1.1 1.5-1.7 2.8-5.002 5.199-10.204 8.299-15.005 2.5-4.001 4.8-8.403 8.999-11.104 3.7-2.4 7.099-5.302 10.999-7.302 4.6-2.501 9.499-4.302 14.298-6.502 4.6-2.001 9.1-4.102 13.699-6.103 1.5-.6 3.1-1.1 4.7-1.3 6.399-.8 12.798-.4 19.197 0 3.6.3 7.3-.2 10.899-.9 11.199-2.201 21.498.4 31.397 5.502 2.7 1.4 5.5 2.9 8.199 4.501 7.2 4.302 12.699 10.003 15.099 18.306 1 3.501 2.799 6.903 3.499 10.404.6 3.6.3 7.502.2 11.203 0 2.001-.5 3.902-.9 6.402 1.9-1.9 3.3-3.4 4.9-4.801 6.299-5.602 12.499-11.204 18.898-16.706 7.899-6.802 17.198-11.503 26.297-16.505 2.5-1.4 5-2.901 7.6-4.302 10.899-5.501 22.297-8.803 34.696-9.303 19.798-.7 35.097 7.503 47.595 22.108 5.5 6.402 10.099 13.304 12.199 21.407 1.7 6.702 2.4 13.804 3 20.807.3 4.001-.2 8.203-.6 12.304-.7 7.802-3.5 15.005-6.799 21.907-3.4 7.103-7 14.005-10.299 20.707 4.099 4.101 8.399 8.003 12.198 12.404 2.7 3.101 4.8 6.902 7 10.404 3.999 6.302 9.599 10.903 15.698 14.905 2 1.3 4.5 1.7 6.799 2.6 3.1 1.201 6.3 2.301 9.3 3.702 4.099 1.8 8.199 1.6 12.298 0 .5-.2 1.1-.2 1.7-.2 2.9-.1 5.9-.2 8.799-.4 2.4-.201 4.5.2 6.7 1.4 11.298 6.102 16.898 15.905 19.298 28.109 2.499 12.504 2.199 24.809-3.2 36.412-2.4 5.202-5.999 9.804-9.599 14.405-5.1 6.502-10.899 12.604-18.098 16.806-5.3 3.101-11.199 5.102-16.799 7.702l-.6.201c1.3 4.401 2.9 8.702 3.7 13.104 1.6 9.303 0 18.306-3.999 26.909-3 6.402-7.6 11.404-12.099 16.505-10.199 11.704-23.098 19.607-36.897 26.309-14.098 6.802-28.797 11.704-43.795 15.805-5.9 1.601-11.899 2.901-17.898 3.802-6.1.9-12.299 1.6-18.399 1.7-9.199.2-18.398.1-27.597-.5-4.799-.3-9.499-2.001-14.198-3.001-.9-.2-1.7-.6-2.9-1.1.4 3.701 1.1 7.402 1.3 11.203.2 3.001-.5 6.002-.6 9.103-.3 8.003-.5 15.906-.5 23.908 0 15.906.7 31.911 2.3 47.716.7 7.003 1.6 14.005 2.399 21.007.7 5.302 1.3 10.604 2 16.006l2.7 21.607c.7 5.702 1.4 11.504 3 17.106.6 2.2 1.2 5.001-.5 6.502-1.8 1.6-4.9.3-6.1-1.901-1.1-2.201-.9-4.702-.9-7.202.3-17.406-7.499-34.312-7.899-51.618-.3-10.303-2.1-20.406-3.599-30.61-.8-5.502-1-11.203-1.4-16.705-.6-9.503-1.1-19.007-1.4-28.61-.2-4.901.3-9.803.3-14.705 0-3.401-.2-6.902-.6-10.303-.7-6.302-.9-12.604-.3-18.906.1-.601-.3-1.301-.7-1.801-1.6-1.901-3.2-3.601-4.899-5.402-.2-.2-.4-.4-.4-.6.4-3.701-2.4-6.902-1.5-10.804.6-2.3 1.1-4.801.9-7.102-.7-7.403 2.999-13.204 6.599-19.006 1.9-3.001 4.5-5.602 6.199-8.703 1.3-2.201 2-4.902 2.3-7.503.7-5.302.9-10.603 1.3-15.905.1-1 .4-2.001.4-3.001s-.1-2.101-.6-2.901c-1.6-2.701-1.5-5.202 1.1-7.002 5.199-3.602 10.499-7.103 15.898-10.404 5.9-3.601 12.099-6.802 17.998-10.203 13.699-7.903 27.498-15.806 41.096-23.908 5.3-3.201 10.199-7.003 15.299-10.504 5.399-3.701 10.699-7.402 15.998-11.103.3-.2.5-.401.4-.301-3.3-3-6.599-5.901-10.299-9.203-2.1 1.601-5.399 4.402-8.899 6.903a2349 2349 0 0 1-25.697 17.906c-8.2 5.602-16.399 11.303-24.798 16.705-6.499 4.102-13.298 7.803-19.998 11.504-2.2 1.2-4.499 2.301-6.799 3.201-2.4.9-4.8 1.801-7.299 2.301-2.7.6-6.6-4.702-5.3-7.302 1.6-3.302 2.4-6.803 3-10.404.6-3.301 2.1-6.502 3-9.703 1.799-6.402 3.599-12.804 5.399-19.307.1-.3.2-.6.3-1 .3-1.4 1.3-3.801.8-4.101-1.5-1.001-3.5-1.501-5.4-1.801-.5-.1-1.499 1.3-1.799 2.101-1.1 4.501-1.8 9.003-3 13.404-1.9 6.802-4.2 13.605-6.099 20.407-1.2 4.502-2.1 9.103-3.2 13.605-.5 2-1.5 3.901-2.2 5.902-.2.5-.2 1.1 0 1.6 4.1 11.204 4 22.508 1.8 34.011-.9 4.802-1.8 9.504-2.9 14.205-1.9 8.003-5.999 14.805-10.499 21.507-1.2 3.101-3.299 5.602-5.299 8.303m-39.096-132.344c.1-.1-.3.1-.7.3-3.5 1.601-6.9 3.601-10.499 4.602-7.4 2.1-14.999 2.1-22.598 1.7-10.899-.6-20.898-3.601-29.797-10.003-5.6-4.001-11.199-8.103-16.998-12.004-2.4-1.601-5.1-3.001-7.8-3.701-11.998-2.701-24.297-2.501-36.496-1.301-10.199 1.001-19.798-.2-28.797-5.502-.8-.5-2-.9-2.8-.7-3.2.7-6.399 1.301-9.299 2.701-8.299 3.801-16.398 8.003-23.097 14.405-3.9 3.701-8.6 7.102-11.4 11.604-4.299 6.902-7.698 14.504-10.498 22.107-1.8 4.802-2.8 10.303-2.8 15.405 0 9.903 3.8 18.606 9.5 26.809 5.799 8.303 13.398 13.505 23.497 14.505 11.199 1.1 22.498 2.101 33.696 2.801 6.8.4 12.3 3.501 17.399 7.402 4.9 3.702 7.399 9.103 9.399 14.805 1.6 4.402 3.9 8.303 7.499 11.404 2.8 2.401 5.5 4.902 7.9 7.703 4.199 4.701 9.298 8.102 14.698 11.203 8.499 4.902 17.498 8.703 26.997 11.204 9.799 2.501 19.698 3.901 29.697 4.502 3 .2 6-.701 8.9-.901 4.299-.4 8.698-.4 12.998-.9 5.199-.5 10.299-1.4 15.398-3.201 4.6-1.701 9.199-2.901 13.399-5.702 5.799-3.901 11.299-7.903 15.798-13.204 5.4-6.302 10.199-13.005 13.599-20.607 1.9-4.202 2.8-8.903 4.1-13.305.5-1.8 1.199-3.701 1.499-5.602 1.4-8.702.3-17.505 0-26.208 0-.801-.4-1.601-.8-2.401-1.399-3.201-2.899-6.402-4.299-9.603-.7-1.601-1.6-2.601-3.7-2.501-3.099.1-6.399-.1-9.499-.8-7.699-1.701-14.298-5.602-20.098-10.804-5.899-5.302-10.899-11.504-12.298-19.607-.8-5.401-1.1-11.103-1.7-16.605m119.188-96.832c-.6-2.401-1.3-4.802-1.9-7.203-2-7.802-5.2-14.705-13.199-18.106-.5-.2-.9-.5-1.3-.7-3.899-1.9-7.599-4.301-12.298-2.6-.2.1-.5 0-.7 0-2-.1-4.2-.701-6-.1-9.699 2.9-19.498 2.5-29.397.9-8.499-1.401-13.898-7.603-13.698-16.206.1-3.301 1.299-6.702 2.299-9.903.6-2 2.1-3.801 2.3-5.702.3-4.201.1-8.503-.2-12.704-.5-6.502-3.999-11.404-9.199-15.105-7.299-5.202-15.098-9.304-23.598-11.904-6.199-1.901-12.698-3.602-19.098-3.702-10.199-.1-20.198 2.301-30.097 4.802-3.4.9-6.699 2.2-10.099 2.8-17.398 3.502-30.197 13.005-38.596 28.71-4.6 8.503-10.199 16.206-18.698 21.508-7.1 4.401-14.798 7.302-22.598 10.003-6.099 2.1-12.298 4.301-18.298 6.802-6.999 3.001-12.998 7.403-17.398 13.905-1.4 2-3.6 3.501-5.2 5.402-1.8 2.1-3.9 4.101-4.799 6.602-1.5 4.401-2.9 9.003-3.1 13.604-.4 7.603 0 15.205.5 22.808.1 2.201 1.3 4.401 2.5 6.402 1.9 3.201 4.3 6.202 6.4 9.303 3.399 5.002 7.799 9.203 12.998 11.904 6 3.101 12.599 5.402 19.698 4.902 6.3-.4 12.699-1 18.998-1 6.1-.101 12.199.4 18.298.8 2.7.2 5.5.3 8.2.9 5.699 1.2 9.599 5.602 14.098 8.803 7 5.002 13.999 9.903 21.298 14.605 5.1 3.301 11.099 3.801 16.998 4.701 6.4 1.001 12.699 1.501 19.198 1.201 5.1-.3 9.499-2.601 14.099-4.102 1.9-.6 3.9-2.4 4.699-4.101 1.8-3.801 2.7-8.003 4.1-12.004.5-1.5 0-2.001-1.4-2.501-4.799-1.8-9.899-3.301-14.398-5.702-5.4-2.901-10.6-6.302-15.599-9.903-4.3-3.101-8.299-6.702-12.499-10.003-5.799-4.702-11.698-9.403-17.498-14.105-3-2.401-6.1-4.702-8.899-7.302-1.8-1.601-3.2-3.502-5-5.202a6.57 6.57 0 0 0-2.9-1.701c-1.899-.5-2.899-1.9-2.199-3.701.3-.9.7-1.901 1.4-2.601 3.2-3.201 6.7-6.202 9.699-9.603 2.5-2.801 5.1-2.301 7.9-1.3 5.599 2 9.598 6.202 13.898 10.103 10.299 9.203 20.698 18.306 31.097 27.409 1.4 1.2 2.799 2.301 4.599 3.801-.7-5.001-1.4-9.403-1.9-13.904-.3-3.601-.2-7.203-.5-10.704-.699-8.203-1.599-16.505-2.099-24.708-.5-7.503-1-15.005 0-22.608.5-3.5 2.699-5.301 6.199-4.501.4.1 1 0 1.4-.1 2.9-1 5.899-1.8 8.699-3.001 3.1-1.3 4.4-1.1 6.299 1.6.8 1.2 1.5 2.401 2.1 3.702 2.5 4.801 3.3 10.103 4 15.405 1.4 9.903 2.6 19.906 3.799 29.91.4 3.101.4 6.202.8 9.203 1 7.102 2.2 14.205 3.1 21.307.4 3.101.4 6.202.5 9.603 2.1-1.6 3.7-3.501 5.699-4.501 6.9-3.201 13.799-6.303 20.898-8.903 6-2.201 12.299-3.602 18.498-5.302 9.999-2.701 17.199-9.003 23.598-16.906 3.9-4.701 8.599-8.903 13.299-12.904 3.199-2.701 6.899-4.502 10.199-6.602m-47.196 194.965c5.4-5.402 11.399-8.903 17.899-11.704 7.499-3.301 15.098-6.402 22.597-9.703 2.3-1.001 4.6-2.101 6.5-3.602 2.799-2.3 5.299-5.001 7.899-7.602 4.099-4.202 8.299-8.503 12.299-12.904 3.999-4.402 7.999-8.803 13.498-11.404 3.4-1.601 7-2.801 10.599-3.601 6.5-1.401 13.099-3.202 19.698-3.402 9.199-.3 18.498.2 27.398 3.502 7.699 2.8 14.598 6.502 19.698 13.104 1.299 1.6 2.299 3.401 3.499 5.202 1.7 2.5 2.5 2.601 5 1 .9-.6 1.999-.9 2.899-1.401 2.7-1.3 5.5-2.4 8-4.001 8.999-5.702 16.798-12.704 21.697-22.407.4-.701.8-1.501 1.3-2.101 3.7-4.301 5.2-9.603 6.2-14.905 1.999-10.503 1.5-21.007-1.8-31.31-.9-2.701-2.6-5.302-4.3-7.503-4.799-6.102-11.499-7.202-18.598-6.102-5.799.9-11.199.2-16.698-1.7-5.6-2.001-11.699-2.901-16.898-5.502-9.7-4.802-18.099-11.504-23.998-20.807-4.2-6.602-8.899-12.704-15.599-17.206-1.399-.9-2.499-2.201-3.799-3.301-2.4-1.901-4.6-4.302-7.299-5.602-5.1-2.501-10.299-5.002-15.699-6.502-9.899-2.701-20.098-5.202-29.997.7-3.899 2.301-8.399 4.001-11.799 6.802-4.799 4.102-9.099 8.803-13.298 13.605-5.9 6.702-12.499 12.104-21.098 14.705-9.199 2.801-18.498 5.302-27.497 8.403-9.999 3.501-19.298 8.703-26.198 17.005-2.999 3.701-5.499 7.803-8.199 11.704-1 1.501-2.1 3.101-2.7 4.702-3.399 8.303-4.299 17.005-4.099 25.808.3 12.504 6.299 21.708 17.098 27.91 5 2.901 9.999 5.401 15.898 5.301 1.2 0 2.4-.4 3.7-.3 1.9.1 3.7.4 5.3.5.899-3.101 1.799-5.701 2.499-8.302 1.5-5.702 3-11.504 4.5-17.206 1.3-4.702 2.7-9.403 3.999-14.205.8-3.201 1.3-6.402 1.9-9.603.3-1.701 1.3-2.801 3.1-2.601 4.499.5 8.899 1.201 13.399 1.501 5.799.4 6.699 3.701 5.599 8.002-2.8 11.304-5.799 22.608-8.899 33.912-.8 3.001-2.1 5.902-3.4 9.403 3.1-1.601 5.8-2.901 8.299-4.402 6.8-4.101 13.499-8.302 20.198-12.404.9-.6 2-.9 2.9-1.5 5.8-4.102 11.499-8.203 17.298-12.204 2.5-1.801 5.2-3.302 7.8-5.002 5.899-3.801 11.798-7.503 17.598-11.404 3.999-2.701 7.899-5.602 11.699-8.603 4.099-3.201 8.099-3.201 11.498.7 2.8 3.102 5.2 6.503 7.8 9.804.9 1.2 1.7 2.501 2.399 3.601-1.999.6-3.699.8-4.899 1.601-3.8 2.6-7.399 5.501-10.999 8.302-5.999 4.702-11.499 9.904-18.298 13.605-6.099 3.401-11.899 7.402-17.898 11.204-5.4 3.501-10.799 7.102-16.299 10.403-6.799 4.101-13.898 7.703-20.498 12.104-6.399 4.301-12.798 8.503-20.298 10.604-.1 0-.2.2-.3.4 1.6 6.902 1.8 14.304.2 26.909m28.398 63.721c14.798-.1 29.397-2.201 43.695-5.702 8.199-2.001 16.499-4.401 24.298-7.603 10.699-4.401 21.198-9.403 31.597-14.504 7.499-3.702 13.798-9.103 19.798-14.805 4.399-4.102 7.499-9.503 11.298-14.305 1.2-1.601 1.3-3.301 1.7-5.202.8-4.701 2.2-9.303 1.9-14.205-.1-1 .2-2.2 0-3.101-1.2-4.901-2.8-9.703-3.9-14.604-1.199-5.402-5.399-9.103-7.799-13.805-.9-1.701-3.399-2.501-5.199-3.701-7.1-4.902-14.999-8.003-23.598-9.003-8.699-1.001-17.298.4-25.997 1.6-7 1.001-12.199 5.002-17.299 9.103-3.999 3.201-7.399 7.203-10.998 10.904-1.7 1.7-3.2 3.601-4.9 5.402-2.5 2.601-4.799 5.702-7.799 7.502-4.8 2.801-10.099 4.802-15.199 6.903-6.399 2.6-13.298 4.301-19.298 7.702-10.199 5.602-19.198 13.004-27.197 21.507-2.4 2.501-4.699 5.102-5.299 8.603-.7 3.901-1.2 7.703-1.7 11.604-.3 2.101-1.1 4.401-.6 6.402 1.5 6.402 6.099 10.804 10.999 14.505 9.099 6.802 19.998 9.103 31.497 8.803m39.096-263.788c.1.2.1.4.2.6 6.099-1.1 11.998-.4 17.798 1.301 8.199 2.4 16.598 4.001 23.098 10.103.899.8 1.699.9 2.399-.3 4.8-8.303 8.599-16.906 11.099-26.209 2.3-8.603 3.3-17.206 2.9-26.008-.3-9.003-2.6-17.406-6.999-25.209-3.9-7.002-9.3-12.804-15.199-18.206-6.099-5.502-13.299-8.703-21.198-9.503-8.999-.9-18.098.2-26.897 2.4-7.299 1.801-13.499 5.703-20.098 9.004-3.2 1.6-6.699 2.9-9.599 4.901-4.9 3.301-9.499 7.103-14.099 10.804-5.699 4.501-11.499 9.003-16.798 13.905-4.699 4.301-8.799 9.203-14.798 11.804-2 .9-1.8 2.6-1.4 4.3 1.1 5.303 5.199 8.104 11.398 9.404 9.6 2 18.299-1.4 27.898-2.9-2.3-4.202-4.5-8.104-6.7-12.005-.2-.5-.4-1.3-.2-1.6.8-1.2 1.6-2.701 2.8-3.301 3.6-1.801 7.499-3.302 11.199-4.902 1.1-.5 2.2-1 3-1.8 1.6-1.601 3.199-1.301 4.199.3 1.4 2.2 2.9 4.5 3.5 7.002 1.6 6.302 2.6 12.804 4.1 19.106.299 1.2 1.299 2.4 2.199 3.301 1.9 2.1 4 3.901 5.8 6.002 1.3 1.6 2.099 3.501 3.399 5.502 1.7-2.1 3-4.101 4.6-5.802 7.599-8.303 14.898-16.806 20.798-26.309 1.8-2.9 4.599-4.401 6.899-6.702.5-.5 2-.7 2.8-.4 1.4.7 2.8 1.8 3.899 2.9 1.2 1.201 2.2 2.802 3.4 4.002 1 1 2.8 1.6 3.1 2.601.2 1-1.2 2.3-1.9 3.401a2413 2413 0 0 1-13.999 19.907c-4.099 6.402-8.399 12.504-12.598 18.606M51.165 129.43c.1.1.9.4 1.5.8 4 2.401 8.2 4.601 11.799 7.502 6.8 5.402 13.099 11.404 19.998 16.806 7.7 6.002 15.798 11.404 23.597 17.206 5 3.801 10.299 6.802 16.099 9.003.6.2 1.6.3 2-.1 3.899-3.001 7.799-6.202 10.899-8.703-1-4.902-1.9-8.903-2.6-12.905-.7-3.901-1.2-7.902-1.9-11.903-.5-2.901-1.3-5.702-1.8-8.503-.9-5.102-1.8-10.204-2.5-15.305-1.399-10.004-2.699-20.007-3.999-30.01-.4-3.401-.8-6.903-1.2-10.704-3 .9-5.599 1.6-8.099 2.5-.5.2-1.1 1.101-1.1 1.701 0 1.901 0 3.802.3 5.702.8 5.502-.5 11.104.7 16.606 1.1 4.501-.1 9.103.9 13.804 1.1 5.202.7 10.604.5 16.006-.2 8.403-.8 16.905-1.2 25.608-2.9-1.6-6.1-3.501-9.399-5.201-12.1-6.102-21.898-15.306-32.097-23.908-4.8-4.002-9.4-8.403-14.099-12.505-.5-.4-1.9-.7-2.2-.4-2.2 2.201-4.099 4.602-6.099 6.903m192.381-20.807c1.2-.701 2.8-1.001 3.5-2.001 5.999-8.103 11.798-16.305 17.698-24.408 3.599-5.002 7.199-10.004 10.799-15.105.7-1 1.799-2.3.1-3.401-1.5-1-3-1.9-4.5.1-2.4 3-4.999 5.802-7.399 8.803-7.099 8.903-14.199 17.806-21.198 26.709-.4.5-.7 1.5-.6 2.1.3 2.301.9 4.402 1.6 7.203m-90.591 265.588c-.8-9.503-1.7-18.906-2.5-28.809-6.999 5.301-13.498 10.503-22.298 13.204 1.4 1.2 2.3 2.101 3.3 2.601 2 1.1 4.3 1.8 6.199 3.001 5 3.101 9.899 6.402 15.299 10.003m67.993-295.898q-.45-2.702-.9-5.102c-.8-3.801-1.7-7.603-2.7-11.304-.1-.5-1.199-1.3-1.599-1.2-3.2.7-6.4 1.6-9.499 2.4.1 1 0 1.401.1 1.801 1.199 3.601 2.399 7.302 3.799 10.804.3.7 1.4 1.3 2.2 1.4 2.7.5 5.499.8 8.599 1.2"/><path fill="#008C50" d="M115.859 208.556c.6 5.602.8 11.204 1.8 16.706 1.4 8.102 6.4 14.304 12.299 19.606 5.799 5.202 12.399 9.203 20.098 10.804 3.1.7 6.299.9 9.499.8 2.2-.1 3 .9 3.7 2.501 1.399 3.201 2.899 6.402 4.299 9.603.3.8.8 1.6.8 2.401.3 8.703 1.4 17.506 0 26.208-.3 1.901-.9 3.702-1.5 5.602-1.3 4.502-2.2 9.103-4.099 13.305-3.4 7.602-8.1 14.305-13.599 20.607-4.599 5.301-10.099 9.303-15.798 13.204-4.2 2.801-8.799 4.101-13.399 5.702-4.999 1.801-10.099 2.701-15.398 3.201-4.3.4-8.7.5-13 .9-2.999.2-5.999 1.101-8.898.901-10-.601-19.898-2.001-29.697-4.502-9.5-2.501-18.498-6.302-26.998-11.204-5.399-3.101-10.498-6.502-14.698-11.203-2.4-2.801-5.1-5.302-7.9-7.703-3.599-3.101-5.999-7.002-7.499-11.404-2-5.702-4.5-11.103-9.399-14.805-5.1-3.901-10.598-7.002-17.398-7.402-11.299-.7-22.498-1.701-33.697-2.801-10.098-1-17.698-6.202-23.497-14.505-5.6-8.103-9.5-16.906-9.5-26.809 0-5.202 1-10.603 2.8-15.405 2.9-7.602 6.3-15.205 10.5-22.107 2.8-4.502 7.399-7.903 11.398-11.604 6.7-6.402 14.799-10.504 23.098-14.405 2.9-1.3 6.2-2.001 9.3-2.701.899-.2 1.999.2 2.799.7 8.999 5.302 18.598 6.503 28.797 5.502 12.199-1.2 24.398-1.4 36.496 1.301 2.8.6 5.5 2.1 7.8 3.701 5.799 3.801 11.398 7.902 16.998 12.004 8.899 6.402 18.798 9.403 29.797 10.003 7.699.4 15.298.4 22.598-1.7 3.699-1.001 6.999-3.101 10.498-4.602.3-.3.8-.5.6-.4"/><path fill="#7ABF43" d="M235.047 111.724c-3.3 2.1-7 3.901-9.999 6.502-4.7 4.001-9.4 8.203-13.299 12.904-6.399 7.803-13.699 14.105-23.598 16.906-6.199 1.7-12.499 3.101-18.498 5.302-7.099 2.6-13.999 5.701-20.898 8.903-2 .9-3.699 2.8-5.699 4.501-.2-3.401-.1-6.502-.5-9.603-.9-7.103-2.1-14.205-3.1-21.307-.4-3.101-.5-6.202-.8-9.203-1.2-10.004-2.5-19.907-3.799-29.91-.7-5.302-1.5-10.604-4-15.405-.7-1.3-1.3-2.501-2.1-3.702-1.9-2.8-3.299-2.9-6.299-1.6-2.8 1.2-5.8 2-8.699 3-.4.1-1 .2-1.4.1-3.5-.8-5.8 1.001-6.2 4.502-.999 7.503-.499 15.105 0 22.608.6 8.303 1.5 16.505 2.1 24.708.3 3.601.1 7.203.5 10.704.4 4.501 1.2 8.903 1.9 13.904-1.7-1.4-3.2-2.501-4.599-3.801-10.4-9.103-20.898-18.106-31.097-27.409-4.3-3.901-8.3-8.103-13.899-10.103-2.8-1.001-5.4-1.501-7.9 1.3-2.999 3.401-6.498 6.402-9.698 9.603-.7.7-1.1 1.701-1.4 2.601-.7 1.801.3 3.201 2.2 3.701 1.1.3 2.1 1.001 2.9 1.701 1.7 1.6 3.2 3.601 4.999 5.202 2.9 2.5 5.9 4.901 8.899 7.302 5.8 4.702 11.699 9.403 17.498 14.105 4.2 3.401 8.1 7.002 12.499 10.003 5 3.601 10.199 7.002 15.598 9.903 4.5 2.401 9.599 3.902 14.399 5.702 1.4.5 1.9 1.001 1.4 2.501-1.4 4.001-2.4 8.203-4.1 12.004-.8 1.801-2.899 3.501-4.699 4.101-4.7 1.501-8.999 3.802-14.099 4.102-6.5.4-12.799-.1-19.198-1.201-5.9-.9-11.899-1.4-16.998-4.701-7.2-4.702-14.199-9.603-21.298-14.605-4.5-3.201-8.4-7.603-14.099-8.803-2.7-.6-5.4-.7-8.199-.9-6.1-.3-12.199-.801-18.298-.801-6.3.101-12.699.601-18.998 1.001-7.1.5-13.699-1.801-19.698-4.902-5.2-2.701-9.6-7.002-12.999-11.904-2.1-3.101-4.5-6.102-6.4-9.303-1.199-1.901-2.299-4.201-2.499-6.402-.5-7.603-.9-15.205-.5-22.808.2-4.601 1.6-9.203 3.1-13.604.9-2.501 3-4.502 4.8-6.602 1.6-1.901 3.799-3.401 5.199-5.402 4.4-6.402 10.499-10.804 17.398-13.905 6-2.6 12.099-4.701 18.298-6.802 7.8-2.7 15.499-5.602 22.598-10.003 8.5-5.302 14.199-13.005 18.698-21.508 8.4-15.705 21.198-25.208 38.596-28.71 3.4-.7 6.7-2 10.1-2.8 9.898-2.5 19.897-5.002 30.096-4.802 6.4.1 12.899 1.801 19.098 3.702 8.499 2.6 16.399 6.702 23.598 11.904 5.199 3.7 8.699 8.602 9.199 15.105.3 4.201.5 8.502.2 12.704-.1 2-1.7 3.801-2.3 5.702-.9 3.3-2.2 6.602-2.3 9.903-.3 8.603 5.1 14.905 13.699 16.205 9.799 1.601 19.598 2.001 29.397-.9 1.8-.5 4 0 5.999.1.2 0 .5.1.7 0 4.7-1.8 8.4.7 12.299 2.601.5.2.9.5 1.3.7 7.999 3.401 11.199 10.404 13.199 18.106.5 2.501 1.1 4.902 1.7 7.303"/><path fill="#22AB73" d="M187.851 306.689c1.6-12.604 1.5-20.007-.3-26.609.1-.1.2-.3.3-.4 7.5-2.101 13.899-6.302 20.298-10.604 6.6-4.401 13.699-8.002 20.498-12.104 5.5-3.301 10.799-7.002 16.299-10.403 5.899-3.802 11.698-7.803 17.898-11.204 6.799-3.701 12.298-8.903 18.298-13.605 3.6-2.801 7.199-5.701 10.999-8.302 1.2-.801 2.899-1.001 4.899-1.601-.7-1-1.5-2.401-2.399-3.601-2.5-3.301-5-6.702-7.8-9.803-3.399-3.902-7.399-3.902-11.499-.701-3.799 3.001-7.699 5.902-11.698 8.603-5.8 3.902-11.699 7.603-17.599 11.404-2.599 1.701-5.199 3.201-7.799 5.002-5.799 4.001-11.499 8.202-17.298 12.204-.9.6-2 .9-2.9 1.5-6.699 4.102-13.498 8.303-20.198 12.404-2.499 1.501-5.099 2.701-8.299 4.402 1.3-3.501 2.6-6.402 3.4-9.403 2.999-11.304 5.999-22.608 8.899-33.912 1.1-4.301.2-7.602-5.6-8.002-4.499-.3-8.899-1.101-13.398-1.501-1.8-.2-2.8.901-3.1 2.601-.7 3.201-1.1 6.402-1.9 9.603-1.2 4.802-2.699 9.504-3.999 14.205-1.5 5.702-3 11.504-4.5 17.206-.7 2.601-1.6 5.202-2.5 8.303-1.599-.2-3.399-.501-5.299-.501-1.2-.1-2.4.301-3.7.301-5.899.1-10.999-2.501-15.898-5.302-10.799-6.202-16.698-15.405-17.098-27.91-.2-8.802.6-17.605 4.099-25.808.7-1.701 1.7-3.201 2.7-4.702 2.7-3.901 5.199-8.002 8.199-11.704 6.899-8.402 16.198-13.504 26.197-17.005 9-3.201 18.299-5.602 27.498-8.403 8.599-2.601 15.298-8.003 21.098-14.705 4.199-4.802 8.499-9.603 13.298-13.604 3.4-2.901 7.899-4.502 11.799-6.803 9.899-5.802 19.998-3.401 29.997-.7 5.399 1.501 10.699 4.001 15.698 6.502 2.7 1.301 4.9 3.701 7.3 5.602 1.3 1 2.399 2.401 3.799 3.301 6.6 4.402 11.399 10.504 15.599 17.206 5.899 9.303 14.398 16.005 23.997 20.807 5.2 2.601 11.299 3.501 16.899 5.502 5.499 1.9 10.899 2.601 16.698 1.7 7.099-1.1 13.799.1 18.598 6.102 1.8 2.301 3.5 4.802 4.3 7.503 3.299 10.203 3.799 20.707 1.799 31.31-.999 5.302-2.499 10.604-6.199 14.905-.5.6-.9 1.401-1.3 2.101-4.899 9.703-12.598 16.705-21.698 22.407-2.499 1.601-5.299 2.701-7.999 4.002-1 .5-2 .8-2.899 1.4-2.6 1.601-3.3 1.501-5-1-1.2-1.701-2.2-3.501-3.5-5.202-5.099-6.502-11.998-10.303-19.698-13.104-8.999-3.201-18.198-3.802-27.397-3.501-6.599.2-13.199 2-19.698 3.401-3.6.8-7.199 2-10.599 3.601-5.499 2.501-9.499 6.902-13.498 11.404-4 4.401-8.1 8.603-12.299 12.904-2.5 2.601-5 5.302-7.899 7.602-1.9 1.501-4.3 2.601-6.5 3.602-7.499 3.301-15.098 6.402-22.598 9.703-6.399 2.501-12.398 6.102-17.798 11.404"/><path fill="#7ABF43" d="M216.248 370.41c-11.499.3-22.298-2.001-31.697-9.003-4.899-3.701-9.499-8.103-10.999-14.505-.5-2.001.3-4.301.6-6.402.5-3.901 1-7.803 1.7-11.604.6-3.501 2.9-6.102 5.299-8.603 8.1-8.403 16.999-15.905 27.198-21.507 5.999-3.301 12.898-5.002 19.298-7.703 5.199-2.1 10.499-4.101 15.198-6.902 3-1.8 5.3-4.901 7.799-7.502 1.7-1.701 3.2-3.601 4.9-5.402 3.6-3.701 6.899-7.803 10.999-10.904 5.099-4.001 10.299-8.102 17.298-9.103 8.599-1.2 17.198-2.601 25.997-1.6 8.6 1 16.499 4.101 23.598 9.003 1.8 1.2 4.4 2 5.2 3.701 2.399 4.701 6.599 8.403 7.799 13.805 1.1 4.901 2.7 9.703 3.899 14.604.3 1.001 0 2.101 0 3.101.2 4.902-1.099 9.504-1.899 14.205-.3 1.901-.4 3.601-1.7 5.202-3.7 4.802-6.9 10.203-11.299 14.305-5.999 5.702-12.299 11.203-19.798 14.805-10.399 5.101-20.898 10.203-31.597 14.504-7.899 3.201-16.098 5.602-24.298 7.603-14.098 3.701-28.697 5.802-43.495 5.902"/><path fill="#008C50" d="M255.344 106.622c4.2-6.102 8.5-12.204 12.699-18.206 4.7-6.602 9.299-13.204 13.999-19.907.8-1.1 2.199-2.5 1.9-3.4-.2-1.001-2.1-1.701-3.1-2.602-1.2-1.2-2.2-2.8-3.4-4-1.2-1.101-2.5-2.202-3.899-2.902-.7-.4-2.2-.2-2.8.4-2.3 2.201-5.1 3.801-6.899 6.703-6 9.503-13.299 18.005-20.798 26.308-1.6 1.7-2.9 3.601-4.6 5.802-1.2-2.1-2.1-4.001-3.4-5.502-1.799-2.1-3.899-4.001-5.799-6.002-.9-1-1.9-2.1-2.2-3.3-1.5-6.403-2.5-12.805-4.099-19.107-.6-2.501-2.1-4.802-3.5-7.002-1-1.601-2.6-1.901-4.2-.3-.799.8-1.899 1.3-2.999 1.8-3.7 1.7-7.599 3.101-11.199 4.902-1.2.6-2 2.1-2.8 3.3-.2.3-.1 1.201.2 1.601 2.1 3.902 4.3 7.803 6.699 12.004-9.599 1.5-18.298 4.902-27.897 2.901-6.199-1.3-10.299-4.101-11.399-9.403-.3-1.7-.6-3.401 1.4-4.301 6-2.601 10.099-7.503 14.799-11.804 5.299-4.902 11.099-9.403 16.798-13.905 4.6-3.701 9.199-7.502 14.099-10.804 2.899-2 6.399-3.3 9.599-4.901 6.599-3.301 12.798-7.203 20.098-9.003 8.899-2.2 17.898-3.301 26.897-2.4 7.899.8 15.098 4 21.198 9.502 5.999 5.402 11.299 11.204 15.198 18.206 4.4 7.803 6.6 16.206 7 25.209.3 8.803-.6 17.406-2.9 26.008-2.5 9.303-6.199 17.906-11.099 26.209-.7 1.201-1.5 1.1-2.4.3-6.499-6.102-14.998-7.702-23.097-10.103-5.9-1.701-11.799-2.401-17.799-1.301-.2-.6-.2-.8-.3-1"/><path fill="#B58B76" d="M51.165 129.43c2-2.301 4-4.702 6.1-7.003.3-.3 1.7-.1 2.2.4 4.699 4.102 9.298 8.403 14.098 12.505 10.199 8.602 19.998 17.906 32.097 23.908 3.299 1.7 6.499 3.601 9.399 5.201.4-8.703 1-17.205 1.199-25.608.1-5.302.5-10.804-.499-16.006-1-4.701.2-9.303-.9-13.804-1.3-5.502 0-11.104-.7-16.606-.3-1.9-.3-3.8-.3-5.702 0-.6.6-1.5 1.1-1.7 2.499-.9 5.099-1.6 8.099-2.501.4 3.801.8 7.202 1.2 10.704 1.3 10.003 2.599 20.006 3.999 30.01.7 5.101 1.6 10.203 2.5 15.305.5 2.901 1.3 5.702 1.8 8.503.7 3.901 1.2 7.902 1.9 11.903s1.6 8.103 2.599 12.905a2089 2089 0 0 1-10.899 8.703c-.399.3-1.399.3-1.999.1-5.8-2.201-11.099-5.302-16.099-9.003-7.799-5.902-15.898-11.304-23.597-17.206-6.9-5.302-13.199-11.404-19.998-16.806-3.6-2.901-7.9-5.001-11.8-7.502-.6-.3-1.399-.6-1.499-.7m192.38-20.807c-.7-2.801-1.299-4.902-1.699-7.003-.1-.7.2-1.6.599-2.1 7-8.903 14.099-17.806 21.198-26.71 2.4-3 5-5.801 7.4-8.802 1.599-2 3.099-1.1 4.499-.1 1.6 1.1.6 2.4-.1 3.4-3.499 5.102-7.199 10.004-10.799 15.106-5.899 8.203-11.699 16.405-17.698 24.408-.6.8-2.2 1.2-3.4 1.801m-22.597-30.31c-3.2-.4-5.9-.7-8.6-1.2-.8-.2-1.999-.701-2.199-1.401-1.4-3.601-2.6-7.203-3.8-10.804-.1-.4-.1-.8-.1-1.8 3.1-.8 6.299-1.701 9.499-2.401.5-.1 1.5.7 1.6 1.2 1 3.802 1.8 7.603 2.7 11.304.4 1.7.6 3.301.9 5.102"/><path fill="#FFA004" d="M26.569 164.642c-3.8-.701-7.6-1.801-10.9-3.602-4.499-2.601-8.499-6.002-12.798-9.103-4.4-2.801-6.1-7.502-7.7-12.004-.5-1.4-.1-3.601.7-5.001 2.6-4.602 12.6-7.003 17.499-4.702 2.2 1.1 4.8 1.401 7.2 2.101 1.199.3 2.499.6 3.399 1.3 2.4 1.801 4.8 3.601 6.7 5.902 3.099 3.701 6.998 7.203 6.198 12.804-.3 2.001-.9 4.002-1.5 5.902-1.1 3.702-5.299 7.103-8.798 6.403"/><path fill="#DD1024" d="M7.27 138.532c0-.1-.1-.2-.1-.2-.4-.6-.8-.9-1.6-.9-.6 0-1.1.2-1.5.7-.3.4-.3 1.5.1 1.9.9.9 3.4-.4 3.1-1.5m5.8 1.3c.1-.1.2-.2.2-.3q.3-.6 0-1.2c-.2-.4-.4-.7-.8-.9h-.1s-.1 0-.1.1c-.8.6-1.4 1.2-.6 2.1.4.4 1 .6 1.4.2m-10.899-7.301c-.1.1-.2.2-.3.4-.1.3-.1 1.3.3 1.4.7.2 1.6.1 2.3-.2.3-.1.2-1.1.1-1.3-.2-.5-.9-.7-1.4-.7-.3-.1-.7.1-1 .4m1.099 13.704c.2-.1.4-.4.4-.7s.2-.7.1-.9c-.2-.5-1-.7-1.5-.6-.7.1-.8.9-.5 1.4.1.2.3.4.5.5.1.1.3.2.4.3q.45.15.6 0m4.5-1.1c.3.3.6.5.9.5 1 0 1.1-.8.6-1.5-.7-.8-2.7-.2-1.5 1m-1.4 4.401c-.4.3-.1 1.8.2 2.2.3.5 1.3.2 1.5-.3.2-.4 0-1.1-.1-1.5-.2-.4-1.2-.7-1.6-.4m-8.2-11.503c-.1.2-.2.5-.1.7.1.1.2.3.3.4.2.2.4.3.6.4.3.2.6.1 1-.1.2-.1.2-1.2 0-1.3-.4-.2-.9-.3-1.3-.3-.3 0-.3 0-.5.2m12-4.702-.1-.1c-.1 0-.1-.1-.2-.1-.4-.1-.9-.4-1.2 0-.2.2-.2 1.1 0 1.4.2.2.5.4.8.4.5.1.8-.1 1-.5.1-.5 0-.7-.3-1.1"/><path fill="#008C50" d="M12.77 104.221c-.7-1.5-1.3-3.001-4.2-2.501 4.2 9.103 8.2 17.806 12.299 26.609-3.4.601-13.399-7.602-16.398-13.504-4.5-8.703-3.5-24.808 1.7-29.81 12.098 7.703 20.297 30.41 16.698 41.814-.3-.6-.6-1.001-.8-1.401-3.1-7.102-6.2-14.204-9.3-21.207"/><path fill="#B58B76" d="M27.867 130.73c1.3-2.501 2.9-4.902 4.5-7.302 2.4-3.702 4.8-7.303 7.199-11.004 5 3.601 5.1 4.401 1.6 8.603-3.3 3.901-6.5 7.902-10 11.804-.6.6-1.999.5-2.999.8-.1-1-.6-2.201-.3-2.901"/><path fill="#91FF1E" d="M-7.529 139.433c.6 1.801.8 3.801 1.4 5.602.8 2.201 1.9 4.401 3.3 6.202 1.5 1.901 3.8 3.101 5.6 4.802 5.999 5.702 13.198 9.203 21.097 11.403 5.2 1.401 11.599.501 14.299-4.701 2.7-5.302 2.7-10.904.4-16.206-1.1-2.6-2.6-5.201-4.4-7.402-1.7-2.201-1.3-3.701.3-5.602 4.8-5.602 9.5-11.304 14.099-16.906-2.7-2.6-5.1-5.001-7.6-7.202-1.5-1.4-4.6-.1-5.7 1.901-1.899 3.701-3.999 7.202-6.398 11.404-1-3.802-1.8-6.603-2.4-9.404-2.4-12.004-8.3-21.807-17.698-29.51-1.5-1.2-3.9-1.5-6-1.9-.6-.1-1.8.9-2.2 1.7-3.3 7.303-4.8 15.005-4.5 23.008.1 2.601.8 5.402 2.1 7.603 2.3 3.801 5.3 7.302 8 10.903.3.4.5.801.9 1.501-4.9.5-12.699 2.901-14.799 7.802-.2 1.301-.4 3.001.2 5.002m30.397-12.704c-.3-.6-.6-1-.8-1.401-3.1-7.102-6.2-14.104-9.299-21.207-.7-1.5-1.3-3.001-4.2-2.501 4.2 9.104 8.2 17.806 12.3 26.609-3.4.601-13.4-7.602-16.399-13.504-4.5-8.703-3.5-24.808 1.7-29.81 12.099 7.703 20.298 30.51 16.698 41.814m8.3 6.002c-.6.6-2 .5-3 .8-.1-1-.7-2.101-.3-2.801 1.3-2.501 2.9-4.901 4.5-7.302 2.399-3.701 4.799-7.303 7.198-11.004 5 3.601 5.1 4.402 1.6 8.603-3.3 3.901-6.599 7.903-9.999 11.704m-17.899-2.501c2.2 1.1 4.8 1.4 7.2 2.101 1.2.3 2.5.6 3.4 1.3 2.399 1.801 4.799 3.601 6.698 5.902 3.1 3.701 7 7.203 6.2 12.804-.3 2.001-.9 4.002-1.5 5.902-1.1 3.702-5.3 7.103-8.8 6.402-3.799-.7-7.598-1.8-10.898-3.601-4.5-2.601-8.5-6.002-12.799-9.103-4.4-2.801-6.1-7.502-7.699-12.004-.5-1.4-.1-3.601.7-5.001 2.7-4.602 12.699-7.003 17.498-4.702M99.86 302.887c-.8-.4-1.6-.8-2.5-1.1-.8-.2-1.7-.1-2.5-.4-.4-.1-.7-.4-1.1-.6-.9-.5-1.9-.2-2.8-.3-1.299-.1-2.499-.1-3.799-.1-3.4 0-6.7.1-10.099.6-.2 0-.4.1-.5.2-.2.2-.2.5-.2.8 0 3.301.5 6.702 1.6 9.903 1 3.001 2.6 5.902 5 8.003 2.2 2.001 5.1 3.301 7.999 3.901 1.5.301 2.9.501 4.4.601 1.3.1 2.4.5 3.599.7-2.1 4.601-5.4 10.603-2.4 15.605.8 1.3 2 2.401 3.8 3.001 1.7.6 3.3 1.601 4.999 2.101 2.1.6 4.4 1.1 6.6 1 2.3-.1 4.499-1.1 6.799-1.5 7.699-1.301 14.499-4.702 20.598-9.404 4.1-3.101 7.099-8.502 4.6-13.504s-6.7-8.203-11.999-9.603c-2.6-.7-5.4-1.001-8.099-.901-2.7.1-3.6-1.1-4.1-3.501-1.5-6.802-3.1-13.604-4.7-20.306-3.499.6-6.699 1-9.799 1.6-1.899.4-2.699 3.501-1.799 5.402 1.699 3.501 3.099 7.102 4.999 11.404-3.6-1.501-6.199-2.401-8.6-3.602"/><path fill="#FFA004" d="M138.656 332.397c-2.7 2.501-5.699 4.802-8.999 6.202-4.5 2.001-9.399 3.001-14.199 4.502-4.699 1.701-9.099.3-13.498-1-1.4-.4-2.8-2.001-3.4-3.301-2-4.602 1.9-13.505 6.4-15.906 2.099-1.1 3.799-2.901 5.699-4.301.9-.7 1.9-1.501 2.9-1.801 2.699-.8 5.499-1.6 8.299-1.8 4.599-.2 9.499-1.201 13.199 2.6 1.399 1.401 2.499 2.901 3.699 4.502 2.3 2.801 2.5 7.903-.1 10.303"/><path fill="#DD1024" d="M107.959 331.997c-.1 0-.2-.1-.2-.1-.7 0-1.2.1-1.6.7-.3.401-.5 1.001-.3 1.501.1.5 1 1.1 1.5 1 1.2 0 1.5-2.701.6-3.101m4.3-3.601c0-.1 0-.2-.1-.3-.2-.4-.5-.6-.9-.7s-.8-.1-1.1.1c0 0-.1 0-.1.1v.1c0 .9.1 1.7 1.3 1.7.4-.1.9-.5.9-1m-11.799 4.101c0 .1.1.3.1.4.1.2 1 .8 1.2.6.6-.4 1-1.2 1.1-1.9.1-.3-.7-.8-.9-.8-.5-.1-1.1.3-1.3.6-.1.3-.2.7-.2 1.1m10.999 7.002c0-.2-.1-.5-.3-.7s-.4-.5-.6-.6c-.5-.1-1.1.4-1.3.8-.3.6.2 1.1.8 1.2.2 0 .5 0 .7-.1.2 0 .3-.1.5-.2.1-.1.2-.3.2-.4m1.8-4.101c.3-.1.7-.1.9-.4.6-.7 0-1.4-.8-1.3-1.1.1-1.7 2-.1 1.7m2.499 3.701c0 .5 1.3 1.1 1.8 1.1.6 0 .9-.9.7-1.3s-.8-.7-1.2-.8c-.6-.2-1.3.5-1.3 1m-13.398-.5c.1.2.3.4.5.5h.4c.2 0 .5-.1.7-.2.3-.2.4-.4.5-.8 0-.2-.8-.9-1-.8-.4.2-.7.5-1 .8-.2.3-.2.3-.1.5m3.199-11.703h-.2c-.1 0-.1.1-.2.1-.3.2-.8.4-.7.9 0 .3.7.8 1 .8s.6-.1.8-.3c.3-.3.4-.6.2-1-.1-.5-.3-.5-.9-.5q.15 0 0 0"/><path fill="#008C50" d="M85.261 305.088c3.8.3 7.7.6 11.5.7 2.2 0 4.399 1.801 6.199 3.001 1 .701 1.999 1.501 2.799 2.301.4.3 1.7 2.301 2.1 2.401-.6-.1-1.1-.1-1.5-.2-2.299-.5-4.599-1.1-6.899-1.601-2.2-.5-4.4-1.3-6.7-1.4-.4 0-.8 0-1.1.2s-.6.6-.4 1c.1.2.3.3.4.4 2.4 1.401 5.1 1.701 7.7 2.201.8.2 8.299 2.101 8.499 1.801-1.1 2.2-4.999 3.101-7.099 3.601-3.5.9-7.4 1.601-10.999.8-1-.2-2-.8-2.8-1.4-2.9-1.901-5.7-4.302-7.099-7.603-.7-1.8-1-3.701-1.2-5.602 0-.4 0-.8.3-1 .2-.1.4-.1.5-.1 2 .3 3.9.4 5.8.5"/><path fill="#B58B76" d="M113.759 311.99c-1.2-2.4-2.1-5.001-3-7.602l-4.199-11.704c5.599-1.701 6.199-1.3 7.399 3.701 1.1 4.802 2.3 9.503 3.199 14.305.2.8-.699 1.801-1.099 2.701-.8-.5-1.9-.7-2.3-1.401"/><path fill="#FFA004" d="M61.564 261.374c3.1-.6 6.4-1.501 9.1-3.101 3.799-2.201 7.098-5.102 10.698-7.703 3.7-2.401 5.1-6.302 6.4-10.103.4-1.201.1-3.001-.6-4.202-2.2-3.901-10.6-5.802-14.699-3.901-1.9.9-4 1.2-6 1.801-1 .3-2.1.5-2.8 1.1-1.999 1.501-3.999 3.001-5.599 4.902-2.6 3.101-5.799 6.002-5.1 10.703.3 1.701.8 3.301 1.2 5.002.9 3.201 4.4 6.102 7.4 5.502"/><path fill="#DD1024" d="M77.563 239.466c0-.1 0-.1.1-.2.4-.5.7-.8 1.3-.8q.75 0 1.2.6c.3.3.2 1.3-.1 1.6-.6.8-2.7-.3-2.5-1.2m-4.8 1.1-.2-.2c-.2-.3-.2-.7 0-1 .1-.3.4-.6.7-.8h.1s.1 0 .1.1c.7.5 1.2 1 .5 1.8-.4.3-.9.4-1.2.1m9.101-6.202c.1.1.2.2.2.3.1.2.1 1.1-.2 1.2-.6.2-1.4.1-1.9-.2-.2-.1-.2-.9-.1-1.1.2-.4.7-.6 1.2-.6.2.1.5.2.8.4m-.902 11.504c-.2-.1-.3-.4-.3-.6s-.2-.5-.1-.7c.2-.4.8-.6 1.2-.5.6.1.6.7.4 1.2-.1.2-.3.3-.4.5-.1.1-.2.2-.3.2-.2 0-.4 0-.5-.1m-3.799-.9c-.2.2-.5.4-.8.4-.8 0-1-.7-.5-1.2.7-.7 2.3-.2 1.3.8m1.3 3.701c.3.3.1 1.5-.1 1.8-.3.4-1.1.2-1.3-.2-.2-.3 0-.9.1-1.3.1-.3.9-.5 1.3-.3m6.699-9.703c.1.2.1.4.1.6l-.3.3c-.1.1-.3.3-.5.4-.3.1-.5.1-.8-.1-.2-.1-.2-1 0-1.1.3-.2.7-.2 1.1-.2.3 0 .3-.1.4.1m-9.999-3.902c.1-.1.1 0 0 0 .1-.1.2-.2.3-.2.3-.1.7-.3 1 0 .2.2.2 1 0 1.1-.2.2-.4.3-.6.4-.4.1-.6-.1-.8-.4s-.1-.5.1-.9"/><path fill="#008C50" d="M72.863 210.757c.5-1.301 1.1-2.501 3.5-2.101-3.5 7.603-6.8 14.905-10.2 22.308 2.9.5 11.2-6.403 13.699-11.304 3.7-7.303 2.9-20.807-1.6-25.009-10.099 6.503-16.898 25.609-13.799 35.012.3-.5.5-.8.7-1.2 2.6-5.902 5.2-11.804 7.7-17.706"/><path fill="#B58B76" d="M60.264 232.964c-1.1-2.1-2.4-4.101-3.8-6.102-2-3.101-4-6.102-6.1-9.203-4.199 3.001-4.199 3.701-1.299 7.203 2.8 3.301 5.5 6.602 8.4 9.803.5.5 1.599.4 2.499.6.2-.7.6-1.701.3-2.301"/><path fill="#91FF1E" d="M89.86 235.865c-1.799-4.201-8.298-6.202-12.398-6.502.4-.6.5-.9.8-1.3 2.2-3.001 4.7-5.902 6.6-9.103 1.1-1.801 1.7-4.202 1.8-6.403q.3-10.053-3.9-19.206c-.3-.6-1.3-1.5-1.8-1.4-1.7.3-3.7.6-5 1.6-7.799 6.502-12.798 14.705-14.698 24.808-.5 2.401-1.2 4.702-2 7.903-2-3.501-3.8-6.502-5.4-9.503-.9-1.701-3.5-2.701-4.799-1.601-2.1 1.901-4 3.902-6.3 6.102 3.9 4.602 7.8 9.403 11.9 14.105 1.4 1.601 1.7 2.901.3 4.702a25.7 25.7 0 0 0-3.6 6.202c-1.8 4.501-1.8 9.203.4 13.604 2.2 4.402 7.599 5.102 11.999 3.901 6.599-1.9 12.598-4.801 17.598-9.603 1.5-1.4 3.4-2.501 4.7-4.101 1.2-1.501 2.1-3.401 2.799-5.202.6-1.5.7-3.101 1.2-4.701.4-1.601.3-3.101-.2-4.302m-11.498-41.214c4.4 4.202 5.3 17.706 1.6 25.009-2.5 4.901-10.799 11.904-13.699 11.304 3.4-7.403 6.7-14.705 10.2-22.308-2.5-.4-3 .9-3.5 2.101-2.6 5.902-5.1 11.804-7.7 17.806-.2.4-.4.7-.7 1.2-3.1-9.603 3.7-28.709 13.8-35.112m-29.197 30.211c-3-3.502-2.9-4.202 1.3-7.203 2 3.101 4.1 6.102 6.1 9.203 1.3 2.001 2.599 4.002 3.799 6.102.3.6-.1 1.601-.2 2.401-.8-.2-2-.1-2.5-.6-3-3.201-5.7-6.602-8.499-9.903m37.996 11.503c.7 1.101 1 3.001.6 4.202-1.3 3.801-2.8 7.702-6.4 10.103-3.499 2.601-6.899 5.502-10.698 7.703-2.7 1.6-6 2.5-9.1 3.101-2.999.6-6.499-2.301-7.399-5.302-.5-1.601-1-3.301-1.2-5.002-.7-4.701 2.6-7.602 5.1-10.703 1.6-1.901 3.6-3.401 5.6-4.902.8-.6 1.9-.8 2.8-1.1 2-.6 4.199-.901 5.999-1.801 4.1-2.101 12.498-.1 14.698 3.701"/><path fill="#FFA004" d="M273.943 292.684c2.399 2.101 5.099 4.202 7.999 5.402 3.999 1.701 8.399 2.601 12.598 3.801 4.1 1.501 8.1.2 11.899-1 1.2-.4 2.4-1.801 2.9-3.001 1.7-4.101-1.8-11.904-5.799-14.005-1.8-1-3.4-2.501-5.1-3.701-.8-.6-1.7-1.3-2.6-1.601-2.399-.6-4.899-1.4-7.299-1.5-4-.2-8.399-1-11.699 2.401-1.2 1.2-2.2 2.601-3.199 4.001-1.9 2.701-2 7.203.3 9.203"/><path fill="#DD1024" d="M301.038 292.084h.2c.6 0 1 .1 1.4.6.3.4.4.9.3 1.3s-.9 1-1.3.9c-1.1 0-1.4-2.4-.6-2.8m-3.801-3.101c0-.1 0-.2.1-.3.1-.3.4-.6.8-.7.3-.1.7-.1 1 .1 0 0 .1 0 .1.1v.1c0 .8-.1 1.5-1.1 1.5-.5-.1-1-.4-.9-.8m10.4 3.501c0 .1 0 .3-.1.4-.1.2-.9.7-1.1.6-.5-.4-.9-1-1-1.6-.1-.3.6-.7.8-.8.4-.1.9.2 1.2.6.1.1.2.4.2.8m-9.699 6.202c0-.2.099-.5.299-.6.2-.2.3-.5.6-.5.4-.1 1 .3 1.101.7.299.5-.201.9-.701 1h-.6c-.1 0-.3-.1-.4-.1-.2-.2-.299-.3-.299-.5m-1.499-3.502c-.3 0-.6-.1-.8-.4-.5-.6 0-1.2.7-1.2.9.1 1.5 1.8.1 1.6m-2.2 3.202c0 .4-1.1 1-1.5 1-.5 0-.8-.8-.6-1.2.2-.3.7-.6 1.1-.7.3-.1 1 .5 1 .9m11.799-.5c-.1.2-.2.4-.4.4h-.4c-.2 0-.4-.1-.6-.2-.3-.1-.4-.4-.4-.7 0-.2.7-.8.9-.7.3.2.6.4.8.7.1.3.2.3.1.5m-3-10.304h.1c.1 0 .1.1.2.1.3.2.7.4.6.8 0 .3-.6.7-.9.7s-.5-.1-.7-.3c-.3-.3-.3-.5-.2-.9.3-.4.5-.4.9-.4"/><path fill="#008C50" d="M321.037 270.977c1.3-.3 2.7-.7 3.9 1.5-8.2 1.901-15.999 3.702-23.898 5.502 1.3 2.601 11.899 5.002 17.298 4.002 8-1.501 18.298-10.304 18.898-16.406-11.298-4.101-30.597 2.101-36.196 10.304.6-.101.9-.101 1.3-.201 6.199-1.6 12.399-3.201 18.698-4.701"/><path fill="#B58B76" d="M295.641 274.478c1-2.201 1.8-4.401 2.6-6.702 1.2-3.501 2.4-6.902 3.6-10.404-4.9-1.5-5.5-1.1-6.5 3.402-.9 4.201-1.9 8.402-2.7 12.604-.1.7.6 1.6 1 2.401.7-.501 1.8-.701 2-1.301"/><path fill="#91FF1E" d="M311.338 299.687c2.2-3.902-.1-10.304-2.4-13.805.7-.1 1.1-.2 1.5-.2 3.8-.1 7.599.2 11.299-.3 2.1-.3 4.399-1.201 6.199-2.501 5.4-3.901 9.799-8.803 12.899-14.705.3-.6.4-1.901 0-2.301-1.3-1.2-2.7-2.601-4.3-3.001-9.899-2.301-19.498-1.2-28.597 3.401-2.2 1.101-4.399 1.901-7.499 3.201 1.6-3.801 2.8-7.002 4.3-10.103.799-1.7.1-4.401-1.7-4.701-2.7-.501-5.5-.801-8.699-1.301-1.3 5.902-2.7 11.904-4 18.006-.4 2.101-1.2 3.101-3.6 3.101q-3.599 0-7.199.9c-4.699 1.301-8.399 4.102-10.499 8.603-2.1 4.502.6 9.203 4.2 11.904 5.499 4.102 11.499 7.003 18.298 8.103 2 .3 3.999 1.2 5.999 1.2 1.9.1 4-.4 5.8-1 1.5-.5 2.899-1.3 4.399-1.901 1.9-.5 2.9-1.5 3.6-2.6m25.797-34.212c-.6 6.102-10.799 14.905-18.898 16.406-5.499 1-15.998-1.401-17.298-4.002 7.999-1.8 15.798-3.601 23.898-5.502-1.2-2.2-2.5-1.8-3.9-1.5-6.299 1.6-12.499 3.101-18.798 4.701-.4.101-.8.101-1.3.201 5.699-8.203 24.997-14.405 36.296-10.304m-41.796-4.801c1-4.502 1.6-4.802 6.5-3.402-1.2 3.502-2.4 6.903-3.6 10.404-.8 2.301-1.6 4.501-2.6 6.702-.3.6-1.299.8-1.999 1.2-.4-.8-1.1-1.7-1-2.4.8-4.102 1.8-8.303 2.699-12.504m13.999 37.212c-.5 1.2-1.7 2.601-2.9 3.001-3.799 1.2-7.799 2.501-11.898 1-4.2-1.2-8.6-2.1-12.599-3.801-2.9-1.2-5.6-3.201-7.999-5.402-2.3-2-2.1-6.602-.3-9.103 1-1.4 1.999-2.801 3.199-4.001 3.3-3.401 7.6-2.601 11.699-2.401 2.5.1 4.9.8 7.299 1.501.9.2 1.8 1 2.6 1.6 1.7 1.2 3.2 2.801 5.1 3.701 3.999 2.001 7.499 9.804 5.799 13.905"/><path fill="#FFA004" d="M374.231 554.371c2.5 1.901 5.4 3.701 8.399 4.702 4.1 1.3 8.6 1.8 12.899 2.701 4.2 1.1 8.099-.501 11.799-2.001 1.2-.5 2.3-2.001 2.7-3.201 1.3-4.201-2.9-11.704-7-13.505-1.899-.8-3.599-2.2-5.399-3.301-.9-.5-1.8-1.2-2.7-1.3-2.5-.4-4.999-.9-7.399-.8-4 .2-8.399-.2-11.399 3.401-1.1 1.3-1.9 2.801-2.8 4.301-1.799 2.601-1.599 7.103.9 9.003"/><path fill="#DD1024" d="M401.23 551.37c.1 0 .1-.1.2-.1.6-.1 1 0 1.5.4.3.4.5.8.4 1.3-.1.4-.8 1-1.2 1-1.2.2-1.7-2.1-.9-2.6m-4.2-2.801v-.3c.1-.3.4-.6.7-.7s.7-.1 1 0c0 0 .1 0 .1.1v.1c.1.8.1 1.5-1 1.6-.3-.1-.7-.3-.8-.8m10.8 2.6c0 .1 0 .3-.1.4-.1.2-.8.8-1 .7-.5-.3-1-1-1.2-1.5-.1-.3.5-.8.7-.8.4-.1 1 .1 1.2.5.2 0 .4.3.4.7m-9.101 7.003c0-.2.1-.5.2-.7s.3-.5.5-.5c.4-.1 1 .2 1.2.6.3.5-.1 1-.6 1.1-.2.1-.4 0-.6 0-.1 0-.3 0-.4-.1-.2-.1-.3-.2-.3-.4m-1.898-3.301q-.45 0-.9-.3c-.6-.6-.1-1.2.6-1.2 1-.1 1.7 1.5.3 1.5m-1.9 3.401c0 .4-1.1 1.1-1.4 1.1-.5.1-.9-.7-.7-1.1.1-.3.7-.7 1-.8.3-.2 1.1.4 1.1.8m11.699-1.601c-.1.2-.2.4-.4.4h-.4c-.2 0-.4 0-.6-.1-.3-.1-.4-.3-.5-.6-.1-.2.6-.8.8-.8.3.1.7.4.9.6.3.3.3.3.2.5m-3.8-10.003h.1c.1 0 .1 0 .2.1.3.1.7.3.7.7 0 .3-.6.8-.8.8-.3 0-.5-.1-.7-.2q-.45-.3-.3-.9c.1-.4.3-.4.8-.5q-.15 0 0 0"/><path fill="#008C50" d="M419.228 528.562c1.3-.4 2.6-.9 4 1.201-8 2.601-15.599 5.001-23.398 7.502 1.5 2.501 12.199 3.902 17.598 2.501 7.899-2.201 17.298-11.904 17.398-18.006-11.598-3.101-30.297 4.702-35.196 13.405.5-.1.9-.2 1.3-.3z"/><path fill="#B58B76" d="M394.33 534.264c.8-2.2 1.4-4.601 2-6.902.9-3.501 1.8-7.102 2.7-10.703-5-1.001-5.6-.601-6.2 3.901-.5 4.301-1.2 8.503-1.6 12.804-.1.7.8 1.501 1.2 2.301.6-.5 1.6-.8 1.9-1.401"/><path fill="#91FF1E" d="M412.128 557.972c1.9-4.101-.999-10.203-3.499-13.504.7-.1 1.1-.2 1.5-.3 3.699-.4 7.499-.501 11.199-1.301 2.099-.4 4.299-1.6 5.899-3.001 5.099-4.301 8.999-9.603 11.599-15.805.3-.7.2-2.001-.2-2.301-1.4-1.1-2.9-2.401-4.5-2.601-10.099-1.4-19.498.5-28.197 5.802-2.1 1.301-4.299 2.301-7.199 3.902 1.3-3.902 2.2-7.203 3.399-10.404.6-1.801-.299-4.401-2.099-4.601-2.8-.201-5.6-.401-8.699-.601-.8 6.002-1.7 12.104-2.4 18.306-.2 2.101-.9 3.201-3.3 3.402-2.4.2-4.799.7-6.999 1.5-4.6 1.701-7.999 4.902-9.699 9.503-1.7 4.602 1.3 9.103 5.199 11.504 5.8 3.601 12.099 6.002 18.998 6.502 2.1.1 4.1.801 6.1.7 1.9-.1 3.899-.8 5.699-1.5 1.5-.6 2.8-1.601 4.2-2.301 1.4-.6 2.4-1.6 2.999-2.901m22.698-36.212c-.1 6.102-9.499 15.805-17.398 18.006-5.3 1.501-16.098 0-17.598-2.501 7.799-2.501 15.398-5.001 23.397-7.502-1.399-2.101-2.699-1.601-3.999-1.201l-18.298 6.303c-.4.1-.8.2-1.3.3 4.899-8.703 23.597-16.606 35.196-13.405m-41.996-1.2c.6-4.502 1.1-4.902 6.2-3.902-.9 3.602-1.8 7.103-2.7 10.704-.6 2.301-1.2 4.702-2 6.902-.2.601-1.2.901-1.9 1.401-.4-.8-1.299-1.601-1.199-2.301.4-4.201.999-8.503 1.599-12.804m17.099 35.912c-.4 1.3-1.5 2.701-2.7 3.201-3.7 1.6-7.499 3.101-11.799 2-4.299-.9-8.699-1.4-12.899-2.7-2.999-1.001-5.899-2.701-8.399-4.702-2.399-1.801-2.699-6.302-1.1-9.103.9-1.501 1.8-2.901 2.8-4.301 3-3.702 7.399-3.302 11.399-3.402 2.5-.1 4.999.401 7.399.801 1 .2 1.8.8 2.7 1.3 1.8 1.101 3.5 2.501 5.399 3.301 4.3 1.801 8.5 9.303 7.2 13.605"/><path fill="#FFA706" d="M235.746 138.733c-.5.2-.9.3-1.8.6.7.4 1.1.8 1.6.9 3.3 1.1 7.699-.7 8.999-4.001-.9.6-1.8 1.2-2.7 1.9-.799-2.3-.6-2.901 1.6-3.201 2.4-.3 4.9.1 7.3-.3 2.799-.5 5.199.5 7.699 1.401 2.699 1 4.399 2.801 4.999 5.802 1.2 5.001-.1 9.103-3.999 12.304-3 2.401-6.5 3.801-9.999 5.301-7.2 3.102-14.599 2.301-21.798.801-3-.6-5.9-1.901-8.099-4.502-3.2-4.101-2.3-8.102-.5-12.304 2-4.501 6.299-5.902 10.399-7.502.7-.3 1.5-.3 2.199-.501 3.5-.6 3.7-.4 4.1 3.302m20.398 8.002c-.1.3-.3.7-.4 1.001.8.4 1.6.7 2.3 1.1.1-.5.3-1.401.2-1.501-.6-.3-1.4-.4-2.1-.6m-2.4 5.902.6-.9c-.5-.4-1-.8-1.6-1.1-.1 0-.5.7-.8 1 .5.4 1.1.7 1.8 1m-2.1 4.702c.2-.8.5-1.301.5-1.701-.1-.3-.6-.5-.9-.7-.299.4-.799.8-.699 1.1-.1.3.499.601 1.099 1.301m0-9.603c.3-.601.7-1.101.6-1.301-.2-.4-.7-.8-1.1-.9-.199 0-.899.7-.799.9.2.5.699.8 1.299 1.301m4.1-2.601c.2-.1.4-.3.6-.4-.3-.601-.6-1.301-.8-1.901-.4.3-.8.5-1.2.8.4.5.9 1.001 1.4 1.501m5.1-.3c.299-.701.699-1.201.599-1.301-.3-.4-.799-.7-1.299-.8-.1 0-.7.7-.6.9.2.4.6.7 1.3 1.201m-11.899-2.501c-.8-.4-1.3-.7-1.8-.7-.2 0-.5.6-.7.9.4.3.8.7 1.3.8.2 0 .5-.5 1.2-1"/><path fill="#008C50" d="M242.046 131.13c3.2-3.201 6.399-6.502 9.599-9.703q2.1-2.101 5.099-2.701c2.6-.5 5.1-1.001 7.6-1.501 1.499-.3 2.399.5 2.099 1.901-.4 1.7-.799 3.601-1.799 4.901-5 6.503-11.799 9.304-20.098 8.303 5.399-3.101 10.699-6.302 16.098-9.403 0-.1.1-.3.1-.4-.8 0-1.8-.3-2.5 0-2.499 1.4-4.799 3.201-7.199 4.601-2.8 1.601-5.699 2.901-8.499 4.402-.3-.1-.4-.3-.5-.4"/><path fill="#BB9276" d="M239.847 139.033q-.9.15-1.5.3c-1.5-4.102-3-8.103-4.5-12.204 1.8-.601 3.5-1.101 5.6-1.701 0 2.801-.1 5.202 0 7.603 0 2 .2 3.901.4 6.002m-.2-15.006c-2 .5-3.6 1-5.3 1.3-.9.2-1.3-.4-.8-1.3.7-1 4.5-1.3 6.1 0"/><path fill="#E6622B" d="M256.144 146.735c.7.2 1.5.3 2.1.6.2.1-.1 1-.2 1.5-.8-.4-1.6-.7-2.3-1.1.2-.3.3-.7.4-1m-2.4 5.901c-.6-.3-1.2-.6-1.8-1 .3-.4.7-1.1.8-1 .6.3 1.1.7 1.6 1.1q-.45.6-.6.9m-2.1 4.702c-.6-.6-1.2-.9-1.2-1.3s.5-.8.7-1.1c.3.2.9.4.9.7.1.4-.2.8-.4 1.7m.001-9.603c-.6-.6-1.1-.8-1.3-1.3-.1-.2.6-1 .8-.9.4.1.9.5 1.1.9.2.2-.3.7-.6 1.3m4.1-2.601c-.5-.5-.9-1-1.4-1.5.4-.3.8-.5 1.2-.8.3.6.6 1.3.8 1.9-.2.1-.4.3-.6.4m5.098-.3c-.6-.5-1.1-.8-1.3-1.2-.1-.2.5-.9.6-.9.5.1.9.4 1.3.8 0 .1-.3.6-.6 1.3m-11.899-2.5c-.6.5-1 1-1.2 1-.5-.1-.8-.5-1.3-.8.2-.3.5-.9.7-.9.5 0 .9.3 1.8.7"/><path fill="#91FF1E" d="m266.043 144.635-.3-1.801c-.3-2.001-.999-3.801-2.399-5.302-1-1.1-2.2-1.9-3.5-2.601q-1.05-.6-2.1-.9c-.3-.1-2-.9-2.3-.7 1.4-.901 2.7-1.401 4-2.001 4.8-2.101 8.699-7.702 8.099-13.204 0-.4-.5-1.201-.8-1.201-1.899-.3-3.899-.8-5.699-.6-5.899.6-10.599 3.801-14.799 7.803-1.799 1.7-3.399 3.701-5.199 5.702-.1-.801-.1-1.401-.2-2.001-.2-1.401-.3-2.701-.6-4.101-.1-.401-.5-1.101-.8-1.201-2.3-.6-4.599-.5-6.499 1.101-1.7 1.4-.7 3.001-.3 4.601.5 1.901 1.1 3.701 1.7 5.902-4.2-.3-7.5 1.2-10.799 3.001-2.6 1.401-4.6 3.601-6.1 6.102-.3.5-.8 1.1-1 1.701-.3.8-.2 1.9-.2 2.701 0 1.4 0 2.8.2 4.201.2 1.3.9 2.301 1.2 3.501 1.1 3.701 3.9 5.702 7.2 7.203 5.099 2.4 10.598 2.5 15.998 2.5 2.1 0 4.3 0 6.099-.8 5.1-2.001 9.999-4.201 14.299-7.803 2.6-2.1 4.599-4.901 4.999-8.302.1-1.101 0-2.301-.2-3.501m-14.498-23.208q2.1-2.101 5.099-2.701c2.6-.5 5.1-1 7.6-1.501 1.499-.3 2.399.501 2.099 1.901-.4 1.701-.8 3.601-1.799 4.902-5 6.502-11.799 9.303-20.098 8.302 5.399-3.101 10.699-6.302 16.098-9.403 0-.1.1-.3.1-.4-.8 0-1.8-.3-2.5 0-2.5 1.401-4.799 3.201-7.199 4.602-2.8 1.6-5.699 2.901-8.499 4.401-.1-.2-.3-.3-.4-.5 3.2-3.201 6.399-6.402 9.499-9.603m-17.898 2.701c.6-1.101 4.499-1.401 6.099-.1-2 .5-3.6 1-5.299 1.3-.9.2-1.3-.3-.8-1.2m5.799 1.3c0 2.801-.1 5.202 0 7.603.1 1.9.3 3.901.5 6.002q-.9.15-1.5.3c-1.5-4.102-3-8.103-4.499-12.204 1.699-.5 3.399-1.101 5.499-1.701m20.098 28.71c-3 2.401-6.499 3.801-9.999 5.301-7.199 3.102-14.598 2.301-21.798.801-2.999-.6-5.899-1.901-8.099-4.502-3.2-4.101-2.3-8.102-.5-12.304 2-4.501 6.3-5.902 10.399-7.502.7-.3 1.5-.3 2.2-.501 3.4-.6 3.699-.4 3.999 3.302-.499.2-.899.3-1.799.6.7.4 1.1.8 1.599.9 3.3 1.1 7.7-.7 9-4.001-.9.6-1.8 1.2-2.7 1.9-.8-2.3-.6-2.901 1.6-3.201 2.399-.3 4.899.1 7.299-.3 2.8-.5 5.199.5 7.699 1.401 2.7 1 4.4 2.801 5 5.802 1.2 5.001 0 9.103-3.9 12.304"/><path fill="#FFA706" d="M50.466 524.661c-.5.2-.9.3-1.8.6.7.401 1.1.801 1.6.901 3.3 1.1 7.699-.7 8.999-4.002-.9.601-1.8 1.201-2.7 1.901-.8-2.301-.6-2.901 1.6-3.201 2.4-.3 4.9.1 7.3-.3 2.799-.5 5.199.5 7.698 1.4 2.7 1.001 4.4 2.801 5 5.802 1.2 5.002-.1 9.103-4 12.304-3 2.401-6.499 3.802-9.999 5.302-7.199 3.101-14.598 2.301-21.797.8-3-.6-5.9-1.9-8.1-4.501-3.2-4.101-2.3-8.103-.5-12.304 2-4.502 6.3-5.902 10.4-7.503.7-.3 1.5-.3 2.2-.5 3.399-.6 3.699-.3 4.099 3.301m20.398 8.003c-.1.3-.3.7-.4 1 .8.4 1.6.7 2.3 1.101.1-.501.3-1.401.2-1.501-.6-.3-1.4-.4-2.1-.6m-2.5 6.002.6-.9c-.5-.401-1-.801-1.6-1.101-.1 0-.5.701-.8 1.001.6.3 1.2.7 1.8 1m-2 4.601c.2-.8.5-1.3.5-1.7-.1-.3-.6-.5-.9-.7-.3.4-.8.8-.7 1.1-.1.3.4.7 1.1 1.3m0-9.603c.3-.6.7-1.1.6-1.3-.2-.4-.7-.8-1.1-.9-.2 0-.9.7-.8.9.2.5.7.8 1.3 1.3m4-2.601c.2-.1.4-.3.6-.4-.3-.6-.6-1.3-.8-1.9-.4.3-.8.5-1.2.8.5.5 1 1 1.4 1.5m5.1-.3c.3-.7.7-1.2.6-1.3-.3-.4-.8-.7-1.3-.8-.1 0-.7.7-.6.9.2.4.7.7 1.3 1.2m-11.9-2.501c-.8-.4-1.3-.7-1.8-.7-.2 0-.5.6-.7.901.4.3.8.7 1.3.8.3 0 .6-.5 1.2-1.001"/><path fill="#008C50" d="M56.664 517.059c3.2-3.201 6.4-6.502 9.6-9.703q2.099-2.101 5.099-2.701c2.6-.501 5.1-1.001 7.599-1.501 1.5-.3 2.4.5 2.1 1.901-.4 1.7-.8 3.601-1.8 4.901-5 6.503-11.799 9.303-20.098 8.303 5.4-3.101 10.699-6.302 16.098-9.403 0-.1.1-.3.1-.4-.8 0-1.8-.3-2.5 0-2.5 1.4-4.8 3.201-7.199 4.601-2.8 1.601-5.7 2.901-8.499 4.402-.2-.1-.3-.2-.5-.4"/><path fill="#BB9276" d="M54.565 525.061q-.9.15-1.5.3c-1.5-4.101-3-8.102-4.5-12.204 1.8-.6 3.5-1.1 5.6-1.7 0 2.801-.1 5.202 0 7.602-.1 1.901.2 3.802.4 6.002m-.199-15.005c-2 .5-3.6 1-5.3 1.3-.9.2-1.3-.4-.8-1.3.7-1.1 4.5-1.4 6.1 0"/><path fill="#E6622B" d="M70.862 532.664c.7.2 1.5.3 2.1.6.2.1-.1 1-.2 1.5-.8-.4-1.6-.7-2.3-1.1.1-.3.3-.7.4-1m-2.498 6.001c-.6-.3-1.2-.6-1.8-1 .3-.4.7-1.1.8-1 .6.3 1.1.7 1.6 1.1zm-2.001 4.602c-.6-.6-1.2-.9-1.2-1.3s.5-.8.7-1.1c.3.2.9.4.9.7.1.4-.2.9-.4 1.7m0-9.604c-.6-.6-1.1-.8-1.3-1.3-.1-.2.6-1 .8-.9.4.1.9.5 1.1.9.1.2-.3.7-.6 1.3m4-2.6c-.5-.5-.9-1-1.4-1.5.4-.3.8-.5 1.2-.8.3.6.6 1.3.8 1.9-.2.2-.4.3-.6.4m5.1-.301c-.6-.5-1.1-.8-1.3-1.2-.1-.199.5-.9.6-.9.5.1.9.4 1.3.8.1.1-.3.7-.6 1.3m-11.899-2.5c-.6.5-1 1-1.2 1-.5-.1-.8-.5-1.3-.8.2-.3.5-.9.7-.9.5 0 1 .3 1.8.7"/><path fill="#91FF1E" d="m80.762 530.563-.3-1.8c-.3-2.001-1-3.802-2.4-5.302-1-1.101-2.2-1.901-3.5-2.601q-1.05-.6-2.099-.9c-.3-.1-2-.901-2.3-.701 1.4-.9 2.7-1.4 4-2 4.8-2.101 8.699-7.703 8.099-13.205 0-.4-.5-1.2-.8-1.2-1.9-.3-3.9-.8-5.7-.6-5.899.6-10.598 3.801-14.798 7.802-1.8 1.701-3.4 3.702-5.2 5.702-.1-.8-.1-1.4-.2-2-.2-1.401-.3-2.701-.6-4.102-.1-.4-.5-1.1-.8-1.2-2.299-.6-4.599-.5-6.498 1.1-1.7 1.401-.7 3.001-.3 4.602.5 1.9 1.1 3.701 1.7 5.902-4.2-.3-7.5 1.2-10.8 3.001-2.6 1.4-4.6 3.601-6.099 6.102-.3.5-.8 1.1-1 1.7-.3.801-.2 1.901-.2 2.701 0 1.401 0 2.801.2 4.202.2 1.3.9 2.3 1.2 3.501 1.1 3.701 3.9 5.702 7.2 7.202 5.099 2.401 10.598 2.501 15.998 2.501 2.1 0 4.3 0 6.1-.8 5.099-2.001 9.998-4.202 14.298-7.803 2.6-2.101 4.6-4.902 5-8.303.1-1.1 0-2.3-.2-3.501m-14.498-23.208q2.1-2.1 5.1-2.701c2.599-.5 5.099-1 7.598-1.5 1.5-.3 2.4.5 2.1 1.901-.4 1.7-.8 3.601-1.8 4.901-5 6.502-11.799 9.303-20.098 8.303 5.4-3.101 10.7-6.302 16.099-9.403 0-.1.1-.3.1-.4-.8 0-1.8-.3-2.5 0-2.5 1.4-4.8 3.201-7.2 4.601-2.799 1.601-5.699 2.901-8.498 4.402-.1-.2-.3-.3-.4-.5 3.1-3.101 6.299-6.403 9.499-9.604m-17.999 2.701c.6-1.1 4.5-1.4 6.1-.1-2 .5-3.6 1.001-5.3 1.301-.8.2-1.3-.3-.8-1.201m5.8 1.301c0 2.801-.1 5.201 0 7.602.1 1.901.3 3.902.5 6.002q-.9.15-1.5.3c-1.5-4.101-3-8.102-4.5-12.204 1.8-.5 3.5-1 5.5-1.7m20.098 28.709c-3 2.401-6.5 3.802-10 5.302-7.198 3.101-14.598 2.301-21.797.8-3-.6-5.9-1.9-8.1-4.501-3.199-4.102-2.299-8.103-.5-12.304 2-4.502 6.3-5.902 10.4-7.503.7-.3 1.5-.3 2.2-.5 3.4-.6 3.7-.4 4 3.301-.5.2-.9.3-1.8.6.7.4 1.1.801 1.6.901 3.299 1.1 7.699-.701 8.998-4.002-.9.601-1.8 1.201-2.7 1.901-.8-2.301-.6-2.901 1.6-3.201 2.4-.3 4.9.1 7.3-.3 2.8-.5 5.2.5 7.699 1.4 2.7 1.001 4.4 2.801 5 5.802 1.3 5.002.1 9.103-3.9 12.304"/></svg>