<svg xmlns="http://www.w3.org/2000/svg" width="83" height="32"><path fill="#141BEB" d="M31.192 26.204H0v1.68h31.192z"/><path fill="#00EDBE" d="M39.742 22.254a4.97 4.97 0 0 0-2.705.838 4.8 4.8 0 0 0-1.777 2.161 4.7 4.7 0 0 0-.254 2.765 4.76 4.76 0 0 0 1.355 2.437 4.94 4.94 0 0 0 2.508 1.296 5 5 0 0 0 2.822-.283 4.9 4.9 0 0 0 2.19-1.766 4.73 4.73 0 0 0 .822-2.656 4.76 4.76 0 0 0-1.465-3.4 5 5 0 0 0-3.494-1.392z"/><path fill="#141BEB" d="M41.701 25.272c-.014-.24.046-.478.173-.684h-3.998a.3.3 0 0 0-.105.02.265.265 0 0 0-.17.247v.834q0 .053.021.104a.27.27 0 0 0 .149.143q.051.021.105.02h3.998a1.2 1.2 0 0 1-.173-.684m-4.724 1.785c.012.24-.048.478-.173.684h3.997a.3.3 0 0 0 .106-.02.265.265 0 0 0 .17-.247v-.834a.265.265 0 0 0-.17-.247.3.3 0 0 0-.106-.02h-3.997c.125.207.185.444.173.684m4.724 1.786c-.014-.24.046-.478.173-.684h-3.998a.3.3 0 0 0-.105.019.27.27 0 0 0-.17.247v.835q0 .054.021.103a.27.27 0 0 0 .149.144q.051.021.105.02h3.998a1.2 1.2 0 0 1-.173-.684m8.49-3.767c1.17 0 1.933.787 1.933 2.085 0 .986-.585 1.996-1.916 1.996-1.187 0-1.928-.842-1.928-2.085 0-1.008.636-1.996 1.911-1.996m.868 2.013c0-.747-.357-1.104-.851-1.104-.573 0-.897.451-.897 1.142 0 .624.34 1.116.875 1.116.597 0 .876-.456.876-1.154zm3.242-.814c.657 0 1.22.49 1.22 1.416s-.601 1.387-1.287 1.394c-.367 0-.674-.173-.72-.245 0 .185.022 1.366-.028 1.4-.05.037-.813.071-.918.016-.017-.005.016-3.873.067-3.998.004-.016.834.03.834.03l-.005.3c.039-.068.334-.313.835-.313zm.278 1.428c0-.38-.227-.58-.53-.58-.379 0-.556.24-.556.573 0 .367.257.59.535.59.35 0 .551-.24.551-.585zm2.113.211c0 .295.21.48.597.48.3 0 .506-.106.652-.194.055.055.283.518.29.602-.15.139-.534.317-.985.317-1.007 0-1.415-.675-1.415-1.387 0-.754.468-1.454 1.343-1.454.74 0 1.192.556 1.192 1.18q0 .26-.05.43c-.279.038-1.288.038-1.622.028zm-.005-.514.875-.016c.012-.274-.127-.485-.395-.485-.29 0-.48.218-.48.502m2.089-1.031c.05-.072.83-.106.88-.055-.005.117-.012.3-.017.333.122-.185.396-.391.846-.391.607 0 .986.485.986 1.204 0 .375-.022 1.315-.046 1.589-.004.055-.841.046-.858.034-.022-.012.005-1.327.005-1.526 0-.3-.135-.514-.425-.514a.47.47 0 0 0-.489.456c0 .19-.005 1.526-.022 1.55-.016.021-.83.012-.846-.022-.012-.021-.033-1.478-.017-2.658zm5.265.741c0 .797.49 1.116.964 1.116.475 0 .758-.24.88-.329.128.089.375.54.463.73-.24.273-.803.54-1.443.54-1.305 0-1.911-.932-1.911-2.095s.79-1.985 2.055-1.985c.64 0 1.103.202 1.275.368 0 .11-.235.712-.374.83-.201-.118-.54-.269-.892-.269-.573 0-1.019.456-1.019 1.092zm2.576-.244c.005-.094.374-.62 1.12-.62.69 0 1.225.408 1.225 1.222 0 .597-.029 1.521-.046 1.555-.016.033-.719 0-.719 0l-.05-.24c-.039.038-.274.307-.713.307-.606 0-.863-.358-.863-.843 0-.484.442-.818.998-.818.256 0 .412.072.518.152.005-.24.017-.57-.485-.57-.345 0-.506.246-.556.253-.05 0-.434-.334-.43-.396zm.702 1.365c0 .184.156.312.362.312.245 0 .367-.144.367-.312 0-.195-.16-.317-.367-.317-.218 0-.362.14-.362.317m2.19-1.896c.05-.084.83-.033.88.017a6 6 0 0 1-.017.3c.122-.185.333-.38.787-.38.311 0 .563.157.712.402.19-.334.614-.401.841-.401.703 0 1.015.463 1.015 1.175 0 .38-.022 1.344-.039 1.606-.005.05-.851.05-.868.033-.016-.012.012-1.288.012-1.55 0-.261-.072-.48-.367-.48s-.395.3-.395.473c0 .4-.017 1.226-.034 1.505-.005.05-.846.016-.858.004-.022-.012.005-1.315.005-1.504 0-.274-.08-.48-.367-.48-.288 0-.413.245-.413.425 0 .16-.012 1.571-.029 1.593-.016.021-.83.012-.846-.022-.012-.021-.034-1.538-.017-2.72zm6.49-.062c.658 0 1.221.49 1.221 1.416s-.602 1.386-1.287 1.393c-.367 0-.674-.172-.72-.244 0 .184.022 1.365-.028 1.399-.05.038-.813.072-.919.016-.017-.004.017-3.872.067-3.997.005-.017.835.029.835.029l-.005.3c.038-.067.333-.312.835-.312zm.279 1.428c0-.38-.228-.581-.53-.581-.379 0-.556.24-.556.573 0 .367.256.59.535.59.35 0 .551-.24.551-.585zm3.99 1.338c-.05.072-.774.05-.83 0 .005-.117 0-.278.005-.316a1.01 1.01 0 0 1-.825.412c-.673 0-.997-.412-.997-1.192 0-.4.055-1.354.072-1.617.012-.056.846-.046.863-.03.012.063-.046 1.332-.046 1.55 0 .313.135.502.425.502.307 0 .468-.235.472-.48 0-.16.022-1.533.046-1.554.017-.022.825-.012.846.021.005.022-.012 1.517-.033 2.704zm1.616.106c-.556 0-1.064-.223-1.141-.307-.046-.055.211-.662.257-.64.088.045.433.294.79.294.224 0 .334-.079.334-.201s-.089-.19-.45-.257c-.624-.106-.914-.367-.914-.835 0-.598.407-.943 1.09-.943.514 0 .965.173 1.037.245.05.05-.207.636-.245.64-.029 0-.384-.218-.707-.218-.219 0-.312.106-.312.218 0 .123.093.178.417.224.662.093.96.324.96.842 0 .49-.334.935-1.116.935z"/><path d="M0 20.192h8.544v-2.87H2.865v-5.876h4.947v-2.7H2.866V2.869h5.678v-2.7H0zM13.94.169H9.698v20.023h3.99q2.557.001 3.92-1.337 1.363-1.335 1.362-4.148V5.344q0-2.474-1.278-3.824Q16.411.17 13.938.169zm2.164 14.819q0 1.292-.506 1.898-.506.604-1.715.604h-1.321V2.868h1.321q1.266 0 1.744.648.477.648.477 1.828v9.646zM42.785 1.322Q41.52.001 39.498 0q-1.04.001-1.897.35c-.57.236-1.065.56-1.475.97q-.619.62-.954 1.461a4.9 4.9 0 0 0-.338 1.828v3.386l-.18.103-2.017 1.164-2.016-1.164-.382-.22V.167h-2.865V15.41q0 1.07-.506 1.574-.506.507-1.264.506-.76.001-1.264-.506-.506-.506-.506-1.574V.17H20.97v15.523q0 .986.364 1.814.364.832 1.012 1.476.648.647 1.475 1.012a4.4 4.4 0 0 0 1.784.365q.957 0 1.799-.365a4.75 4.75 0 0 0 2.486-2.488 4.6 4.6 0 0 0 .353-1.814v-4.448l.381-.22 2.017-1.165 2.016 1.164.18.103v4.509q-.001 1.378.437 2.262.434.885 1.11 1.45.675.562 1.518.787a6.5 6.5 0 0 0 1.657.225q.956 0 1.784-.379a4.7 4.7 0 0 0 1.448-1.027q.619-.648.969-1.475.352-.83.352-1.757v-1.238h-2.865v.984q0 .59-.168.984a1.75 1.75 0 0 1-.422.619q-.281.226-.604.324a2.1 2.1 0 0 1-.605.098q-.985 0-1.362-.59-.379-.59-.379-1.462V5.202q.001-1.012.35-1.672.353-.66 1.42-.66.815 0 1.293.619.478.62.477 1.461v.958h2.865V4.782q0-1.04-.352-1.927a4.8 4.8 0 0 0-.969-1.533zm9.357 7.425H48.6V.169h-2.865v20.023H48.6v-8.914h3.542v8.914h2.866V.169h-2.866zm8.04-8.578-4.467 20.02h2.866l.844-4.302h3.906l.844 4.302h2.865L62.57.17zm-.251 13.019 1.405-7.256h.055l1.405 7.256zM70.687.169H67.82v20.02h2.865zm9.107 0v12.064h-.055L75.411.169h-2.755v20.023h2.868V8.156h.055l4.383 12.036h2.698V.169z"/></svg>